<svg xmlns="http://www.w3.org/2000/svg" xmlns:xlink="http://www.w3.org/1999/xlink" xmlns:lucid="lucid" width="1440" height="1181"><g transform="translate(-160 -700)" lucid:page-tab-id="0_0"><path d="M1204.66 781.3h240v60h-240zM219 720h240v60H219z" fill="none"/><use xlink:href="#a" transform="matrix(1,0,0,1,219,720) translate(97.075 33.6)"/><path d="M406.5 1415.87h124v59.3h-124v-59.3z" fill="#876929"/><path d="M406.5 1415.87h124v55.25h-124z" fill="#d9a741"/><path d="M440.9 1423.3h13.22v41.67h-13.2v-41.66zM461.9 1423.3h13.2v41.67h-13.2v-41.66zM482.86 1423.3h13.2v41.67h-13.2v-41.66zM421.8 1435.1v18.07l11.32-9.03-11.32-9.04zM503.85 1435.1v18.07l11.32-9.03-11.32-9.04z" fill="#fff"/><use xlink:href="#b" transform="matrix(1,0,0,1,406.5,1475.1660626047058) translate(-72.96296296296296 17.06666666666667)"/><path d="M1239.78 942.96h75.44c19.78 0 19.78 0 19.78 19.7v75.2c0 19.72 0 19.72-19.78 19.72h-75.44c-19.78 0-19.78 0-19.78-19.72v-75.2c0-19.7 0-19.7 19.78-19.7z" fill="#19486f"/><path d="M1239.78 937.6h75.44c19.78 0 19.78 0 19.78 19.7v75.2c0 19.72 0 19.72-19.78 19.72h-75.44c-19.78 0-19.78 0-19.78-19.72v-75.2c0-19.7 0-19.7 19.78-19.7z" fill="#2e73b8"/><path d="M1225.42 955.57h5.4c2.37-.22 4.5 1.52 4.73 3.9.03.37.03.68-.03 1.05.23 2.54-1.63 4.8-4.17 5.02-.3.02-.53.02-.82 0h-2.38v7.03h-2.73zm2.7 7.9h1.94c.17.03.32.03.5 0 1.42-.2 2.4-1.5 2.2-2.9 0-1.83-.73-2.94-2.9-2.94h-1.73zM1241.6 959.43c3.74 0 4.78 2.77 4.78 6.73 0 3.95-1.2 6.72-4.8 6.72-3.57 0-4.77-2.77-4.77-6.72 0-3.96 1.08-6.73 4.8-6.73zm0 11.57c1.87 0 2.16-1.57 2.16-4.82 0-2.83-.33-4.83-2.17-4.83-1.86 0-2.18 2-2.18 4.83-.02 3.3.32 4.82 2.17 4.82zM1253.97 963.5v-.32c0-1.02-.36-1.98-1.7-1.98-1.32 0-1.84.5-1.84 1.67 0 1.2.46 1.4 1.83 1.9l1.65.55c1.77.34 2.96 1.9 2.8 3.7 0 2.74-2 3.9-4.6 3.9-3.25 0-4.22-1.5-4.22-4v-.47h2.28v.4c0 1.5.5 2.3 2 2.3 1.46 0 2.16-.7 2.16-1.87.04-.9-.55-1.67-1.4-1.9l-2.18-.73c-1.73-.35-2.9-1.9-2.73-3.67 0-2.4 1.74-3.52 4.34-3.52 3.28 0 4.02 1.9 4.02 3.5v.56zM1257.7 959.75h1.76v-3.63h2.58v3.63h2.17v1.9h-2.16v7.64c0 .98.28 1.36 1.17 1.36.33.02.62.02.94 0v1.9c-.74.17-1.4.23-2.17.22-1.73 0-2.6-.5-2.6-3.1v-8.03h-1.75zM1268 973.66v.05c.12.94.96 1.6 1.88 1.46h.25c1.18-.14 2.04-1.2 1.9-2.4v-2.14c-.53 1.12-1.63 1.78-2.9 1.75-3 0-3.83-2.94-3.83-6.5 0-2.8.44-6.5 4.07-6.5 1.3-.04 2.4.7 2.83 1.92v-1.58h2.42v12.17c0 3.1-1.34 4.98-4.8 4.98-3.8 0-4.33-2.17-4.33-3.3zm1.83-3.25c2 0 2.17-2.5 2.17-4.53 0-2-.26-4.32-2.06-4.32s-2.17 1.9-2.17 4.32c0 2.42.15 4.54 2.06 4.54zM1277 959.75h2.66v2c.37-1.4 1.56-2.3 3-2.34.22-.03.4-.03.62 0v2.63c-.37-.1-.7-.14-1.08-.16-1.17 0-2.58.53-2.58 2.9v7.66H1277zM1286.82 966.5v.8c0 1.7.22 3.9 2.17 3.9 1.94 0 2.05-2.17 2.05-2.87h2.43c.16 2.4-1.65 4.45-4.04 4.6h-.47c-2.17 0-4.7-.62-4.7-6.47 0-3.36.7-6.92 4.74-6.92 3.6 0 4.54 2.16 4.54 5.7v1.36zm4.12-1.75v-.7c0-1.62-.52-2.85-1.97-2.85-1.46 0-2.17 1.62-2.17 3.3v.25zM1298 967.3v.43c0 2.17.9 3.1 2.8 3.1.08.03.16.03.25.03 1.32-.04 2.37-1.16 2.33-2.5.1-1.48-.94-2.8-2.43-3l-1.87-.66c-2.2-.48-3.68-2.43-3.55-4.66-.1-2.57 1.92-4.76 4.5-4.84.3 0 .52 0 .8.03 4.33 0 4.8 2.7 4.8 4.5v.38h-2.7v-.36c0-1.55-.7-2.45-2.4-2.45-.15-.03-.28 0-.43 0-1.18.17-2.02 1.25-1.86 2.44 0 1.45.73 2.16 2.56 2.87l1.84.68c2.13.45 3.58 2.33 3.45 4.5 0 3.6-2.17 5.12-5.65 5.12-2.57.3-4.9-1.55-5.18-4.1-.05-.4-.05-.7 0-1.08v-.4zM1316.33 972.3c-.86.44-1.7.63-2.67.57-3.9 0-5.64-2.76-5.64-8.83 0-6.04 1.72-8.8 5.64-8.8 3.93 0 5.65 2.76 5.65 8.8.14 2.45-.28 4.54-1.35 6.72l1.74 1.85-1.63 1.46zm-1.43-4.45l1.13 1.13c.47-1.72.62-3.22.5-5 0-5.7-1.26-6.7-2.9-6.7-1.62 0-2.9 1-2.9 6.7s1.28 6.86 2.9 6.86c.36 0 .66-.06 1-.17l-1.3-1.22zM1321.67 955.58h2.7v14.7h6.5v2.3h-9.2z" fill="#fff"/><use xlink:href="#c" transform="matrix(1,0,0,1,1220,1057.5913384406404) translate(6.349999999999994 14.4)"/><use xlink:href="#d" transform="matrix(1,0,0,1,1220,1057.5913384406404) translate(73.3 14.4)"/><use xlink:href="#e" transform="matrix(1,0,0,1,1220,1057.5913384406404) translate(24.025 36)"/><path d="M339 1061v38.2M339 1061.03V1060" stroke="#000" stroke-width="2" fill="none"/><path d="M339 1114.47l-4.64-14.27h9.28z" stroke="#000" stroke-width="2"/><path d="M394.54 1383.14l-4.22 10.6-2.62 7.5-1.7 5.66-1.16 4.46-.78 3.62-.5 3-.33 2.55-.18 2.18-.08 1.9v1.68l.06 1.47.1 1.32.16 1.2.17 1.07.2.98.24.9.26.84.27.78.3.72.3.68.3.63.33.6.35.58.37.54.38.5.4.5.4.48.43.46.45.44.48.43.5.43.15.1-1.2 1.6-.18-.14-.57-.48-.54-.48-.5-.5-.5-.52-.46-.54-.45-.56-.42-.6-.4-.6-.4-.65-.37-.67-.35-.7-.33-.77-.3-.8-.3-.85-.3-.92-.24-.98-.23-1.07-.2-1.15-.15-1.27-.12-1.4-.06-1.56v-1.75l.08-1.98.2-2.28.32-2.62.53-3.1.8-3.7 1.16-4.54 1.74-5.74 2.64-7.57 4.26-10.7 19.47-40.3h2.22zm37.7-169.24l1.96.12 1.73.18 1.54.23 1.4.26 1.24.28 1.14.32 1.04.34.96.35.88.36.82.4.77.4.72.4.68.43.63.43.6.45.57.47.54.5.5.5.5.5.46.55.45.56.42.6.4.6.4.64.37.68.35.7.33.76.3.8.3.86.3.9.24 1 .23 1.07.2 1.16.15 1.27.12 1.4.06 1.56v1.75l-.08 2-.2 2.26-.32 2.62-.53 3.1-.8 3.7-1.16 4.54-1.74 5.74-2.64 7.57-4.26 10.7-7.94 17.72-11.03 22.8h-2.22l11.45-23.65 7.9-17.65 4.23-10.62 2.62-7.5 1.7-5.65 1.16-4.46.78-3.62.5-3 .33-2.56.18-2.18.08-1.9V1236l-.06-1.47-.1-1.32-.16-1.18-.17-1.08-.2-1-.24-.9-.26-.82-.27-.78-.3-.72-.3-.68-.3-.64-.33-.6-.35-.57-.37-.54-.38-.53-.4-.5-.4-.47-.43-.46-.45-.44-.48-.43-.5-.42-.55-.4-.56-.4-.6-.38-.66-.37-.7-.36-.73-.35-.8-.35-.88-.32-.96-.32-1.05-.28-1.16-.27-1.3-.25-1.46-.22-1.64-.17-1.88-.1-1.18-.03.04-2z"/><path d="M431.05 1213.87l-.04 2-1-.02v-2zM403.37 1446.6l-14.98.78 2.4-8.96z"/><path d="M406.5 1447.43l-19.43 1.02 3.1-11.62zm-16.78-1.12l10.53-.55-8.85-5.74z"/><use xlink:href="#f" transform="matrix(1,0,0,1,367.02916126093845,1320.4587662396164) translate(0 14.4)"/><use xlink:href="#g" transform="matrix(1,0,0,1,367.02916126093845,1320.4587662396164) translate(58.95 14.4)"/><path d="M600 1540h120v78H600v-78z" fill="#876929"/><path d="M600 1540h120v72.67H600z" fill="#d9a741"/><path d="M633.3 1549.78h12.78v54.8H633.3v-54.8zM653.6 1549.78h12.78v54.8H653.6v-54.8zM673.9 1549.78h12.78v54.8H673.9v-54.8zM614.8 1565.3v23.77l10.96-11.9-10.95-11.87zM694.2 1565.3v23.77l10.97-11.9-10.96-11.87z" fill="#fff"/><use xlink:href="#h" transform="matrix(1,0,0,1,600,1618) translate(-7.925000000000011 14.4)"/><path d="M531.5 1455.54l9.52.2 10.18.64 9.64 1 9 1.34 8.3 1.58 7.62 1.78 6.94 1.94 6.3 2.04 5.72 2.13 5.2 2.17 4.72 2.22 4.3 2.23 3.9 2.26 3.58 2.26 3.27 2.27 2.98 2.27 2.75 2.28 2.53 2.27 2.33 2.3 2.14 2.27 2 2.3 1.82 2.32 1.7 2.33 1.56 2.35 1.44 2.38 1.33 2.42 1.2 2.45 1.12 2.5 1 2.56.92 2.62.82 2.7.44 1.73" stroke="#ccc" stroke-width="2" fill="none"/><path d="M531.55 1454.54l-.04 2-1-.02v-2z" fill="#ccc"/><path d="M659.6 1536.8l-6.3-13.63 9.22-1.1z" stroke="#ccc" stroke-width="2" fill="#ccc"/><path d="M531.5 1455.52l197.1-.55 43.96-2.7 31.96-3.34 25.04-3.68 20.44-3.88 17.12-4 14.62-4.08 12.67-4.12 11.1-4.13 9.85-4.13 8.78-4.13 7.9-4.14 7.16-4.13 6.5-4.13 5.98-4.15 5.5-4.16 5.05-4.2 4.7-4.22 4.35-4.27 4.07-4.32 3.8-4.4 3.53-4.47 3.33-4.55 3.12-4.7 2.9-4.8 2.73-4.95 2.55-5.13 2.37-5.32 2.2-5.54 2-5.78 1.84-6.08 1.65-6.4 1.44-6.78 1.2-7.2.98-7.7.28-3.4" stroke="#000" stroke-width="2" fill="none"/><path d="M531.53 1456.52h-1.03v-2h1.03z"/><path d="M1011.94 1276.6l4 14.46-9.26-.4z" stroke="#000" stroke-width="2"/><path d="M1030 1068.67l-2.1 3-1.93 3.05-1.8 3.1-1.64 3.15-1.52 3.23-1.4 3.32-1.25 3.4-1.15 3.52-1 3.65-.9 3.77-.75 3.96-.6 4.13-.47 4.35-.3 4.6-.07 3.9-2-.04.1-3.94.28-4.67.47-4.44.62-4.2.77-4.04.9-3.87 1.05-3.74 1.16-3.6 1.3-3.48 1.42-3.4 1.55-3.3 1.7-3.23 1.82-3.17 1.98-3.1 2.14-3.1 1.36-1.78h2.5zm171.54-59.72l-18.15.75-20.1 1.67-17.2 2.17-14.77 2.5-12.75 2.7-11.07 2.83-9.68 2.92-8.52 2.95-7.54 2.98-6.7 3-6 2.97-5.4 2.96-4.88 2.95-2.7 1.8h-3.55l.68-.5 4.5-2.98 4.95-3 5.47-3 6.08-3 6.8-3.03 7.6-3.02 8.6-3 9.77-2.94 11.16-2.86 12.83-2.72 14.85-2.5 17.3-2.17 20.17-1.7 18.2-.75z" fill="#ccc"/><path d="M1013.1 1122.77v1h-2v-1.04zM1216.76 1007.65l-14.17 4.9-.2-9.26z" fill="#ccc"/><path d="M1220 1007.6l-18.38 6.36-.23-12.02zm-16.44 3.57l9.97-3.45-10.1-3.07z" fill="#ccc"/><use xlink:href="#i" transform="matrix(1,0,0,1,1017.4289063754086,1044.0986515617292) translate(0 14.4)"/><path d="M580 756h160v64H580z" stroke="#000" stroke-width="2" fill="#fff"/><use xlink:href="#j" transform="matrix(1,0,0,1,585,761) translate(56.525 30.6)"/><path d="M541.5 900h160v48h-160z" stroke="#000" stroke-width="2" fill="#fff"/><use xlink:href="#k" transform="matrix(1,0,0,1,546.5,905) translate(58.525 22.6)"/><path d="M656.55 839.05l-.8 1.82-1.27 2.44-1.54 2.54-1.92 2.75-2.6 3.25-4.84 5.26-10.5 11.05-2.6 3.26-1.92 2.76-1.54 2.53-1.27 2.43-1.07 2.43-.9 2.47-.77 2.56-.6 2.7-.48 2.92-.3 3.2-.1 2.58" stroke="#000" stroke-width="2" fill="none"/><path d="M659.4 824.18l1.87 14.88-9.1-1.74z" stroke="#000" stroke-width="2"/><path d="M622.5 897.97V899h-2v-1.03z"/><path d="M694.7 909.88l10.56 9.96 10 8.68 9.54 7.6 9.2 6.73 8.9 5.96 8.73 5.32 8.58 4.76 8.54 4.26 8.52 3.82 8.58 3.42 8.72 3.07 8.94 2.72 9.25 2.4 9.67 2.08 10.26 1.76 11.04 1.43 12.14 1.05 13.7.6 6.2.02v2h-6.24l-13.8-.62-12.2-1.06-11.14-1.43-10.34-1.8-9.76-2.08-9.32-2.43-9.02-2.75-8.8-3.1-8.66-3.45-8.6-3.86-8.6-4.3-8.66-4.8-8.8-5.34-8.98-6-9.26-6.78-9.6-7.66-10.06-8.73-10.6-10.03-10.6-10.88 1.43-1.4zm426.7 57.93l24.2 1.08 23.03 2 22.4 2.88 11.14 1.92-.34 1.97-11.1-1.9-22.3-2.9-22.95-1.97-24.13-1.07-26.24-.05-30.36 1.2-125.67 13-16.45 1.38v-2l16.26-1.37 125.72-13 30.47-1.2z" fill="#ccc"/><path d="M684.17 899.04l-1.44 1.4-1.4-1.44h2.8zM1217 979.42l-14.85 1.98 1.67-9.12z" fill="#ccc"/><path d="M1220.2 980l-19.3 2.58 2.18-11.83zm-16.82.23l10.45-1.4-9.28-5z" fill="#ccc"/><use xlink:href="#i" transform="matrix(1,0,0,1,875.7717604010737,975.1756717469499) translate(0 14.4)"/><path d="M766.2 1149.16l-.12.04-18.42 4.3-21.37 4.07-25.83 3.8-33.28 3.46-48.8 3L431 1169.7l-.02-2 187.32-1.88 48.7-2.98 33.2-3.46 25.74-3.78 21.3-4.05 18.32-4.3.63-.16zM874.24 1101l-4.8 3.26-10.95 6.94-11.2 6.47-11.58 6.05-12.1 5.7-7.44 3.12v-2.17l6.64-2.8 12-5.64 11.5-6 11.14-6.44 10.88-6.9 4.78-3.25 77.04-53.5h3.5zm327.28-114.25l-7.33.07-43.62 1.66-31.4 2.54-24.24 2.98-19.68 3.27-16.64 3.5-14.56 3.7-13.1 3.9-12.17 4.2-11.6 4.57-11.42 5.05-4.15 2.04h-4.52l7.82-3.86 11.5-5.1 11.68-4.58 12.23-4.23 13.2-3.94 14.63-3.72 16.73-3.5 19.77-3.28 24.32-3 31.48-2.53 43.7-1.68 7.36-.07z" fill="#ccc"/><path d="M431.04 1169.7H430v-2h1.02zM1216.76 985.6l-14.22 4.78-.08-9.27z" fill="#ccc"/><path d="M1220 985.58l-18.45 6.18-.1-12.02zm-16.47 3.4l10-3.34-10.06-3.17z" fill="#ccc"/><use xlink:href="#l" transform="matrix(1,0,0,1,766.2094279963882,1129.944688368944) translate(0 14.4)"/><use xlink:href="#m" transform="matrix(1,0,0,1,946.7234726850198,1024.2392891946074) translate(0 14.4)"/><path d="M180 850c0-16.57 13.43-30 30-30h1340c16.57 0 30 13.43 30 30v980c0 16.57-13.43 30-30 30H210c-16.57 0-30-13.43-30-30z" fill-opacity="0"/><path d="M188.1 829.67l1.5-1.64m9.46-5.9l3.86-1.3 4.93-.75L210 820h15.2m15.2 0h3.02m15.2 0H289m15.2 0h3.03m15.2 0h30.38m15.2 0h3.04m15.2 0h30.38m15.2 0h3.03m15.2 0h30.38m15.2 0h3.03m15.2 0h30.38m15.2 0h3.03m15.2 0h30.38m15.2 0h3.03m15.2 0h30.38m15.2 0h3.03m15.18 0h30.4m15.18 0h3.04m15.2 0h30.38m15.2 0h3.03m15.2 0h30.4m15.18 0h3.04m15.2 0h30.38m15.2 0h3.03m15.2 0h30.38m15.2 0h3.04m15.2 0h30.38m15.2 0h3.03m15.2 0h30.38m15.2 0h3.03m15.2 0h30.38m15.2 0h3.03m15.2 0h30.38m15.2 0h3.03m15.2 0h30.37m15.2 0h3.04m15.18 0h30.38m15.2 0h3.04m15.2 0h30.37m15.2 0h3.03m15.2 0h30.38m15.2 0h3.03m15.2 0h15.2l5 .42 4.82 1.22 1.1.5m9.4 5.95l1.65 1.5m5.9 9.46l1.3 3.86.75 4.93.08 2.15v14.58m0 14.6v2.9m0 14.6v29.15m0 14.6v2.9m0 14.6v29.15m0 14.6v2.9m0 14.6v29.15m0 14.6v2.9m0 14.6v29.15m0 14.6v2.9m0 14.6v29.15m0 14.6v2.9m0 14.6v29.15m0 14.6v2.9m0 14.6v29.15m0 14.6v2.9m0 14.6v29.15m0 14.6v2.9m0 14.6v29.15m0 14.6v2.9m0 14.6v29.15m0 14.6v2.9m0 14.6v29.15m0 14.6v2.9m0 14.6v29.15m0 14.6v2.9m0 14.6v29.15m0 14.6v2.9m0 14.6v29.15m0 14.6v2.9m0 14.6v29.15m0 14.6v2.9m0 14.6V1830l-.42 5-1.22 4.82-.5 1.1m-5.95 9.4l-1.5 1.65m-9.46 5.9l-3.86 1.3-4.93.75-2.15.08h-15.2m-15.2 0h-3.02m-15.2 0H1471m-15.2 0h-3.03m-15.2 0h-30.38m-15.2 0h-3.04m-15.2 0h-30.38m-15.2 0h-3.03m-15.2 0h-30.38m-15.2 0h-3.03m-15.2 0h-30.38m-15.2 0h-3.03m-15.2 0h-30.38m-15.2 0h-3.03m-15.2 0h-30.38m-15.2 0h-3.03m-15.18 0h-30.4m-15.18 0h-3.04m-15.2 0h-30.38m-15.2 0h-3.03m-15.2 0h-30.4m-15.18 0h-3.04m-15.2 0H832.9m-15.2 0h-3.03m-15.2 0H769.1m-15.2 0h-3.04m-15.2 0H705.3m-15.2 0h-3.03m-15.2 0h-30.38m-15.2 0h-3.03m-15.2 0h-30.38m-15.2 0h-3.03m-15.2 0h-30.38m-15.2 0h-3.03m-15.2 0h-30.37m-15.2 0h-3.04m-15.18 0h-30.38m-15.2 0H368m-15.2 0h-30.37m-15.2 0h-3.03m-15.2 0h-30.38m-15.2 0h-3.03m-15.2 0H210l-5-.42-4.82-1.22-1.1-.5m-9.4-5.95l-1.65-1.5m-5.9-9.46l-1.3-3.86-.75-4.93-.08-2.15v-14.58m0-14.6v-2.9m0-14.6v-29.15m0-14.6v-2.9m0-14.6v-29.15m0-14.6v-2.9m0-14.6v-29.15m0-14.6v-2.9m0-14.6v-29.15m0-14.6v-2.9m0-14.6v-29.15m0-14.6v-2.9m0-14.6v-29.15m0-14.6v-2.9m0-14.6v-29.15m0-14.6v-2.9m0-14.6v-29.15m0-14.6v-2.9m0-14.6v-29.15m0-14.6v-2.9m0-14.6v-29.15m0-14.6v-2.9m0-14.6v-29.15m0-14.6v-2.9m0-14.6v-29.15m0-14.6v-2.9m0-14.6v-29.15m0-14.6v-2.9m0-14.6v-29.15m0-14.6v-2.9m0-14.6v-29.15m0-14.6v-2.9m0-14.6V850l.42-5 1.22-4.82.5-1.1" stroke="#474747" stroke-width="3" fill="none"/><use xlink:href="#n" transform="matrix(1,0,0,1,180,1830) translate(643.075 12.799999999999999)"/><use xlink:href="#o" transform="matrix(1,0,0,1,180,1830) translate(697.0250000000001 12.799999999999999)"/><path d="M388.5 947.5l-24.05-.98-15.57.97 25.7 35.1 13.9-35.1z" fill="#fad791"/><path d="M388.5 932.98l-24.05.97-15.57-.97 25.7-35.1 13.9 35.1zM289.5 932.9l24.04 1.05 15.57-1-25.7-34.9-13.9 34.86z" fill="#624a1e"/><path d="M289.5 947.5l24.04-.98 15.57.97-25.7 35.14-13.9-35.15z" fill="#fad791"/><path d="M374.6 931.56l13.9 1.4v-28.1l-13.9-7v33.7z" fill="#d9a741"/><path d="M348.88 904.85l25.7-6.98v33.7l-25.7 1.4v-28.12z" fill="#876929"/><path d="M339 900.75l27.84 9.14v13.9L339 918.85v-18.1z" fill="#d9a741"/><path d="M326.46 921.16l12.76-2.26 27.62 4.9-12.36 1.36-28.02-4z" fill="#624a1e"/><path d="M303.4 931.54l-13.9 1.37v-28.2l13.9-6.87v33.7z" fill="#876929"/><path d="M329.1 904.82l-25.7-7v33.73l25.7 1.4v-28.13z" fill="#d9a741"/><path d="M339 900.75l-27.85 9.14v13.9l27.84-4.94v-18.1z" fill="#876929"/><path d="M351.53 921.16l-12.76-2.26-27.62 4.9 12.36 1.36 28.03-4z" fill="#624a1e"/><path d="M374.6 948.9l13.9-1.4v28.12l-13.9 6.98v-33.7z" fill="#d9a741"/><path d="M348.88 975.62l25.7 6.98v-33.7l-25.7-1.4v28.12z" fill="#876929"/><path d="M339 979.7l27.84-9.14v-13.9L339 961.6v18.1z" fill="#d9a741"/><path d="M326.46 959.3l12.76 2.24 27.62-4.88-12.36-1.35-28.02 4z" fill="#fad791"/><path d="M303.4 948.9l-13.9-1.4v28.1l13.9 7.02V948.9z" fill="#876929"/><path d="M329.1 975.63l-25.7 7V948.9l25.7-1.4v28.13z" fill="#d9a741"/><path d="M339 979.7l-27.85-9.14v-13.9L339 961.6v18.1z" fill="#876929"/><path d="M351.53 959.3l-12.76 2.24-27.62-4.88 12.36-1.35 28.03 4z" fill="#fad791"/><path d="M324.2 992.56L339 1000l8.2-4.08 6.6-108.48L339 880l-14.8 7.44v105.12z" fill="#876929"/><path d="M353.8 992.56L339 1000V880l14.8 7.44v105.12z" fill="#d9a741"/><use xlink:href="#p" transform="matrix(1,0,0,1,289.5,1000) translate(16.525 14.4)"/><use xlink:href="#q" transform="matrix(1,0,0,1,289.5,1000) translate(35 36)"/><use xlink:href="#r" transform="matrix(1,0,0,1,289.5,1000) translate(14.024999999999999 57.6)"/><path d="M215 860h248v400H215z" stroke="#000" stroke-width="2" fill="#d1bcd2" fill-opacity=".3"/><use xlink:href="#s" transform="matrix(1,0,0,1,220,865) translate(73.55 382.79999999999995)"/><use xlink:href="#t" transform="matrix(1,0,0,1,220,865) translate(134.45 382.79999999999995)"/><path d="M249 1118.7h180v100H249z" stroke="#000" stroke-width="2" fill="#ffbbb1"/><use xlink:href="#n" transform="matrix(1,0,0,1,254,1123.7061314660136) translate(43.525 48.6)"/><use xlink:href="#u" transform="matrix(1,0,0,1,254,1123.7061314660136) translate(97.475 48.6)"/><path d="M271.5 1191.43h135v27.28h-135z" stroke="#000" stroke-opacity="0" stroke-width="2" fill="#ffbbb1"/><use xlink:href="#v" transform="matrix(1,0,0,1,276.5,1196.4334041932862) translate(-12.824999999999989 14.4)"/><path d="M443.5 1124.4c0 12.45-12.32 22.55-27.5 22.55s-27.5-10.1-27.5-22.55c0-12.45 12.32-22.55 27.5-22.55s27.5 10.1 27.5 22.55z" fill="#9d5025"/><path d="M388.5 1122.55h55v1.85h-55v-1.85z" fill="#9d5025"/><path d="M443.5 1122.55c0 12.45-12.32 22.55-27.5 22.55s-27.5-10.1-27.5-22.55c0-12.45 12.32-22.55 27.5-22.55s27.5 10.1 27.5 22.55z" fill="#f58536"/><path d="M433.9 1133.64l-2.16-4.62-4.76 1.5-6.8-14.64-1.9-4.04-.9-1.92-1.4-3H406.95v4.92h4.9l1.73 3.65-14.23 20.74h6.88l10.12-14.8 7.18 15.43 1.73-.54 3.87-1.2 4.77-1.5z" fill="#fff"/><path d="M339 840.5V781" stroke="#000" stroke-width="2" fill="none"/><path d="M339 855.76l-4.64-14.26h9.28z" stroke="#000" stroke-width="2"/><path d="M340 781.03h-2V780h2z"/><path d="M909.6 1124.78h205v130.02h-205z" stroke="#000" stroke-width="2" fill="#ffbbb1"/><use xlink:href="#w" transform="matrix(1,0,0,1,914.5861154506018,1129.7801896260924) translate(65.525 64.10000000000001)"/><path d="M1134.73 1132.75c0 13.54-12.86 24.53-28.7 24.53-15.85 0-28.7-11-28.7-24.53 0-13.54 12.85-24.53 28.7-24.53 15.84 0 28.7 11 28.7 24.53z" fill="#9d5025"/><path d="M1077.32 1130.73h57.4v2.02h-57.4v-2.02z" fill="#9d5025"/><path d="M1134.73 1130.74c0 13.54-12.86 24.53-28.7 24.53-15.85 0-28.7-11-28.7-24.53 0-13.54 12.85-24.53 28.7-24.53 15.84 0 28.7 11 28.7 24.54z" fill="#f58536"/><path d="M1124.7 1142.8l-2.24-5.02-4.98 1.63-7.1-15.92-2-4.4-.92-2.08-1.45-3.26h-9.43v5.34h5.12l1.8 3.98-14.87 22.57h7.18l10.57-16.1 7.5 16.78 1.8-.57 4.05-1.3 4.97-1.63z" fill="#fff"/><path d="M900.27 1217.65h223.64v55.72H900.28z" stroke="#000" stroke-opacity="0" stroke-width="2" fill="#fff" fill-opacity="0"/><use xlink:href="#x" transform="matrix(1,0,0,1,905.267685960999,1222.6486682406023) translate(9.340740740740742 27.266666666666666)"/><path d="M660.03 822l.15 4.82.47 4.86.67 4.22.87 3.8 1.05 3.58 1.3 3.56 1.72 3.85 2.87 5.44 7.32 13.17 1.7 3.86 1.32 3.56 1.06 3.58.08.37" stroke="#000" stroke-width="2" fill="none"/><path d="M661.03 822l-2 .06L659 821h2z"/><path d="M682.36 895.8l-6.23-13.66 9.2-1.06z" stroke="#000" stroke-width="2"/><path d="M289.5 1750.35h124v59.3h-124v-59.3z" fill="#876929"/><path d="M289.5 1750.35h124v55.25h-124z" fill="#d9a741"/><path d="M323.9 1757.8h13.22v41.65h-13.2v-41.66zM344.9 1757.8h13.2v41.65h-13.2v-41.66zM365.86 1757.8h13.2v41.65h-13.2v-41.66zM304.8 1769.58v18.07l11.32-9.03-11.32-9.04zM386.85 1769.58v18.07l11.32-9.03-11.32-9.04z" fill="#fff"/><use xlink:href="#y" transform="matrix(1,0,0,1,289.5,1809.6469342669932) translate(-72.34074074074076 17.06666666666667)"/><path d="M414.5 1789.98l1.67-.04 2.58-.16 2.5-.26 2.44-.36 2.38-.46 2.34-.55 2.32-.64 2.3-.74 2.28-.85 2.3-.95 2.28-1.08 2.3-1.2 2.35-1.36 2.38-1.5 2.44-1.7 2.5-1.9 2.6-2.14 2.7-2.43 2.82-2.77 2.98-3.2 3.2-3.7 3.45-4.37 3.82-5.26 4.3-6.5 5.1-8.4 6.5-11.87 11.52-23.45 23.3-48.7 6.5-11.86 5.07-8.4 4.3-6.5 3.83-5.25 3.46-4.36 3.2-3.7 2.98-3.2 2.84-2.77 2.7-2.43 2.6-2.14 2.5-1.9 2.43-1.7 2.38-1.5 2.34-1.36 2.3-1.2 2.3-1.1 2.28-.95 2.28-.86 1.33-.43" stroke="#ccc" stroke-width="2" fill="none"/><path d="M414.55 1790.98l-1.05.02v-2l1-.02z" fill="#ccc"/><path d="M596.8 1589.5l-13.4 6.75-1.4-9.16z" stroke="#ccc" stroke-width="2" fill="#ccc"/><path d="M275.84 1220.7l3.14 251.55-2.34 37.77-3.1 29.62-3.6 24.45-3.95 20.8-.72 3.28-5.15 21.17-9.17 31.7-20.73 66.97-2.7 11-1.52 7.72-.92 5.92-.54 4.8-.28 4-.1 3.42.04 3 .15 2.65.23 2.37.3 2.16.36 1.96.4 1.8.46 1.7.5 1.55.53 1.47.58 1.4.6 1.3.66 1.26.68 1.2.72 1.15.76 1.12.8 1.07.85 1.05.9 1 .97 1 1.02.98 1.1.95 1.17.95 1.27.93 1.36.93 1.48.9 1.62.92 1.78.9 1.96.88 2.17.88 2.44.88 2.75.85 3.13.82 3.6.8 4.18.73 4.93.66.43.04" stroke="#000" stroke-width="2" fill="none"/><path d="M276.84 1220.72l-2 .03-.02-1.04h2z"/><path d="M286.27 1789.84l-14.48 3.92.45-9.26z" stroke="#000" stroke-width="2"/><path d="M1260 1453.9h220.2V1575H1260z" stroke="#000" stroke-width="2" fill="#ffbbb1"/><use xlink:href="#w" transform="matrix(1,0,0,1,1265,1458.8888083472941) translate(73.025 59.6)"/><path d="M1454.92 1459.85c0 10.12-9.58 18.34-21.4 18.34-11.8 0-21.38-8.23-21.38-18.35 0-10.13 9.58-18.35 21.4-18.35 11.8 0 21.38 8.22 21.38 18.35z" fill="#9d5025"/><path d="M1412.14 1458.34h42.78v1.5h-42.78v-1.5z" fill="#9d5025"/><path d="M1454.92 1458.34c0 10.13-9.58 18.35-21.4 18.35-11.8 0-21.38-8.23-21.38-18.36 0-10.12 9.58-18.34 21.4-18.34 11.8 0 21.38 8.22 21.38 18.34z" fill="#f58536"/><path d="M1447.45 1467.36l-1.67-3.75-3.7 1.23-5.3-11.9-1.48-3.3-.7-1.56-1.07-2.44h-7.05v4h3.82l1.34 2.97-11.07 16.88h5.35l7.87-12.03 5.58 12.54 1.35-.45 3-.97 3.72-1.22z" fill="#fff"/><path d="M1280.2 1523.33h166.66V1565H1280.2z" stroke="#000" stroke-opacity="0" stroke-width="2" fill="#fff" fill-opacity="0"/><use xlink:href="#z" transform="matrix(1,0,0,1,1285.1968905978572,1528.3328500837647) translate(-16.78888888888889 20.266666666666666)"/><path d="M414.5 1789.98l37.35-.77 34.22-2.13 31-3.25 28.43-4.2 26.45-5.03 24.93-5.85 23.85-6.66 23.16-7.54 22.9-8.52 23.23-9.77 24.32-11.45 26.9-14.08 33.5-19.4 156.5-97.64 26.9-14.08 24.32-11.45 23.22-9.76 22.9-8.52 23.17-7.53 23.85-6.65 24.93-5.85 26.45-5.04 28.44-4.18 31-3.25 34.2-2.14 19.86-.4" stroke="#000" stroke-width="2" fill="none"/><path d="M414.56 1790.98l-1.06.02v-2l1.02-.02z"/><path d="M1255.76 1514.5l-14.16 4.94-.2-9.27z" stroke="#000" stroke-width="2"/><path d="M1278 1725.42l57.98 8.62v5.1c0 7.53-25.98 13.63-58 13.63-32 0-57.98-6.1-57.98-13.64v-5.53z" fill="#8c3123"/><path d="M1278.02 1762.13c24.2 0 44.93-3.54 53.58-8.5l2.88-4.78 1.15-4.4v5.45l-19 81c0 5.08-17.3 9.1-38.6 9.1-21.33 0-38.6-4.02-38.6-9.1l-19.02-81v-5.35l4.38 9.27c8.76 4.87 29.27 8.3 53.24 8.3z" fill="#8c3123"/><path d="M1278 1720c32 0 58 6.12 58 13.62 0 7.5-26 13.57-58 13.57s-58-6.02-58-13.58c0-7.56 26-13.62 58-13.62z" fill="#e05243"/><path d="M1278 1756.6c29.84 0 54.4-5.2 57.62-12.06l-19.02 81c0 5.05-17.3 9.1-38.6 9.1-21.33 0-38.6-4.05-38.6-9.1l-19.03-81c3.23 6.85 27.78 12.07 57.62 12.07z" fill="#e05243"/><use xlink:href="#A" transform="matrix(1,0,0,1,1220,1840) translate(-25.375 14.4)"/><path d="M1370.08 1577l-.05 2.43-.2 3.23-.33 3.07-.43 2.92-.53 2.8-.64 2.72-.73 2.63-.84 2.57-.94 2.53-1.06 2.5-1.17 2.48-1.3 2.5-1.45 2.5-1.62 2.55-1.82 2.62-2.08 2.73-2.4 2.9-2.8 3.1-3.4 3.46-4.34 4.1-6.4 5.5-29.42 23.84-4.36 4.08-3.4 3.46-2.8 3.1-2.38 2.9-2.08 2.73-1.82 2.62-1.62 2.55-1.45 2.5-1.3 2.5-1.17 2.48-1.05 2.5-.93 2.53-.84 2.57-.7 2.48" stroke="#000" stroke-width="2" fill="none"/><path d="M1371.08 1577.05l-2-.04.02-1h2z"/><path d="M1278.4 1716.8l-2.88-14.74 9.2 1.13z" stroke="#000" stroke-width="2"/><path d="M1360.58 1279.4l5.84 55.3 3.4 54.1 1.26 63.06-2 .04-1.27-63-3.37-54.04-5.83-55.2-12.05-76.1h2.03zm-15.42-97.45h-2.02l-16.8-106.07 2-.32z" fill="#ccc"/><path d="M1371.1 1452.9h-2l-.02-1.02 2-.04zM1331.76 1074l-9.15 1.46 2.36-14.82z" fill="#ccc"/><path d="M1333.28 1074.78l-11.88 1.88 3.05-19.2zm-9.47-.53l6.45-1-4.8-9.4z" fill="#ccc"/><g><use xlink:href="#m" transform="matrix(1,0,0,1,1323.3830376009369,1181.9462650871171) translate(0 14.4)"/></g><path d="M398.92 840.5h-2v-41.7h2zM578 789h-62.6v-2H578z"/><path d="M579 789h-1.03v-2H579zM397.92 855.76l-4.63-14.26h9.26z"/><path d="M397.92 859l-6-18.5h12zm-3.26-16.5l3.26 10.03 3.26-10.03z"/><g><use xlink:href="#B" transform="matrix(1,0,0,1,390.536310732849,777.2) translate(0 14.4)"/></g><defs><path d="M212-179c-10-28-35-45-73-45-59 0-87 40-87 99 0 60 29 101 89 101 43 0 62-24 78-52l27 14C228-24 195 4 139 4 59 4 22-46 18-125c-6-104 99-153 187-111 19 9 31 26 39 46" id="C"/><path d="M24 0v-261h32V0H24" id="D"/><path d="M24-231v-30h32v30H24zM24 0v-190h32V0H24" id="E"/><path d="M100-194c63 0 86 42 84 106H49c0 40 14 67 53 68 26 1 43-12 49-29l28 8c-11 28-37 45-77 45C44 4 14-33 15-96c1-61 26-98 85-98zm52 81c6-60-76-77-97-28-3 7-6 17-6 28h103" id="F"/><path d="M117-194c89-4 53 116 60 194h-32v-121c0-31-8-49-39-48C34-167 62-67 57 0H25l-1-190h30c1 10-1 24 2 32 11-22 29-35 61-36" id="G"/><path d="M59-47c-2 24 18 29 38 22v24C64 9 27 4 27-40v-127H5v-23h24l9-43h21v43h35v23H59v120" id="H"/><g id="a"><use transform="matrix(0.05,0,0,0.05,0,0)" xlink:href="#C"/><use transform="matrix(0.05,0,0,0.05,12.950000000000001,0)" xlink:href="#D"/><use transform="matrix(0.05,0,0,0.05,16.900000000000002,0)" xlink:href="#E"/><use transform="matrix(0.05,0,0,0.05,20.85,0)" xlink:href="#F"/><use transform="matrix(0.05,0,0,0.05,30.85,0)" xlink:href="#G"/><use transform="matrix(0.05,0,0,0.05,40.85,0)" xlink:href="#H"/></g><path d="M85-194c31 0 48 13 60 33l-1-100h32l1 261h-30c-2-10 0-23-3-31C134-8 116 4 85 4 32 4 16-35 15-94c0-66 23-100 70-100zm9 24c-40 0-46 34-46 75 0 40 6 74 45 74 42 0 51-32 51-76 0-42-9-74-50-73" id="I"/><path d="M96-169c-40 0-48 33-48 73s9 75 48 75c24 0 41-14 43-38l32 2c-6 37-31 61-74 61-59 0-76-41-82-99-10-93 101-131 147-64 4 7 5 14 7 22l-32 3c-4-21-16-35-41-35" id="J"/><path d="M115-194c55 1 70 41 70 98S169 2 115 4C84 4 66-9 55-30l1 105H24l-1-265h31l2 30c10-21 28-34 59-34zm-8 174c40 0 45-34 45-75s-6-73-45-74c-42 0-51 32-51 76 0 43 10 73 51 73" id="K"/><path d="M145-31C134-9 116 4 85 4 32 4 16-35 15-94c0-59 17-99 70-100 32-1 48 14 60 33 0-11-1-24 2-32h30l-1 268h-32zM93-21c41 0 51-33 51-76s-8-73-50-73c-40 0-46 35-46 75s5 74 45 74" id="L"/><path d="M84 4C-5 8 30-112 23-190h32v120c0 31 7 50 39 49 72-2 45-101 50-169h31l1 190h-30c-1-10 1-25-2-33-11 22-28 36-60 37" id="M"/><path d="M114-163C36-179 61-72 57 0H25l-1-190h30c1 12-1 29 2 39 6-27 23-49 58-41v29" id="N"/><path d="M179-190L93 31C79 59 56 82 12 73V49c39 6 53-20 64-50L1-190h34L92-34l54-156h33" id="O"/><path d="M16-82v-28h88v28H16" id="P"/><path d="M108 0H70L1-190h34L89-25l56-165h34" id="Q"/><path d="M115-194c53 0 69 39 70 98 0 66-23 100-70 100C84 3 66-7 56-30L54 0H23l1-261h32v101c10-23 28-34 59-34zm-8 174c40 0 45-34 45-75 0-40-5-75-45-74-42 0-51 32-51 76 0 43 10 73 51 73" id="R"/><path d="M135-143c-3-34-86-38-87 0 15 53 115 12 119 90S17 21 10-45l28-5c4 36 97 45 98 0-10-56-113-15-118-90-4-57 82-63 122-42 12 7 21 19 24 35" id="S"/><g id="b"><use transform="matrix(0.05925925925925927,0,0,0.05925925925925927,0,0)" xlink:href="#I"/><use transform="matrix(0.05925925925925927,0,0,0.05925925925925927,11.851851851851853,0)" xlink:href="#J"/><use transform="matrix(0.05925925925925927,0,0,0.05925925925925927,22.51851851851852,0)" xlink:href="#K"/><use transform="matrix(0.05925925925925927,0,0,0.05925925925925927,34.370370370370374,0)" xlink:href="#L"/><use transform="matrix(0.05925925925925927,0,0,0.05925925925925927,46.22222222222223,0)" xlink:href="#M"/><use transform="matrix(0.05925925925925927,0,0,0.05925925925925927,58.07407407407408,0)" xlink:href="#F"/><use transform="matrix(0.05925925925925927,0,0,0.05925925925925927,69.92592592592594,0)" xlink:href="#N"/><use transform="matrix(0.05925925925925927,0,0,0.05925925925925927,76.97777777777779,0)" xlink:href="#O"/><use transform="matrix(0.05925925925925927,0,0,0.05925925925925927,87.64444444444446,0)" xlink:href="#P"/><use transform="matrix(0.05925925925925927,0,0,0.05925925925925927,94.69629629629631,0)" xlink:href="#I"/><use transform="matrix(0.05925925925925927,0,0,0.05925925925925927,106.54814814814816,0)" xlink:href="#F"/><use transform="matrix(0.05925925925925927,0,0,0.05925925925925927,118.4,0)" xlink:href="#Q"/><use transform="matrix(0.05925925925925927,0,0,0.05925925925925927,129.06666666666666,0)" xlink:href="#P"/><use transform="matrix(0.05925925925925927,0,0,0.05925925925925927,136.11851851851853,0)" xlink:href="#R"/><use transform="matrix(0.05925925925925927,0,0,0.05925925925925927,147.97037037037038,0)" xlink:href="#M"/><use transform="matrix(0.05925925925925927,0,0,0.05925925925925927,159.82222222222222,0)" xlink:href="#G"/><use transform="matrix(0.05925925925925927,0,0,0.05925925925925927,171.67407407407407,0)" xlink:href="#I"/><use transform="matrix(0.05925925925925927,0,0,0.05925925925925927,183.52592592592592,0)" xlink:href="#D"/><use transform="matrix(0.05925925925925927,0,0,0.05925925925925927,188.2074074074074,0)" xlink:href="#F"/><use transform="matrix(0.05925925925925927,0,0,0.05925925925925927,200.05925925925925,0)" xlink:href="#P"/><use transform="matrix(0.05925925925925927,0,0,0.05925925925925927,207.11111111111111,0)" xlink:href="#F"/><use transform="matrix(0.05925925925925927,0,0,0.05925925925925927,218.96296296296296,0)" xlink:href="#Q"/><use transform="matrix(0.05925925925925927,0,0,0.05925925925925927,229.62962962962962,0)" xlink:href="#F"/><use transform="matrix(0.05925925925925927,0,0,0.05925925925925927,241.48148148148147,0)" xlink:href="#G"/><use transform="matrix(0.05925925925925927,0,0,0.05925925925925927,253.33333333333331,0)" xlink:href="#H"/><use transform="matrix(0.05925925925925927,0,0,0.05925925925925927,259.25925925925924,0)" xlink:href="#S"/></g><path d="M30-248c87 1 191-15 191 75 0 78-77 80-158 76V0H30v-248zm33 125c57 0 124 11 124-50 0-59-68-47-124-48v98" id="T"/><path d="M100-194c62-1 85 37 85 99 1 63-27 99-86 99S16-35 15-95c0-66 28-99 85-99zM99-20c44 1 53-31 53-75 0-43-8-75-51-75s-53 32-53 75 10 74 51 75" id="U"/><path d="M177-190C167-65 218 103 67 71c-23-6-38-20-44-43l32-5c15 47 100 32 89-28v-30C133-14 115 1 83 1 29 1 15-40 15-95c0-56 16-97 71-98 29-1 48 16 59 35 1-10 0-23 2-32h30zM94-22c36 0 50-32 50-73 0-42-14-75-50-75-39 0-46 34-46 75s6 73 46 73" id="V"/><g id="c"><use transform="matrix(0.05,0,0,0.05,0,0)" xlink:href="#T"/><use transform="matrix(0.05,0,0,0.05,12,0)" xlink:href="#U"/><use transform="matrix(0.05,0,0,0.05,22,0)" xlink:href="#S"/><use transform="matrix(0.05,0,0,0.05,31,0)" xlink:href="#H"/><use transform="matrix(0.05,0,0,0.05,36,0)" xlink:href="#V"/><use transform="matrix(0.05,0,0,0.05,46,0)" xlink:href="#N"/><use transform="matrix(0.05,0,0,0.05,51.95,0)" xlink:href="#F"/></g><path d="M185-189c-5-48-123-54-124 2 14 75 158 14 163 119 3 78-121 87-175 55-17-10-28-26-33-46l33-7c5 56 141 63 141-1 0-78-155-14-162-118-5-82 145-84 179-34 5 7 8 16 11 25" id="W"/><path d="M140-251c81 0 123 46 123 126C263-53 228-8 163 1c7 30 30 48 69 40v23c-55 16-95-15-103-61C56-3 17-48 17-125c0-80 42-126 123-126zm0 227c63 0 89-41 89-101s-29-99-89-99c-61 0-89 39-89 99S79-25 140-24" id="X"/><path d="M30 0v-248h33v221h125V0H30" id="Y"/><g id="d"><use transform="matrix(0.05,0,0,0.05,0,0)" xlink:href="#W"/><use transform="matrix(0.05,0,0,0.05,12,0)" xlink:href="#X"/><use transform="matrix(0.05,0,0,0.05,26,0)" xlink:href="#Y"/></g><path d="M141-36C126-15 110 5 73 4 37 3 15-17 15-53c-1-64 63-63 125-63 3-35-9-54-41-54-24 1-41 7-42 31l-33-3c5-37 33-52 76-52 45 0 72 20 72 64v82c-1 20 7 32 28 27v20c-31 9-61-2-59-35zM48-53c0 20 12 33 32 33 41-3 63-29 60-74-43 2-92-5-92 41" id="Z"/><g id="e"><use transform="matrix(0.05,0,0,0.05,0,0)" xlink:href="#E"/><use transform="matrix(0.05,0,0,0.05,3.95,0)" xlink:href="#G"/><use transform="matrix(0.05,0,0,0.05,13.949999999999998,0)" xlink:href="#S"/><use transform="matrix(0.05,0,0,0.05,22.95,0)" xlink:href="#H"/><use transform="matrix(0.05,0,0,0.05,27.950000000000003,0)" xlink:href="#Z"/><use transform="matrix(0.05,0,0,0.05,37.95,0)" xlink:href="#G"/><use transform="matrix(0.05,0,0,0.05,47.95,0)" xlink:href="#J"/><use transform="matrix(0.05,0,0,0.05,56.95,0)" xlink:href="#F"/></g><g id="f"><use transform="matrix(0.05,0,0,0.05,0,0)" xlink:href="#R"/><use transform="matrix(0.05,0,0,0.05,10,0)" xlink:href="#M"/><use transform="matrix(0.05,0,0,0.05,20,0)" xlink:href="#G"/><use transform="matrix(0.05,0,0,0.05,30,0)" xlink:href="#I"/><use transform="matrix(0.05,0,0,0.05,40,0)" xlink:href="#D"/><use transform="matrix(0.05,0,0,0.05,43.95,0)" xlink:href="#F"/></g><g id="g"><use transform="matrix(0.05,0,0,0.05,0,0)" xlink:href="#F"/><use transform="matrix(0.05,0,0,0.05,10,0)" xlink:href="#Q"/><use transform="matrix(0.05,0,0,0.05,19,0)" xlink:href="#F"/><use transform="matrix(0.05,0,0,0.05,29,0)" xlink:href="#G"/><use transform="matrix(0.05,0,0,0.05,39,0)" xlink:href="#H"/></g><g id="h"><use transform="matrix(0.05,0,0,0.05,0,0)" xlink:href="#I"/><use transform="matrix(0.05,0,0,0.05,10,0)" xlink:href="#F"/><use transform="matrix(0.05,0,0,0.05,20,0)" xlink:href="#Z"/><use transform="matrix(0.05,0,0,0.05,30,0)" xlink:href="#I"/><use transform="matrix(0.05,0,0,0.05,40,0)" xlink:href="#D"/><use transform="matrix(0.05,0,0,0.05,43.95,0)" xlink:href="#F"/><use transform="matrix(0.05,0,0,0.05,53.95,0)" xlink:href="#H"/><use transform="matrix(0.05,0,0,0.05,58.95,0)" xlink:href="#H"/><use transform="matrix(0.05,0,0,0.05,63.95,0)" xlink:href="#F"/><use transform="matrix(0.05,0,0,0.05,73.95,0)" xlink:href="#N"/><use transform="matrix(0.05,0,0,0.05,79.9,0)" xlink:href="#P"/><use transform="matrix(0.05,0,0,0.05,85.85000000000001,0)" xlink:href="#L"/><use transform="matrix(0.05,0,0,0.05,95.85000000000001,0)" xlink:href="#M"/><use transform="matrix(0.05,0,0,0.05,105.85000000000001,0)" xlink:href="#F"/><use transform="matrix(0.05,0,0,0.05,115.85000000000001,0)" xlink:href="#M"/><use transform="matrix(0.05,0,0,0.05,125.85000000000001,0)" xlink:href="#F"/></g><path d="M206 0h-36l-40-164L89 0H53L-1-190h32L70-26l43-164h34l41 164 42-164h31" id="aa"/><g id="i"><use transform="matrix(0.05,0,0,0.05,0,0)" xlink:href="#aa"/><use transform="matrix(0.05,0,0,0.05,12.950000000000001,0)" xlink:href="#N"/><use transform="matrix(0.05,0,0,0.05,18.900000000000002,0)" xlink:href="#E"/><use transform="matrix(0.05,0,0,0.05,22.85,0)" xlink:href="#H"/><use transform="matrix(0.05,0,0,0.05,27.85,0)" xlink:href="#F"/><use transform="matrix(0.05,0,0,0.05,37.85,0)" xlink:href="#S"/></g><path d="M30-248c118-7 216 8 213 122C240-48 200 0 122 0H30v-248zM63-27c89 8 146-16 146-99s-60-101-146-95v194" id="ab"/><g id="j"><use transform="matrix(0.05,0,0,0.05,0,0)" xlink:href="#ab"/><use transform="matrix(0.05,0,0,0.05,12.950000000000001,0)" xlink:href="#W"/><use transform="matrix(0.05,0,0,0.05,24.950000000000003,0)" xlink:href="#W"/></g><path d="M30 0v-248h187v28H63v79h144v27H63v87h162V0H30" id="ac"/><path d="M127-220V0H93v-220H8v-28h204v28h-85" id="ad"/><g id="k"><use transform="matrix(0.05,0,0,0.05,0,0)" xlink:href="#ac"/><use transform="matrix(0.05,0,0,0.05,12,0)" xlink:href="#ad"/><use transform="matrix(0.05,0,0,0.05,22.950000000000003,0)" xlink:href="#Y"/></g><path d="M0 4l72-265h28L28 4H0" id="ae"/><g id="l"><use transform="matrix(0.05,0,0,0.05,0,0)" xlink:href="#ae"/><use transform="matrix(0.05,0,0,0.05,5,0)" xlink:href="#L"/><use transform="matrix(0.05,0,0,0.05,15,0)" xlink:href="#M"/><use transform="matrix(0.05,0,0,0.05,25,0)" xlink:href="#F"/><use transform="matrix(0.05,0,0,0.05,35,0)" xlink:href="#N"/><use transform="matrix(0.05,0,0,0.05,40.95,0)" xlink:href="#O"/></g><g id="m"><use transform="matrix(0.05,0,0,0.05,0,0)" xlink:href="#N"/><use transform="matrix(0.05,0,0,0.05,5.95,0)" xlink:href="#F"/><use transform="matrix(0.05,0,0,0.05,15.949999999999998,0)" xlink:href="#Z"/><use transform="matrix(0.05,0,0,0.05,25.950000000000003,0)" xlink:href="#I"/><use transform="matrix(0.05,0,0,0.05,35.95,0)" xlink:href="#S"/></g><g id="n"><use transform="matrix(0.05,0,0,0.05,0,0)" xlink:href="#X"/><use transform="matrix(0.05,0,0,0.05,14,0)" xlink:href="#M"/><use transform="matrix(0.05,0,0,0.05,24,0)" xlink:href="#F"/><use transform="matrix(0.05,0,0,0.05,34,0)" xlink:href="#N"/><use transform="matrix(0.05,0,0,0.05,39.95,0)" xlink:href="#O"/></g><g id="o"><use transform="matrix(0.05,0,0,0.05,0,0)" xlink:href="#W"/><use transform="matrix(0.05,0,0,0.05,12,0)" xlink:href="#F"/><use transform="matrix(0.05,0,0,0.05,22,0)" xlink:href="#N"/><use transform="matrix(0.05,0,0,0.05,27.950000000000003,0)" xlink:href="#Q"/><use transform="matrix(0.05,0,0,0.05,36.95,0)" xlink:href="#E"/><use transform="matrix(0.05,0,0,0.05,40.900000000000006,0)" xlink:href="#J"/><use transform="matrix(0.05,0,0,0.05,49.900000000000006,0)" xlink:href="#F"/></g><path d="M205 0l-28-72H64L36 0H1l101-248h38L239 0h-34zm-38-99l-47-123c-12 45-31 82-46 123h93" id="af"/><path d="M210-169c-67 3-38 105-44 169h-31v-121c0-29-5-50-35-48C34-165 62-65 56 0H25l-1-190h30c1 10-1 24 2 32 10-44 99-50 107 0 11-21 27-35 58-36 85-2 47 119 55 194h-31v-121c0-29-5-49-35-48" id="ag"/><path d="M9 0v-24l116-142H16v-24h144v24L44-24h123V0H9" id="ah"/><g id="p"><use transform="matrix(0.05,0,0,0.05,0,0)" xlink:href="#af"/><use transform="matrix(0.05,0,0,0.05,12,0)" xlink:href="#ag"/><use transform="matrix(0.05,0,0,0.05,26.950000000000003,0)" xlink:href="#Z"/><use transform="matrix(0.05,0,0,0.05,36.95,0)" xlink:href="#ah"/><use transform="matrix(0.05,0,0,0.05,45.95,0)" xlink:href="#U"/><use transform="matrix(0.05,0,0,0.05,55.95,0)" xlink:href="#G"/></g><path d="M33 0v-248h34V0H33" id="ai"/><g id="q"><use transform="matrix(0.05,0,0,0.05,0,0)" xlink:href="#af"/><use transform="matrix(0.05,0,0,0.05,12,0)" xlink:href="#T"/><use transform="matrix(0.05,0,0,0.05,24,0)" xlink:href="#ai"/></g><path d="M143 4C61 4 22-44 18-125c-5-107 100-154 193-111 17 8 29 25 37 43l-32 9c-13-25-37-40-76-40-61 0-88 39-88 99 0 61 29 100 91 101 35 0 62-11 79-27v-45h-74v-28h105v86C228-13 192 4 143 4" id="aj"/><g id="r"><use transform="matrix(0.05,0,0,0.05,0,0)" xlink:href="#aj"/><use transform="matrix(0.05,0,0,0.05,14,0)" xlink:href="#Z"/><use transform="matrix(0.05,0,0,0.05,24,0)" xlink:href="#H"/><use transform="matrix(0.05,0,0,0.05,29,0)" xlink:href="#F"/><use transform="matrix(0.05,0,0,0.05,39,0)" xlink:href="#aa"/><use transform="matrix(0.05,0,0,0.05,51.95,0)" xlink:href="#Z"/><use transform="matrix(0.05,0,0,0.05,61.95,0)" xlink:href="#O"/></g><path d="M106-169C34-169 62-67 57 0H25v-261h32l-1 103c12-21 28-36 61-36 89 0 53 116 60 194h-32v-121c2-32-8-49-39-48" id="ak"/><g id="s"><use transform="matrix(0.05,0,0,0.05,0,0)" xlink:href="#J"/><use transform="matrix(0.05,0,0,0.05,9,0)" xlink:href="#ak"/><use transform="matrix(0.05,0,0,0.05,19,0)" xlink:href="#Z"/><use transform="matrix(0.05,0,0,0.05,29,0)" xlink:href="#D"/><use transform="matrix(0.05,0,0,0.05,32.95,0)" xlink:href="#E"/><use transform="matrix(0.05,0,0,0.05,36.900000000000006,0)" xlink:href="#J"/><use transform="matrix(0.05,0,0,0.05,45.900000000000006,0)" xlink:href="#F"/></g><g id="t"><use transform="matrix(0.05,0,0,0.05,0,0)" xlink:href="#Z"/><use transform="matrix(0.05,0,0,0.05,10,0)" xlink:href="#K"/><use transform="matrix(0.05,0,0,0.05,20,0)" xlink:href="#K"/></g><g id="u"><use transform="matrix(0.05,0,0,0.05,0,0)" xlink:href="#af"/><use transform="matrix(0.05,0,0,0.05,12,0)" xlink:href="#T"/><use transform="matrix(0.05,0,0,0.05,24,0)" xlink:href="#ai"/></g><path d="M80-196l47-18 7 23-49 13 32 44-20 13-27-46-27 45-21-12 33-44-49-13 8-23 47 19-2-53h23" id="al"/><g id="v"><use transform="matrix(0.05,0,0,0.05,0,0)" xlink:href="#L"/><use transform="matrix(0.05,0,0,0.05,10,0)" xlink:href="#M"/><use transform="matrix(0.05,0,0,0.05,20,0)" xlink:href="#F"/><use transform="matrix(0.05,0,0,0.05,30,0)" xlink:href="#N"/><use transform="matrix(0.05,0,0,0.05,35.95,0)" xlink:href="#O"/><use transform="matrix(0.05,0,0,0.05,44.95,0)" xlink:href="#P"/><use transform="matrix(0.05,0,0,0.05,50.900000000000006,0)" xlink:href="#S"/><use transform="matrix(0.05,0,0,0.05,59.900000000000006,0)" xlink:href="#F"/><use transform="matrix(0.05,0,0,0.05,69.9,0)" xlink:href="#N"/><use transform="matrix(0.05,0,0,0.05,75.85000000000001,0)" xlink:href="#Q"/><use transform="matrix(0.05,0,0,0.05,84.85000000000001,0)" xlink:href="#E"/><use transform="matrix(0.05,0,0,0.05,88.80000000000001,0)" xlink:href="#J"/><use transform="matrix(0.05,0,0,0.05,97.80000000000001,0)" xlink:href="#F"/><use transform="matrix(0.05,0,0,0.05,107.80000000000001,0)" xlink:href="#P"/><use transform="matrix(0.05,0,0,0.05,113.75,0)" xlink:href="#Z"/><use transform="matrix(0.05,0,0,0.05,123.75,0)" xlink:href="#K"/><use transform="matrix(0.05,0,0,0.05,133.75,0)" xlink:href="#E"/><use transform="matrix(0.05,0,0,0.05,137.7,0)" xlink:href="#P"/><use transform="matrix(0.05,0,0,0.05,143.64999999999998,0)" xlink:href="#al"/></g><g id="w"><use transform="matrix(0.05,0,0,0.05,0,0)" xlink:href="#Y"/><use transform="matrix(0.05,0,0,0.05,10,0)" xlink:href="#Z"/><use transform="matrix(0.05,0,0,0.05,20,0)" xlink:href="#ag"/><use transform="matrix(0.05,0,0,0.05,34.95,0)" xlink:href="#R"/><use transform="matrix(0.05,0,0,0.05,44.95,0)" xlink:href="#I"/><use transform="matrix(0.05,0,0,0.05,54.95,0)" xlink:href="#Z"/></g><path d="M160-131c35 5 61 23 61 61C221 17 115-2 30 0v-248c76 3 177-17 177 60 0 33-19 50-47 57zm-97-11c50-1 110 9 110-42 0-47-63-36-110-37v79zm0 115c55-2 124 14 124-45 0-56-70-42-124-44v89" id="am"/><path d="M197 0v-115H63V0H30v-248h33v105h134v-105h34V0h-34" id="an"/><g id="x"><use transform="matrix(0.05925925925925927,0,0,0.05925925925925927,0,0)" xlink:href="#am"/><use transform="matrix(0.05925925925925927,0,0,0.05925925925925927,14.222222222222225,0)" xlink:href="#M"/><use transform="matrix(0.05925925925925927,0,0,0.05925925925925927,26.074074074074076,0)" xlink:href="#G"/><use transform="matrix(0.05925925925925927,0,0,0.05925925925925927,37.92592592592593,0)" xlink:href="#I"/><use transform="matrix(0.05925925925925927,0,0,0.05925925925925927,49.777777777777786,0)" xlink:href="#D"/><use transform="matrix(0.05925925925925927,0,0,0.05925925925925927,54.45925925925927,0)" xlink:href="#F"/><use transform="matrix(0.05925925925925927,0,0,0.05925925925925927,66.31111111111112,0)" xlink:href="#ac"/><use transform="matrix(0.05925925925925927,0,0,0.05925925925925927,80.53333333333335,0)" xlink:href="#Q"/><use transform="matrix(0.05925925925925927,0,0,0.05925925925925927,91.20000000000002,0)" xlink:href="#F"/><use transform="matrix(0.05925925925925927,0,0,0.05925925925925927,103.05185185185186,0)" xlink:href="#G"/><use transform="matrix(0.05925925925925927,0,0,0.05925925925925927,114.90370370370371,0)" xlink:href="#H"/><use transform="matrix(0.05925925925925927,0,0,0.05925925925925927,120.82962962962964,0)" xlink:href="#an"/><use transform="matrix(0.05925925925925927,0,0,0.05925925925925927,136.17777777777778,0)" xlink:href="#Z"/><use transform="matrix(0.05925925925925927,0,0,0.05925925925925927,148.02962962962962,0)" xlink:href="#G"/><use transform="matrix(0.05925925925925927,0,0,0.05925925925925927,159.88148148148147,0)" xlink:href="#I"/><use transform="matrix(0.05925925925925927,0,0,0.05925925925925927,171.73333333333332,0)" xlink:href="#D"/><use transform="matrix(0.05925925925925927,0,0,0.05925925925925927,176.4148148148148,0)" xlink:href="#F"/><use transform="matrix(0.05925925925925927,0,0,0.05925925925925927,188.26666666666665,0)" xlink:href="#N"/></g><g id="y"><use transform="matrix(0.05925925925925927,0,0,0.05925925925925927,0,0)" xlink:href="#I"/><use transform="matrix(0.05925925925925927,0,0,0.05925925925925927,11.851851851851853,0)" xlink:href="#J"/><use transform="matrix(0.05925925925925927,0,0,0.05925925925925927,22.51851851851852,0)" xlink:href="#K"/><use transform="matrix(0.05925925925925927,0,0,0.05925925925925927,34.370370370370374,0)" xlink:href="#L"/><use transform="matrix(0.05925925925925927,0,0,0.05925925925925927,46.22222222222223,0)" xlink:href="#M"/><use transform="matrix(0.05925925925925927,0,0,0.05925925925925927,58.07407407407408,0)" xlink:href="#F"/><use transform="matrix(0.05925925925925927,0,0,0.05925925925925927,69.92592592592594,0)" xlink:href="#N"/><use transform="matrix(0.05925925925925927,0,0,0.05925925925925927,76.97777777777779,0)" xlink:href="#O"/><use transform="matrix(0.05925925925925927,0,0,0.05925925925925927,87.64444444444446,0)" xlink:href="#P"/><use transform="matrix(0.05925925925925927,0,0,0.05925925925925927,94.69629629629631,0)" xlink:href="#I"/><use transform="matrix(0.05925925925925927,0,0,0.05925925925925927,106.54814814814816,0)" xlink:href="#F"/><use transform="matrix(0.05925925925925927,0,0,0.05925925925925927,118.4,0)" xlink:href="#Q"/><use transform="matrix(0.05925925925925927,0,0,0.05925925925925927,129.06666666666666,0)" xlink:href="#P"/><use transform="matrix(0.05925925925925927,0,0,0.05925925925925927,136.11851851851853,0)" xlink:href="#Z"/><use transform="matrix(0.05925925925925927,0,0,0.05925925925925927,147.97037037037038,0)" xlink:href="#S"/><use transform="matrix(0.05925925925925927,0,0,0.05925925925925927,158.63703703703703,0)" xlink:href="#O"/><use transform="matrix(0.05925925925925927,0,0,0.05925925925925927,169.3037037037037,0)" xlink:href="#G"/><use transform="matrix(0.05925925925925927,0,0,0.05925925925925927,181.15555555555554,0)" xlink:href="#J"/><use transform="matrix(0.05925925925925927,0,0,0.05925925925925927,191.8222222222222,0)" xlink:href="#P"/><use transform="matrix(0.05925925925925927,0,0,0.05925925925925927,198.87407407407406,0)" xlink:href="#L"/><use transform="matrix(0.05925925925925927,0,0,0.05925925925925927,210.7259259259259,0)" xlink:href="#M"/><use transform="matrix(0.05925925925925927,0,0,0.05925925925925927,222.57777777777775,0)" xlink:href="#F"/><use transform="matrix(0.05925925925925927,0,0,0.05925925925925927,234.4296296296296,0)" xlink:href="#N"/><use transform="matrix(0.05925925925925927,0,0,0.05925925925925927,241.48148148148147,0)" xlink:href="#E"/><use transform="matrix(0.05925925925925927,0,0,0.05925925925925927,246.16296296296295,0)" xlink:href="#F"/><use transform="matrix(0.05925925925925927,0,0,0.05925925925925927,258.0148148148148,0)" xlink:href="#S"/></g><g id="z"><use transform="matrix(0.05925925925925927,0,0,0.05925925925925927,0,0)" xlink:href="#af"/><use transform="matrix(0.05925925925925927,0,0,0.05925925925925927,14.222222222222225,0)" xlink:href="#S"/><use transform="matrix(0.05925925925925927,0,0,0.05925925925925927,24.888888888888893,0)" xlink:href="#O"/><use transform="matrix(0.05925925925925927,0,0,0.05925925925925927,35.55555555555556,0)" xlink:href="#G"/><use transform="matrix(0.05925925925925927,0,0,0.05925925925925927,47.40740740740741,0)" xlink:href="#J"/><use transform="matrix(0.05925925925925927,0,0,0.05925925925925927,58.074074074074076,0)" xlink:href="#X"/><use transform="matrix(0.05925925925925927,0,0,0.05925925925925927,74.66666666666667,0)" xlink:href="#M"/><use transform="matrix(0.05925925925925927,0,0,0.05925925925925927,86.51851851851852,0)" xlink:href="#F"/><use transform="matrix(0.05925925925925927,0,0,0.05925925925925927,98.37037037037037,0)" xlink:href="#N"/><use transform="matrix(0.05925925925925927,0,0,0.05925925925925927,105.42222222222222,0)" xlink:href="#O"/><use transform="matrix(0.05925925925925927,0,0,0.05925925925925927,116.08888888888889,0)" xlink:href="#an"/><use transform="matrix(0.05925925925925927,0,0,0.05925925925925927,131.43703703703704,0)" xlink:href="#Z"/><use transform="matrix(0.05925925925925927,0,0,0.05925925925925927,143.2888888888889,0)" xlink:href="#G"/><use transform="matrix(0.05925925925925927,0,0,0.05925925925925927,155.14074074074074,0)" xlink:href="#I"/><use transform="matrix(0.05925925925925927,0,0,0.05925925925925927,166.9925925925926,0)" xlink:href="#D"/><use transform="matrix(0.05925925925925927,0,0,0.05925925925925927,171.67407407407407,0)" xlink:href="#F"/><use transform="matrix(0.05925925925925927,0,0,0.05925925925925927,183.52592592592592,0)" xlink:href="#N"/></g><path d="M143 0L79-87 56-68V0H24v-261h32v163l83-92h37l-77 82L181 0h-38" id="ao"/><g id="A"><use transform="matrix(0.05,0,0,0.05,0,0)" xlink:href="#L"/><use transform="matrix(0.05,0,0,0.05,10,0)" xlink:href="#M"/><use transform="matrix(0.05,0,0,0.05,20,0)" xlink:href="#F"/><use transform="matrix(0.05,0,0,0.05,30,0)" xlink:href="#N"/><use transform="matrix(0.05,0,0,0.05,35.95,0)" xlink:href="#O"/><use transform="matrix(0.05,0,0,0.05,44.95,0)" xlink:href="#P"/><use transform="matrix(0.05,0,0,0.05,50.900000000000006,0)" xlink:href="#S"/><use transform="matrix(0.05,0,0,0.05,59.900000000000006,0)" xlink:href="#F"/><use transform="matrix(0.05,0,0,0.05,69.9,0)" xlink:href="#N"/><use transform="matrix(0.05,0,0,0.05,75.85000000000001,0)" xlink:href="#Q"/><use transform="matrix(0.05,0,0,0.05,84.85000000000001,0)" xlink:href="#E"/><use transform="matrix(0.05,0,0,0.05,88.80000000000001,0)" xlink:href="#J"/><use transform="matrix(0.05,0,0,0.05,97.80000000000001,0)" xlink:href="#F"/><use transform="matrix(0.05,0,0,0.05,107.80000000000001,0)" xlink:href="#P"/><use transform="matrix(0.05,0,0,0.05,113.75,0)" xlink:href="#R"/><use transform="matrix(0.05,0,0,0.05,123.75,0)" xlink:href="#M"/><use transform="matrix(0.05,0,0,0.05,133.75,0)" xlink:href="#J"/><use transform="matrix(0.05,0,0,0.05,142.75,0)" xlink:href="#ao"/><use transform="matrix(0.05,0,0,0.05,151.75,0)" xlink:href="#F"/><use transform="matrix(0.05,0,0,0.05,161.75,0)" xlink:href="#H"/></g><path d="M101-234c-31-9-42 10-38 44h38v23H63V0H32v-167H5v-23h27c-7-52 17-82 69-68v24" id="ap"/><g id="B"><use transform="matrix(0.05,0,0,0.05,0,0)" xlink:href="#S"/><use transform="matrix(0.05,0,0,0.05,9,0)" xlink:href="#M"/><use transform="matrix(0.05,0,0,0.05,19,0)" xlink:href="#R"/><use transform="matrix(0.05,0,0,0.05,29,0)" xlink:href="#S"/><use transform="matrix(0.05,0,0,0.05,38,0)" xlink:href="#J"/><use transform="matrix(0.05,0,0,0.05,47,0)" xlink:href="#N"/><use transform="matrix(0.05,0,0,0.05,52.95,0)" xlink:href="#E"/><use transform="matrix(0.05,0,0,0.05,56.900000000000006,0)" xlink:href="#R"/><use transform="matrix(0.05,0,0,0.05,66.9,0)" xlink:href="#F"/><use transform="matrix(0.05,0,0,0.05,76.9,0)" xlink:href="#ae"/><use transform="matrix(0.05,0,0,0.05,81.9,0)" xlink:href="#G"/><use transform="matrix(0.05,0,0,0.05,91.9,0)" xlink:href="#U"/><use transform="matrix(0.05,0,0,0.05,101.9,0)" xlink:href="#H"/><use transform="matrix(0.05,0,0,0.05,106.9,0)" xlink:href="#E"/><use transform="matrix(0.05,0,0,0.05,110.85000000000001,0)" xlink:href="#ap"/><use transform="matrix(0.05,0,0,0.05,115.85000000000001,0)" xlink:href="#O"/></g></defs></g></svg>