<svg xmlns="http://www.w3.org/2000/svg" xmlns:xlink="http://www.w3.org/1999/xlink" xmlns:lucid="lucid" width="1704" height="1004"><g transform="translate(-47.99999999999997 780)" lucid:page-tab-id="0_0"><path d="M120-760h340v200H120z" fill="#fff"/><path d="M120-688h340v32H120zM120-624h340v32H120z" fill="#e6e6e6"/><path d="M120-760h340v40H120z" fill="#ccc"/><path d="M120-760h340v200H120zM120-720h340M297.7-720v160" stroke="#000" stroke-width="2" fill="none"/><use xlink:href="#a" transform="matrix(1,0,0,1,130,-760) translate(0 23.6)"/><use xlink:href="#b" transform="matrix(1,0,0,1,125,-717.5) translate(0 17.1)"/><use xlink:href="#c" transform="matrix(1,0,0,1,302.6908483339008,-717.5) translate(0 17.1)"/><use xlink:href="#c" transform="matrix(1,0,0,1,125,-685.5) translate(0 17.1)"/><use xlink:href="#c" transform="matrix(1,0,0,1,302.6908483339008,-685.5) translate(0 17.1)"/><use xlink:href="#d" transform="matrix(1,0,0,1,125,-653.5) translate(0 17.1)"/><use xlink:href="#e" transform="matrix(1,0,0,1,302.6908483339008,-653.5) translate(0 17.1)"/><use xlink:href="#f" transform="matrix(1,0,0,1,125,-621.5) translate(0 17.1)"/><use xlink:href="#g" transform="matrix(1,0,0,1,302.6908483339008,-621.5) translate(0 17.1)"/><use xlink:href="#h" transform="matrix(1,0,0,1,125,-589.5) translate(0 17.1)"/><use xlink:href="#g" transform="matrix(1,0,0,1,302.6908483339008,-589.5) translate(0 17.1)"/><path d="M160-520h560v136H160z" fill="#fff"/><path d="M160-448h560v32H160z" fill="#e6e6e6"/><path d="M160-520h560v40H160z" fill="#ccc"/><path d="M160-520h560v136H160zM160-480h560M307.4-480v96" stroke="#000" stroke-width="2" fill="none"/><use xlink:href="#i" transform="matrix(1,0,0,1,170,-520) translate(0 23.6)"/><use xlink:href="#j" transform="matrix(1,0,0,1,165,-477.5) translate(0 17.1)"/><use xlink:href="#k" transform="matrix(1,0,0,1,312.4148918222643,-477.5) translate(0 17.1)"/><use xlink:href="#l" transform="matrix(1,0,0,1,165,-445.5) translate(0 17.1)"/><use xlink:href="#k" transform="matrix(1,0,0,1,312.4148918222643,-445.5) translate(0 17.1)"/><use xlink:href="#m" transform="matrix(1,0,0,1,165,-413.5) translate(0 17.1)"/><use xlink:href="#n" transform="matrix(1,0,0,1,312.4148918222643,-413.5) translate(0 17.1)"/><path d="M100-296h460V32H100z" fill="#fff"/><path d="M100-224h460v32H100zM100-160h460v32H100zM100-96h460v32H100zM100-32h460V0H100z" fill="#e6e6e6"/><path d="M100-296h460v40H100z" fill="#ccc"/><path d="M100-296h460V32H100zM100-256h460M322.96-256V32" stroke="#000" stroke-width="2" fill="none"/><use xlink:href="#o" transform="matrix(1,0,0,1,110,-296) translate(0 23.6)"/><use xlink:href="#b" transform="matrix(1,0,0,1,105,-253.5) translate(0 17.1)"/><use xlink:href="#n" transform="matrix(1,0,0,1,327.9573190158925,-253.5) translate(0 17.1)"/><use xlink:href="#p" transform="matrix(1,0,0,1,105,-221.5) translate(0 17.1)"/><use xlink:href="#c" transform="matrix(1,0,0,1,327.9573190158925,-221.5) translate(0 17.1)"/><use xlink:href="#q" transform="matrix(1,0,0,1,105,-189.5) translate(0 17.1)"/><use xlink:href="#e" transform="matrix(1,0,0,1,327.9573190158925,-189.5) translate(0 17.1)"/><use xlink:href="#r" transform="matrix(1,0,0,1,105,-157.5) translate(0 17.1)"/><use xlink:href="#n" transform="matrix(1,0,0,1,327.9573190158925,-157.5) translate(0 17.1)"/><use xlink:href="#s" transform="matrix(1,0,0,1,105,-125.5) translate(0 17.1)"/><use xlink:href="#k" transform="matrix(1,0,0,1,327.9573190158925,-125.5) translate(0 17.1)"/><use xlink:href="#t" transform="matrix(1,0,0,1,105,-93.5) translate(0 17.1)"/><use xlink:href="#g" transform="matrix(1,0,0,1,327.9573190158925,-93.5) translate(0 17.1)"/><use xlink:href="#u" transform="matrix(1,0,0,1,105,-61.5) translate(0 17.1)"/><use xlink:href="#n" transform="matrix(1,0,0,1,327.9573190158925,-61.5) translate(0 17.1)"/><use xlink:href="#v" transform="matrix(1,0,0,1,105,-29.5) translate(0 17.1)"/><use xlink:href="#w" transform="matrix(1,0,0,1,327.9573190158925,-29.5) translate(0 17.1)"/><use xlink:href="#x" transform="matrix(1,0,0,1,105,2.5) translate(0 17.1)"/><use xlink:href="#n" transform="matrix(1,0,0,1,327.9573190158925,2.5) translate(0 17.1)"/><path d="M100 100h280v104H100z" fill="#fff"/><path d="M100 172h280v32H100z" fill="#e6e6e6"/><path d="M100 100h280v40H100z" fill="#ccc"/><path d="M100 100h280v104H100zM100 140h280M186.67 140v64" stroke="#000" stroke-width="2" fill="none"/><use xlink:href="#y" transform="matrix(1,0,0,1,110,100) translate(0 23.6)"/><use xlink:href="#z" transform="matrix(1,0,0,1,105,142.5) translate(0 17.1)"/><use xlink:href="#k" transform="matrix(1,0,0,1,191.66666666666666,142.5) translate(0 17.1)"/><use xlink:href="#m" transform="matrix(1,0,0,1,105,174.5) translate(0 17.1)"/><use xlink:href="#n" transform="matrix(1,0,0,1,191.66666666666666,174.5) translate(0 17.1)"/><path d="M80.18-112H59v300.26h20" stroke="#000" stroke-width="2" fill="none"/><path d="M98.55-102l-20-10 20-10M98.55-112h-20M79 178.26v20M99 188.26H79" stroke="#000" stroke-width="2" fill="#fff"/><path d="M840-260h400v168H840z" fill="#fff"/><path d="M840-188h400v32H840zM840-124h400v32H840z" fill="#e6e6e6"/><path d="M840-260h400v40H840z" fill="#ccc"/><path d="M840-260h400v168H840zM840-220h400M1091.23-220v128" stroke="#000" stroke-width="2" fill="none"/><use xlink:href="#A" transform="matrix(1,0,0,1,850,-260) translate(0 23.6)"/><use xlink:href="#B" transform="matrix(1,0,0,1,845,-217.5) translate(0 17.1)"/><use xlink:href="#w" transform="matrix(1,0,0,1,1096.2295425253296,-217.5) translate(0 17.1)"/><use xlink:href="#C" transform="matrix(1,0,0,1,845,-185.5) translate(0 17.1)"/><use xlink:href="#k" transform="matrix(1,0,0,1,1096.2295425253296,-185.5) translate(0 17.1)"/><use xlink:href="#p" transform="matrix(1,0,0,1,845,-153.5) translate(0 17.1)"/><use xlink:href="#k" transform="matrix(1,0,0,1,1096.2295425253296,-153.5) translate(0 17.1)"/><use xlink:href="#D" transform="matrix(1,0,0,1,845,-121.5) translate(0 17.1)"/><use xlink:href="#E" transform="matrix(1,0,0,1,1096.2295425253296,-121.5) translate(0 17.1)"/><path d="M980 20h340v136H980z" fill="#fff"/><path d="M980 92h340v32H980z" fill="#e6e6e6"/><path d="M980 20h340v40H980z" fill="#ccc"/><path d="M980 20h340v136H980zM980 60h340M1164.65 60v96" stroke="#000" stroke-width="2" fill="none"/><use xlink:href="#F" transform="matrix(1,0,0,1,990,20) translate(0 23.6)"/><use xlink:href="#B" transform="matrix(1,0,0,1,985,62.5) translate(0 17.1)"/><use xlink:href="#w" transform="matrix(1,0,0,1,1169.650388107705,62.5) translate(0 17.1)"/><use xlink:href="#G" transform="matrix(1,0,0,1,985,94.5) translate(0 17.1)"/><use xlink:href="#k" transform="matrix(1,0,0,1,1169.650388107705,94.5) translate(0 17.1)"/><use xlink:href="#H" transform="matrix(1,0,0,1,985,126.5) translate(0 17.1)"/><use xlink:href="#k" transform="matrix(1,0,0,1,1169.650388107705,126.5) translate(0 17.1)"/><path d="M1360-200h340v72h-340z" fill="#fff"/><path d="M1360-200h340v40h-340z" fill="#ccc"/><path d="M1360-200h340v72h-340zM1360-160h340M1507.5-160v32" stroke="#000" stroke-width="2" fill="none"/><use xlink:href="#I" transform="matrix(1,0,0,1,1370,-200) translate(0 23.6)"/><use xlink:href="#C" transform="matrix(1,0,0,1,1365,-157.5) translate(0 17.1)"/><use xlink:href="#c" transform="matrix(1,0,0,1,1512.500655655811,-157.5) translate(0 17.1)"/><path d="M99-704H79v239.96h60" stroke="#000" stroke-width="2" fill="none"/><path d="M99-714v20M119-704H99M139-474.04v20M159-464.04h-20" stroke="#000" stroke-width="2" fill="#fff"/><path d="M79-240H59v-191.93h80" stroke="#000" stroke-width="2" fill="none"/><path d="M79-250v20M99-240H79M139-441.93v20M159-431.93h-20" stroke="#000" stroke-width="2" fill="#fff"/><path d="M819-139.82H700V-208H581" stroke="#000" stroke-width="2" fill="none"/><path d="M819-149.82v20M839-139.82h-20M581-198v-20M561-208h20" stroke="#000" stroke-width="2" fill="#fff"/><path d="M1261-171.98h39v28.1h39" stroke="#000" stroke-width="2" fill="none"/><path d="M1261-161.98v-20M1241-171.98h20M1339-153.88v20M1359-143.88h-20" stroke="#000" stroke-width="2" fill="#fff"/><path d="M580-60h200V76H580z" fill="#fff"/><path d="M580 12h200v32H580z" fill="#e6e6e6"/><path d="M580-60h200v40H580z" fill="#ccc"/><path d="M580-60h200V76H580zM580-20h200" stroke="#000" stroke-width="2" fill="none"/><use xlink:href="#J" transform="matrix(1,0,0,1,590,-60) translate(0 23.6)"/><use xlink:href="#K" transform="matrix(1,0,0,1,585,-17.5) translate(0 17.1)"/><use xlink:href="#L" transform="matrix(1,0,0,1,585,14.5) translate(0 17.1)"/><use xlink:href="#M" transform="matrix(1,0,0,1,585,46.5) translate(0 17.1)"/><path d="M820.18-107.66H810v67.18h-9" stroke="#000" stroke-width="2" fill="none"/><path d="M838.55-97.66l-20-10 20-10M838.55-107.66h-20M801-30.48v-20M781-40.48h20" stroke="#000" stroke-width="2" fill="#fff"/><path d="M1341 108.12h400v-252h-20" stroke="#000" stroke-width="2" fill="none"/><path d="M1341 118.12v-20M1321 108.12h20M1721-133.88v-20M1701-143.88h20" stroke="#000" stroke-width="2" fill="#fff"/><path d="M1341 140.3h400v-284.18h-20" stroke="#000" stroke-width="2" fill="none"/><path d="M1341 150.3v-20M1321 140.3h20M1721-133.88v-20M1701-143.88h20" stroke="#000" stroke-width="2" fill="#fff"/><defs><path d="M115-194c53 0 69 39 70 98 0 66-23 100-70 100C84 3 66-7 56-30L54 0H23l1-261h32v101c10-23 28-34 59-34zm-8 174c40 0 45-34 45-75 0-40-5-75-45-74-42 0-51 32-51 76 0 43 10 73 51 73" id="N"/><path d="M84 4C-5 8 30-112 23-190h32v120c0 31 7 50 39 49 72-2 45-101 50-169h31l1 190h-30c-1-10 1-25-2-33-11 22-28 36-60 37" id="O"/><path d="M117-194c89-4 53 116 60 194h-32v-121c0-31-8-49-39-48C34-167 62-67 57 0H25l-1-190h30c1 10-1 24 2 32 11-22 29-35 61-36" id="P"/><path d="M85-194c31 0 48 13 60 33l-1-100h32l1 261h-30c-2-10 0-23-3-31C134-8 116 4 85 4 32 4 16-35 15-94c0-66 23-100 70-100zm9 24c-40 0-46 34-46 75 0 40 6 74 45 74 42 0 51-32 51-76 0-42-9-74-50-73" id="Q"/><path d="M24 0v-261h32V0H24" id="R"/><path d="M100-194c63 0 86 42 84 106H49c0 40 14 67 53 68 26 1 43-12 49-29l28 8c-11 28-37 45-77 45C44 4 14-33 15-96c1-61 26-98 85-98zm52 81c6-60-76-77-97-28-3 7-6 17-6 28h103" id="S"/><path d="M135-143c-3-34-86-38-87 0 15 53 115 12 119 90S17 21 10-45l28-5c4 36 97 45 98 0-10-56-113-15-118-90-4-57 82-63 122-42 12 7 21 19 24 35" id="T"/><path d="M-5 72V49h209v23H-5" id="U"/><path d="M141-36C126-15 110 5 73 4 37 3 15-17 15-53c-1-64 63-63 125-63 3-35-9-54-41-54-24 1-41 7-42 31l-33-3c5-37 33-52 76-52 45 0 72 20 72 64v82c-1 20 7 32 28 27v20c-31 9-61-2-59-35zM48-53c0 20 12 33 32 33 41-3 63-29 60-74-43 2-92-5-92 41" id="V"/><path d="M108 0H70L1-190h34L89-25l56-165h34" id="W"/><path d="M114-163C36-179 61-72 57 0H25l-1-190h30c1 12-1 29 2 39 6-27 23-49 58-41v29" id="X"/><path d="M24-231v-30h32v30H24zM24 0v-190h32V0H24" id="Y"/><path d="M100-194c62-1 85 37 85 99 1 63-27 99-86 99S16-35 15-95c0-66 28-99 85-99zM99-20c44 1 53-31 53-75 0-43-8-75-51-75s-53 32-53 75 10 74 51 75" id="Z"/><g id="a"><use transform="matrix(0.05,0,0,0.05,0,0)" xlink:href="#N"/><use transform="matrix(0.05,0,0,0.05,10,0)" xlink:href="#O"/><use transform="matrix(0.05,0,0,0.05,20,0)" xlink:href="#P"/><use transform="matrix(0.05,0,0,0.05,30,0)" xlink:href="#Q"/><use transform="matrix(0.05,0,0,0.05,40,0)" xlink:href="#R"/><use transform="matrix(0.05,0,0,0.05,43.95,0)" xlink:href="#S"/><use transform="matrix(0.05,0,0,0.05,53.95,0)" xlink:href="#T"/><use transform="matrix(0.05,0,0,0.05,62.95,0)" xlink:href="#U"/><use transform="matrix(0.05,0,0,0.05,72.95,0)" xlink:href="#V"/><use transform="matrix(0.05,0,0,0.05,82.95,0)" xlink:href="#R"/><use transform="matrix(0.05,0,0,0.05,86.9,0)" xlink:href="#R"/><use transform="matrix(0.05,0,0,0.05,90.85000000000001,0)" xlink:href="#U"/><use transform="matrix(0.05,0,0,0.05,100.85000000000001,0)" xlink:href="#W"/><use transform="matrix(0.05,0,0,0.05,109.85000000000001,0)" xlink:href="#S"/><use transform="matrix(0.05,0,0,0.05,119.85000000000001,0)" xlink:href="#X"/><use transform="matrix(0.05,0,0,0.05,125.80000000000001,0)" xlink:href="#T"/><use transform="matrix(0.05,0,0,0.05,134.8,0)" xlink:href="#Y"/><use transform="matrix(0.05,0,0,0.05,138.75,0)" xlink:href="#Z"/><use transform="matrix(0.05,0,0,0.05,148.75,0)" xlink:href="#P"/><use transform="matrix(0.05,0,0,0.05,158.75,0)" xlink:href="#T"/></g><path d="M101-234c-31-9-42 10-38 44h38v23H63V0H32v-167H5v-23h27c-7-52 17-82 69-68v24" id="aa"/><path d="M145-31C134-9 116 4 85 4 32 4 16-35 15-94c0-59 17-99 70-100 32-1 48 14 60 33 0-11-1-24 2-32h30l-1 268h-32zM93-21c41 0 51-33 51-76s-8-73-50-73c-40 0-46 35-46 75s5 74 45 74" id="ab"/><g id="b"><use transform="matrix(0.05,0,0,0.05,0,0)" xlink:href="#aa"/><use transform="matrix(0.05,0,0,0.05,5,0)" xlink:href="#ab"/><use transform="matrix(0.05,0,0,0.05,15,0)" xlink:href="#Y"/><use transform="matrix(0.05,0,0,0.05,18.95,0)" xlink:href="#Q"/></g><g id="c"><use transform="matrix(0.05,0,0,0.05,0,0)" xlink:href="#O"/><use transform="matrix(0.05,0,0,0.05,10,0)" xlink:href="#O"/><use transform="matrix(0.05,0,0,0.05,20,0)" xlink:href="#Y"/><use transform="matrix(0.05,0,0,0.05,23.95,0)" xlink:href="#Q"/></g><g id="d"><use transform="matrix(0.05,0,0,0.05,0,0)" xlink:href="#W"/><use transform="matrix(0.05,0,0,0.05,9,0)" xlink:href="#S"/><use transform="matrix(0.05,0,0,0.05,19,0)" xlink:href="#X"/><use transform="matrix(0.05,0,0,0.05,24.95,0)" xlink:href="#T"/><use transform="matrix(0.05,0,0,0.05,33.95,0)" xlink:href="#Y"/><use transform="matrix(0.05,0,0,0.05,37.900000000000006,0)" xlink:href="#Z"/><use transform="matrix(0.05,0,0,0.05,47.900000000000006,0)" xlink:href="#P"/></g><path d="M59-47c-2 24 18 29 38 22v24C64 9 27 4 27-40v-127H5v-23h24l9-43h21v43h35v23H59v120" id="ac"/><path d="M210-169c-67 3-38 105-44 169h-31v-121c0-29-5-50-35-48C34-165 62-65 56 0H25l-1-190h30c1 10-1 24 2 32 10-44 99-50 107 0 11-21 27-35 58-36 85-2 47 119 55 194h-31v-121c0-29-5-49-35-48" id="ad"/><path d="M115-194c55 1 70 41 70 98S169 2 115 4C84 4 66-9 55-30l1 105H24l-1-265h31l2 30c10-21 28-34 59-34zm-8 174c40 0 45-34 45-75s-6-73-45-74c-42 0-51 32-51 76 0 43 10 73 51 73" id="ae"/><g id="e"><use transform="matrix(0.05,0,0,0.05,0,0)" xlink:href="#ac"/><use transform="matrix(0.05,0,0,0.05,5,0)" xlink:href="#Y"/><use transform="matrix(0.05,0,0,0.05,8.95,0)" xlink:href="#ad"/><use transform="matrix(0.05,0,0,0.05,23.9,0)" xlink:href="#S"/><use transform="matrix(0.05,0,0,0.05,33.9,0)" xlink:href="#T"/><use transform="matrix(0.05,0,0,0.05,42.9,0)" xlink:href="#ac"/><use transform="matrix(0.05,0,0,0.05,47.9,0)" xlink:href="#V"/><use transform="matrix(0.05,0,0,0.05,57.900000000000006,0)" xlink:href="#ad"/><use transform="matrix(0.05,0,0,0.05,72.85,0)" xlink:href="#ae"/></g><g id="f"><use transform="matrix(0.05,0,0,0.05,0,0)" xlink:href="#ad"/><use transform="matrix(0.05,0,0,0.05,14.950000000000001,0)" xlink:href="#V"/><use transform="matrix(0.05,0,0,0.05,24.950000000000003,0)" xlink:href="#P"/><use transform="matrix(0.05,0,0,0.05,34.95,0)" xlink:href="#Y"/><use transform="matrix(0.05,0,0,0.05,38.900000000000006,0)" xlink:href="#aa"/><use transform="matrix(0.05,0,0,0.05,43.900000000000006,0)" xlink:href="#S"/><use transform="matrix(0.05,0,0,0.05,53.900000000000006,0)" xlink:href="#T"/><use transform="matrix(0.05,0,0,0.05,62.900000000000006,0)" xlink:href="#ac"/></g><path d="M24-231v-30h32v30H24zM-9 49c24 4 33-6 33-30v-209h32V24c2 40-23 58-65 49V49" id="af"/><g id="g"><use transform="matrix(0.05,0,0,0.05,0,0)" xlink:href="#af"/><use transform="matrix(0.05,0,0,0.05,3.95,0)" xlink:href="#T"/><use transform="matrix(0.05,0,0,0.05,12.949999999999998,0)" xlink:href="#Z"/><use transform="matrix(0.05,0,0,0.05,22.95,0)" xlink:href="#P"/><use transform="matrix(0.05,0,0,0.05,32.95,0)" xlink:href="#N"/></g><path d="M177-190C167-65 218 103 67 71c-23-6-38-20-44-43l32-5c15 47 100 32 89-28v-30C133-14 115 1 83 1 29 1 15-40 15-95c0-56 16-97 71-98 29-1 48 16 59 35 1-10 0-23 2-32h30zM94-22c36 0 50-32 50-73 0-42-14-75-50-75-39 0-46 34-46 75s6 73 46 73" id="ag"/><g id="h"><use transform="matrix(0.05,0,0,0.05,0,0)" xlink:href="#V"/><use transform="matrix(0.05,0,0,0.05,10,0)" xlink:href="#ag"/><use transform="matrix(0.05,0,0,0.05,20,0)" xlink:href="#ag"/><use transform="matrix(0.05,0,0,0.05,30,0)" xlink:href="#X"/><use transform="matrix(0.05,0,0,0.05,35.95,0)" xlink:href="#S"/><use transform="matrix(0.05,0,0,0.05,45.95,0)" xlink:href="#ag"/><use transform="matrix(0.05,0,0,0.05,55.95,0)" xlink:href="#V"/><use transform="matrix(0.05,0,0,0.05,65.95,0)" xlink:href="#ac"/><use transform="matrix(0.05,0,0,0.05,70.95,0)" xlink:href="#S"/><use transform="matrix(0.05,0,0,0.05,80.95,0)" xlink:href="#U"/><use transform="matrix(0.05,0,0,0.05,90.95,0)" xlink:href="#ad"/><use transform="matrix(0.05,0,0,0.05,105.9,0)" xlink:href="#S"/><use transform="matrix(0.05,0,0,0.05,115.9,0)" xlink:href="#ac"/><use transform="matrix(0.05,0,0,0.05,120.9,0)" xlink:href="#V"/><use transform="matrix(0.05,0,0,0.05,130.9,0)" xlink:href="#Q"/><use transform="matrix(0.05,0,0,0.05,140.9,0)" xlink:href="#V"/><use transform="matrix(0.05,0,0,0.05,150.9,0)" xlink:href="#ac"/><use transform="matrix(0.05,0,0,0.05,155.9,0)" xlink:href="#V"/></g><path d="M143 0L79-87 56-68V0H24v-261h32v163l83-92h37l-77 82L181 0h-38" id="ah"/><g id="i"><use transform="matrix(0.05,0,0,0.05,0,0)" xlink:href="#N"/><use transform="matrix(0.05,0,0,0.05,10,0)" xlink:href="#O"/><use transform="matrix(0.05,0,0,0.05,20,0)" xlink:href="#P"/><use transform="matrix(0.05,0,0,0.05,30,0)" xlink:href="#Q"/><use transform="matrix(0.05,0,0,0.05,40,0)" xlink:href="#R"/><use transform="matrix(0.05,0,0,0.05,43.95,0)" xlink:href="#S"/><use transform="matrix(0.05,0,0,0.05,53.95,0)" xlink:href="#U"/><use transform="matrix(0.05,0,0,0.05,63.95,0)" xlink:href="#aa"/><use transform="matrix(0.05,0,0,0.05,68.95,0)" xlink:href="#Y"/><use transform="matrix(0.05,0,0,0.05,72.9,0)" xlink:href="#R"/><use transform="matrix(0.05,0,0,0.05,76.85000000000001,0)" xlink:href="#S"/><use transform="matrix(0.05,0,0,0.05,86.85000000000001,0)" xlink:href="#U"/><use transform="matrix(0.05,0,0,0.05,96.85000000000001,0)" xlink:href="#R"/><use transform="matrix(0.05,0,0,0.05,100.80000000000001,0)" xlink:href="#Y"/><use transform="matrix(0.05,0,0,0.05,104.75,0)" xlink:href="#P"/><use transform="matrix(0.05,0,0,0.05,114.75,0)" xlink:href="#ah"/><use transform="matrix(0.05,0,0,0.05,123.75,0)" xlink:href="#T"/></g><g id="j"><use transform="matrix(0.05,0,0,0.05,0,0)" xlink:href="#N"/><use transform="matrix(0.05,0,0,0.05,10,0)" xlink:href="#O"/><use transform="matrix(0.05,0,0,0.05,20,0)" xlink:href="#P"/><use transform="matrix(0.05,0,0,0.05,30,0)" xlink:href="#Q"/><use transform="matrix(0.05,0,0,0.05,40,0)" xlink:href="#R"/><use transform="matrix(0.05,0,0,0.05,43.95,0)" xlink:href="#S"/><use transform="matrix(0.05,0,0,0.05,53.95,0)" xlink:href="#U"/><use transform="matrix(0.05,0,0,0.05,63.95,0)" xlink:href="#aa"/><use transform="matrix(0.05,0,0,0.05,68.95,0)" xlink:href="#ab"/><use transform="matrix(0.05,0,0,0.05,78.95,0)" xlink:href="#Y"/><use transform="matrix(0.05,0,0,0.05,82.9,0)" xlink:href="#Q"/></g><path d="M63-220v92h138v28H63V0H30v-248h175v28H63" id="ai"/><path d="M194 0L95-120 63-95V0H30v-248h33v124l119-124h40L117-140 236 0h-42" id="aj"/><path d="M179-190L93 31C79 59 56 82 12 73V49c39 6 53-20 64-50L1-190h34L92-34l54-156h33" id="ak"/><g id="k"><use transform="matrix(0.05,0,0,0.05,0,0)" xlink:href="#ai"/><use transform="matrix(0.05,0,0,0.05,10.950000000000001,0)" xlink:href="#Z"/><use transform="matrix(0.05,0,0,0.05,20.950000000000003,0)" xlink:href="#X"/><use transform="matrix(0.05,0,0,0.05,26.900000000000002,0)" xlink:href="#S"/><use transform="matrix(0.05,0,0,0.05,36.900000000000006,0)" xlink:href="#Y"/><use transform="matrix(0.05,0,0,0.05,40.85000000000001,0)" xlink:href="#ag"/><use transform="matrix(0.05,0,0,0.05,50.85000000000001,0)" xlink:href="#P"/><use transform="matrix(0.05,0,0,0.05,60.85,0)" xlink:href="#aj"/><use transform="matrix(0.05,0,0,0.05,72.85000000000001,0)" xlink:href="#S"/><use transform="matrix(0.05,0,0,0.05,82.85000000000001,0)" xlink:href="#ak"/></g><g id="l"><use transform="matrix(0.05,0,0,0.05,0,0)" xlink:href="#aa"/><use transform="matrix(0.05,0,0,0.05,5,0)" xlink:href="#Y"/><use transform="matrix(0.05,0,0,0.05,8.95,0)" xlink:href="#R"/><use transform="matrix(0.05,0,0,0.05,12.899999999999999,0)" xlink:href="#S"/><use transform="matrix(0.05,0,0,0.05,22.9,0)" xlink:href="#U"/><use transform="matrix(0.05,0,0,0.05,32.9,0)" xlink:href="#aa"/><use transform="matrix(0.05,0,0,0.05,37.9,0)" xlink:href="#ab"/><use transform="matrix(0.05,0,0,0.05,47.9,0)" xlink:href="#Y"/><use transform="matrix(0.05,0,0,0.05,51.85,0)" xlink:href="#Q"/></g><g id="m"><use transform="matrix(0.05,0,0,0.05,0,0)" xlink:href="#P"/><use transform="matrix(0.05,0,0,0.05,10,0)" xlink:href="#V"/><use transform="matrix(0.05,0,0,0.05,20,0)" xlink:href="#ad"/><use transform="matrix(0.05,0,0,0.05,34.95,0)" xlink:href="#S"/></g><g id="n"><use transform="matrix(0.05,0,0,0.05,0,0)" xlink:href="#T"/><use transform="matrix(0.05,0,0,0.05,9,0)" xlink:href="#ac"/><use transform="matrix(0.05,0,0,0.05,14,0)" xlink:href="#X"/><use transform="matrix(0.05,0,0,0.05,19.95,0)" xlink:href="#Y"/><use transform="matrix(0.05,0,0,0.05,23.9,0)" xlink:href="#P"/><use transform="matrix(0.05,0,0,0.05,33.9,0)" xlink:href="#ag"/></g><g id="o"><use transform="matrix(0.05,0,0,0.05,0,0)" xlink:href="#aa"/><use transform="matrix(0.05,0,0,0.05,5,0)" xlink:href="#Y"/><use transform="matrix(0.05,0,0,0.05,8.95,0)" xlink:href="#R"/><use transform="matrix(0.05,0,0,0.05,12.899999999999999,0)" xlink:href="#S"/><use transform="matrix(0.05,0,0,0.05,22.9,0)" xlink:href="#T"/><use transform="matrix(0.05,0,0,0.05,31.899999999999995,0)" xlink:href="#U"/><use transform="matrix(0.05,0,0,0.05,41.9,0)" xlink:href="#V"/><use transform="matrix(0.05,0,0,0.05,51.900000000000006,0)" xlink:href="#R"/><use transform="matrix(0.05,0,0,0.05,55.85,0)" xlink:href="#R"/><use transform="matrix(0.05,0,0,0.05,59.800000000000004,0)" xlink:href="#U"/><use transform="matrix(0.05,0,0,0.05,69.80000000000001,0)" xlink:href="#W"/><use transform="matrix(0.05,0,0,0.05,78.80000000000001,0)" xlink:href="#S"/><use transform="matrix(0.05,0,0,0.05,88.80000000000001,0)" xlink:href="#X"/><use transform="matrix(0.05,0,0,0.05,94.75000000000001,0)" xlink:href="#T"/><use transform="matrix(0.05,0,0,0.05,103.75,0)" xlink:href="#Y"/><use transform="matrix(0.05,0,0,0.05,107.7,0)" xlink:href="#Z"/><use transform="matrix(0.05,0,0,0.05,117.7,0)" xlink:href="#P"/><use transform="matrix(0.05,0,0,0.05,127.7,0)" xlink:href="#T"/></g><g id="p"><use transform="matrix(0.05,0,0,0.05,0,0)" xlink:href="#aa"/><use transform="matrix(0.05,0,0,0.05,5,0)" xlink:href="#Y"/><use transform="matrix(0.05,0,0,0.05,8.95,0)" xlink:href="#R"/><use transform="matrix(0.05,0,0,0.05,12.899999999999999,0)" xlink:href="#S"/><use transform="matrix(0.05,0,0,0.05,22.9,0)" xlink:href="#U"/><use transform="matrix(0.05,0,0,0.05,32.9,0)" xlink:href="#O"/><use transform="matrix(0.05,0,0,0.05,42.9,0)" xlink:href="#O"/><use transform="matrix(0.05,0,0,0.05,52.900000000000006,0)" xlink:href="#Y"/><use transform="matrix(0.05,0,0,0.05,56.85,0)" xlink:href="#Q"/></g><g id="q"><use transform="matrix(0.05,0,0,0.05,0,0)" xlink:href="#aa"/><use transform="matrix(0.05,0,0,0.05,5,0)" xlink:href="#Y"/><use transform="matrix(0.05,0,0,0.05,8.95,0)" xlink:href="#R"/><use transform="matrix(0.05,0,0,0.05,12.899999999999999,0)" xlink:href="#S"/><use transform="matrix(0.05,0,0,0.05,22.9,0)" xlink:href="#U"/><use transform="matrix(0.05,0,0,0.05,32.9,0)" xlink:href="#W"/><use transform="matrix(0.05,0,0,0.05,41.9,0)" xlink:href="#S"/><use transform="matrix(0.05,0,0,0.05,51.900000000000006,0)" xlink:href="#X"/><use transform="matrix(0.05,0,0,0.05,57.85,0)" xlink:href="#T"/><use transform="matrix(0.05,0,0,0.05,66.85,0)" xlink:href="#Y"/><use transform="matrix(0.05,0,0,0.05,70.8,0)" xlink:href="#Z"/><use transform="matrix(0.05,0,0,0.05,80.8,0)" xlink:href="#P"/></g><path d="M96-169c-40 0-48 33-48 73s9 75 48 75c24 0 41-14 43-38l32 2c-6 37-31 61-74 61-59 0-76-41-82-99-10-93 101-131 147-64 4 7 5 14 7 22l-32 3c-4-21-16-35-41-35" id="al"/><path d="M106-169C34-169 62-67 57 0H25v-261h32l-1 103c12-21 28-36 61-36 89 0 53 116 60 194h-32v-121c2-32-8-49-39-48" id="am"/><g id="r"><use transform="matrix(0.05,0,0,0.05,0,0)" xlink:href="#Q"/><use transform="matrix(0.05,0,0,0.05,10,0)" xlink:href="#al"/><use transform="matrix(0.05,0,0,0.05,19,0)" xlink:href="#ae"/><use transform="matrix(0.05,0,0,0.05,29,0)" xlink:href="#U"/><use transform="matrix(0.05,0,0,0.05,39,0)" xlink:href="#T"/><use transform="matrix(0.05,0,0,0.05,48,0)" xlink:href="#al"/><use transform="matrix(0.05,0,0,0.05,57,0)" xlink:href="#am"/><use transform="matrix(0.05,0,0,0.05,67,0)" xlink:href="#S"/><use transform="matrix(0.05,0,0,0.05,77,0)" xlink:href="#ad"/><use transform="matrix(0.05,0,0,0.05,91.95,0)" xlink:href="#V"/><use transform="matrix(0.05,0,0,0.05,101.95,0)" xlink:href="#U"/><use transform="matrix(0.05,0,0,0.05,111.95,0)" xlink:href="#ac"/><use transform="matrix(0.05,0,0,0.05,116.95,0)" xlink:href="#ak"/><use transform="matrix(0.05,0,0,0.05,125.95,0)" xlink:href="#ae"/><use transform="matrix(0.05,0,0,0.05,135.95,0)" xlink:href="#S"/><use transform="matrix(0.05,0,0,0.05,145.95,0)" xlink:href="#U"/><use transform="matrix(0.05,0,0,0.05,155.95,0)" xlink:href="#P"/><use transform="matrix(0.05,0,0,0.05,165.95,0)" xlink:href="#V"/><use transform="matrix(0.05,0,0,0.05,175.95,0)" xlink:href="#ad"/><use transform="matrix(0.05,0,0,0.05,190.89999999999998,0)" xlink:href="#S"/></g><g id="s"><use transform="matrix(0.05,0,0,0.05,0,0)" xlink:href="#Q"/><use transform="matrix(0.05,0,0,0.05,10,0)" xlink:href="#al"/><use transform="matrix(0.05,0,0,0.05,19,0)" xlink:href="#ae"/><use transform="matrix(0.05,0,0,0.05,29,0)" xlink:href="#U"/><use transform="matrix(0.05,0,0,0.05,39,0)" xlink:href="#T"/><use transform="matrix(0.05,0,0,0.05,48,0)" xlink:href="#al"/><use transform="matrix(0.05,0,0,0.05,57,0)" xlink:href="#am"/><use transform="matrix(0.05,0,0,0.05,67,0)" xlink:href="#S"/><use transform="matrix(0.05,0,0,0.05,77,0)" xlink:href="#ad"/><use transform="matrix(0.05,0,0,0.05,91.95,0)" xlink:href="#V"/><use transform="matrix(0.05,0,0,0.05,101.95,0)" xlink:href="#U"/><use transform="matrix(0.05,0,0,0.05,111.95,0)" xlink:href="#ac"/><use transform="matrix(0.05,0,0,0.05,116.95,0)" xlink:href="#ak"/><use transform="matrix(0.05,0,0,0.05,125.95,0)" xlink:href="#ae"/><use transform="matrix(0.05,0,0,0.05,135.95,0)" xlink:href="#S"/></g><g id="t"><use transform="matrix(0.05,0,0,0.05,0,0)" xlink:href="#N"/><use transform="matrix(0.05,0,0,0.05,10,0)" xlink:href="#Z"/><use transform="matrix(0.05,0,0,0.05,20,0)" xlink:href="#Q"/><use transform="matrix(0.05,0,0,0.05,30,0)" xlink:href="#ak"/></g><g id="u"><use transform="matrix(0.05,0,0,0.05,0,0)" xlink:href="#al"/><use transform="matrix(0.05,0,0,0.05,9,0)" xlink:href="#Z"/><use transform="matrix(0.05,0,0,0.05,19,0)" xlink:href="#P"/><use transform="matrix(0.05,0,0,0.05,29,0)" xlink:href="#ac"/><use transform="matrix(0.05,0,0,0.05,34,0)" xlink:href="#S"/><use transform="matrix(0.05,0,0,0.05,44,0)" xlink:href="#P"/><use transform="matrix(0.05,0,0,0.05,54,0)" xlink:href="#ac"/><use transform="matrix(0.05,0,0,0.05,59,0)" xlink:href="#U"/><use transform="matrix(0.05,0,0,0.05,69,0)" xlink:href="#ac"/><use transform="matrix(0.05,0,0,0.05,74,0)" xlink:href="#ak"/><use transform="matrix(0.05,0,0,0.05,83,0)" xlink:href="#ae"/><use transform="matrix(0.05,0,0,0.05,93,0)" xlink:href="#S"/></g><path d="M9 0v-24l116-142H16v-24h144v24L44-24h123V0H9" id="an"/><g id="v"><use transform="matrix(0.05,0,0,0.05,0,0)" xlink:href="#T"/><use transform="matrix(0.05,0,0,0.05,9,0)" xlink:href="#Y"/><use transform="matrix(0.05,0,0,0.05,12.949999999999998,0)" xlink:href="#an"/><use transform="matrix(0.05,0,0,0.05,21.95,0)" xlink:href="#S"/></g><g id="w"><use transform="matrix(0.05,0,0,0.05,0,0)" xlink:href="#Y"/><use transform="matrix(0.05,0,0,0.05,3.95,0)" xlink:href="#P"/><use transform="matrix(0.05,0,0,0.05,13.949999999999998,0)" xlink:href="#ac"/></g><path d="M141 0L90-78 38 0H4l68-98-65-92h35l48 74 47-74h35l-64 92 68 98h-35" id="ao"/><g id="x"><use transform="matrix(0.05,0,0,0.05,0,0)" xlink:href="#S"/><use transform="matrix(0.05,0,0,0.05,10,0)" xlink:href="#ao"/><use transform="matrix(0.05,0,0,0.05,19,0)" xlink:href="#ac"/><use transform="matrix(0.05,0,0,0.05,24,0)" xlink:href="#S"/><use transform="matrix(0.05,0,0,0.05,34,0)" xlink:href="#P"/><use transform="matrix(0.05,0,0,0.05,44,0)" xlink:href="#T"/><use transform="matrix(0.05,0,0,0.05,53,0)" xlink:href="#Y"/><use transform="matrix(0.05,0,0,0.05,56.95,0)" xlink:href="#Z"/><use transform="matrix(0.05,0,0,0.05,66.95,0)" xlink:href="#P"/></g><g id="y"><use transform="matrix(0.05,0,0,0.05,0,0)" xlink:href="#Q"/><use transform="matrix(0.05,0,0,0.05,10,0)" xlink:href="#al"/><use transform="matrix(0.05,0,0,0.05,19,0)" xlink:href="#ae"/><use transform="matrix(0.05,0,0,0.05,29,0)" xlink:href="#U"/><use transform="matrix(0.05,0,0,0.05,39,0)" xlink:href="#ad"/><use transform="matrix(0.05,0,0,0.05,53.95,0)" xlink:href="#S"/><use transform="matrix(0.05,0,0,0.05,63.95,0)" xlink:href="#ac"/><use transform="matrix(0.05,0,0,0.05,68.95,0)" xlink:href="#V"/><use transform="matrix(0.05,0,0,0.05,78.95,0)" xlink:href="#Q"/><use transform="matrix(0.05,0,0,0.05,88.95,0)" xlink:href="#V"/><use transform="matrix(0.05,0,0,0.05,98.95,0)" xlink:href="#ac"/><use transform="matrix(0.05,0,0,0.05,103.95,0)" xlink:href="#V"/><use transform="matrix(0.05,0,0,0.05,113.95,0)" xlink:href="#U"/><use transform="matrix(0.05,0,0,0.05,123.95,0)" xlink:href="#T"/><use transform="matrix(0.05,0,0,0.05,132.95,0)" xlink:href="#al"/><use transform="matrix(0.05,0,0,0.05,141.95,0)" xlink:href="#am"/><use transform="matrix(0.05,0,0,0.05,151.95,0)" xlink:href="#S"/><use transform="matrix(0.05,0,0,0.05,161.95,0)" xlink:href="#ad"/><use transform="matrix(0.05,0,0,0.05,176.89999999999998,0)" xlink:href="#V"/><use transform="matrix(0.05,0,0,0.05,186.89999999999998,0)" xlink:href="#U"/><use transform="matrix(0.05,0,0,0.05,196.89999999999998,0)" xlink:href="#ac"/><use transform="matrix(0.05,0,0,0.05,201.89999999999998,0)" xlink:href="#ak"/><use transform="matrix(0.05,0,0,0.05,210.89999999999998,0)" xlink:href="#ae"/><use transform="matrix(0.05,0,0,0.05,220.89999999999998,0)" xlink:href="#S"/><use transform="matrix(0.05,0,0,0.05,230.89999999999998,0)" xlink:href="#T"/></g><g id="z"><use transform="matrix(0.05,0,0,0.05,0,0)" xlink:href="#aa"/><use transform="matrix(0.05,0,0,0.05,5,0)" xlink:href="#Y"/><use transform="matrix(0.05,0,0,0.05,8.95,0)" xlink:href="#R"/><use transform="matrix(0.05,0,0,0.05,12.899999999999999,0)" xlink:href="#S"/><use transform="matrix(0.05,0,0,0.05,22.9,0)" xlink:href="#T"/></g><g id="A"><use transform="matrix(0.05,0,0,0.05,0,0)" xlink:href="#ae"/><use transform="matrix(0.05,0,0,0.05,10,0)" xlink:href="#X"/><use transform="matrix(0.05,0,0,0.05,15.949999999999998,0)" xlink:href="#Z"/><use transform="matrix(0.05,0,0,0.05,25.950000000000003,0)" xlink:href="#al"/><use transform="matrix(0.05,0,0,0.05,34.95,0)" xlink:href="#S"/><use transform="matrix(0.05,0,0,0.05,44.95,0)" xlink:href="#T"/><use transform="matrix(0.05,0,0,0.05,53.95,0)" xlink:href="#T"/><use transform="matrix(0.05,0,0,0.05,62.95,0)" xlink:href="#U"/><use transform="matrix(0.05,0,0,0.05,72.95,0)" xlink:href="#aa"/><use transform="matrix(0.05,0,0,0.05,77.95,0)" xlink:href="#Y"/><use transform="matrix(0.05,0,0,0.05,81.9,0)" xlink:href="#R"/><use transform="matrix(0.05,0,0,0.05,85.85000000000001,0)" xlink:href="#S"/><use transform="matrix(0.05,0,0,0.05,95.85000000000001,0)" xlink:href="#U"/><use transform="matrix(0.05,0,0,0.05,105.85000000000001,0)" xlink:href="#af"/><use transform="matrix(0.05,0,0,0.05,109.80000000000001,0)" xlink:href="#Z"/><use transform="matrix(0.05,0,0,0.05,119.80000000000001,0)" xlink:href="#Y"/><use transform="matrix(0.05,0,0,0.05,123.75,0)" xlink:href="#P"/><use transform="matrix(0.05,0,0,0.05,133.75,0)" xlink:href="#U"/><use transform="matrix(0.05,0,0,0.05,143.75,0)" xlink:href="#ac"/><use transform="matrix(0.05,0,0,0.05,148.75,0)" xlink:href="#V"/><use transform="matrix(0.05,0,0,0.05,158.75,0)" xlink:href="#N"/><use transform="matrix(0.05,0,0,0.05,168.75,0)" xlink:href="#R"/><use transform="matrix(0.05,0,0,0.05,172.7,0)" xlink:href="#S"/></g><g id="B"><use transform="matrix(0.05,0,0,0.05,0,0)" xlink:href="#Y"/><use transform="matrix(0.05,0,0,0.05,3.95,0)" xlink:href="#Q"/></g><g id="C"><use transform="matrix(0.05,0,0,0.05,0,0)" xlink:href="#ae"/><use transform="matrix(0.05,0,0,0.05,10,0)" xlink:href="#X"/><use transform="matrix(0.05,0,0,0.05,15.949999999999998,0)" xlink:href="#Z"/><use transform="matrix(0.05,0,0,0.05,25.950000000000003,0)" xlink:href="#al"/><use transform="matrix(0.05,0,0,0.05,34.95,0)" xlink:href="#S"/><use transform="matrix(0.05,0,0,0.05,44.95,0)" xlink:href="#T"/><use transform="matrix(0.05,0,0,0.05,53.95,0)" xlink:href="#T"/><use transform="matrix(0.05,0,0,0.05,62.95,0)" xlink:href="#U"/><use transform="matrix(0.05,0,0,0.05,72.95,0)" xlink:href="#O"/><use transform="matrix(0.05,0,0,0.05,82.95,0)" xlink:href="#O"/><use transform="matrix(0.05,0,0,0.05,92.95,0)" xlink:href="#Y"/><use transform="matrix(0.05,0,0,0.05,96.9,0)" xlink:href="#Q"/></g><g id="D"><use transform="matrix(0.05,0,0,0.05,0,0)" xlink:href="#ae"/><use transform="matrix(0.05,0,0,0.05,10,0)" xlink:href="#X"/><use transform="matrix(0.05,0,0,0.05,15.949999999999998,0)" xlink:href="#Z"/><use transform="matrix(0.05,0,0,0.05,25.950000000000003,0)" xlink:href="#al"/><use transform="matrix(0.05,0,0,0.05,34.95,0)" xlink:href="#S"/><use transform="matrix(0.05,0,0,0.05,44.95,0)" xlink:href="#T"/><use transform="matrix(0.05,0,0,0.05,53.95,0)" xlink:href="#T"/><use transform="matrix(0.05,0,0,0.05,62.95,0)" xlink:href="#U"/><use transform="matrix(0.05,0,0,0.05,72.95,0)" xlink:href="#aa"/><use transform="matrix(0.05,0,0,0.05,77.95,0)" xlink:href="#Y"/><use transform="matrix(0.05,0,0,0.05,81.9,0)" xlink:href="#R"/><use transform="matrix(0.05,0,0,0.05,85.85000000000001,0)" xlink:href="#S"/><use transform="matrix(0.05,0,0,0.05,95.85000000000001,0)" xlink:href="#U"/><use transform="matrix(0.05,0,0,0.05,105.85000000000001,0)" xlink:href="#al"/><use transform="matrix(0.05,0,0,0.05,114.85000000000001,0)" xlink:href="#Z"/><use transform="matrix(0.05,0,0,0.05,124.85000000000001,0)" xlink:href="#P"/><use transform="matrix(0.05,0,0,0.05,134.85000000000002,0)" xlink:href="#P"/><use transform="matrix(0.05,0,0,0.05,144.85000000000002,0)" xlink:href="#S"/><use transform="matrix(0.05,0,0,0.05,154.85000000000002,0)" xlink:href="#al"/><use transform="matrix(0.05,0,0,0.05,163.85000000000002,0)" xlink:href="#ac"/><use transform="matrix(0.05,0,0,0.05,168.85000000000002,0)" xlink:href="#Y"/><use transform="matrix(0.05,0,0,0.05,172.8,0)" xlink:href="#Z"/><use transform="matrix(0.05,0,0,0.05,182.8,0)" xlink:href="#P"/><use transform="matrix(0.05,0,0,0.05,192.8,0)" xlink:href="#U"/><use transform="matrix(0.05,0,0,0.05,202.8,0)" xlink:href="#ac"/><use transform="matrix(0.05,0,0,0.05,207.8,0)" xlink:href="#ak"/><use transform="matrix(0.05,0,0,0.05,216.8,0)" xlink:href="#ae"/><use transform="matrix(0.05,0,0,0.05,226.8,0)" xlink:href="#S"/></g><g id="E"><use transform="matrix(0.05,0,0,0.05,0,0)" xlink:href="#S"/><use transform="matrix(0.05,0,0,0.05,10,0)" xlink:href="#P"/><use transform="matrix(0.05,0,0,0.05,20,0)" xlink:href="#O"/><use transform="matrix(0.05,0,0,0.05,30,0)" xlink:href="#ad"/></g><g id="F"><use transform="matrix(0.05,0,0,0.05,0,0)" xlink:href="#ae"/><use transform="matrix(0.05,0,0,0.05,10,0)" xlink:href="#X"/><use transform="matrix(0.05,0,0,0.05,15.949999999999998,0)" xlink:href="#Z"/><use transform="matrix(0.05,0,0,0.05,25.950000000000003,0)" xlink:href="#al"/><use transform="matrix(0.05,0,0,0.05,34.95,0)" xlink:href="#S"/><use transform="matrix(0.05,0,0,0.05,44.95,0)" xlink:href="#T"/><use transform="matrix(0.05,0,0,0.05,53.95,0)" xlink:href="#T"/><use transform="matrix(0.05,0,0,0.05,62.95,0)" xlink:href="#U"/><use transform="matrix(0.05,0,0,0.05,72.95,0)" xlink:href="#af"/><use transform="matrix(0.05,0,0,0.05,76.9,0)" xlink:href="#Z"/><use transform="matrix(0.05,0,0,0.05,86.9,0)" xlink:href="#Y"/><use transform="matrix(0.05,0,0,0.05,90.85000000000001,0)" xlink:href="#P"/><use transform="matrix(0.05,0,0,0.05,100.85000000000001,0)" xlink:href="#U"/><use transform="matrix(0.05,0,0,0.05,110.85000000000001,0)" xlink:href="#ac"/><use transform="matrix(0.05,0,0,0.05,115.85000000000001,0)" xlink:href="#V"/><use transform="matrix(0.05,0,0,0.05,125.85000000000001,0)" xlink:href="#N"/><use transform="matrix(0.05,0,0,0.05,135.85000000000002,0)" xlink:href="#R"/><use transform="matrix(0.05,0,0,0.05,139.8,0)" xlink:href="#S"/></g><g id="G"><use transform="matrix(0.05,0,0,0.05,0,0)" xlink:href="#al"/><use transform="matrix(0.05,0,0,0.05,9,0)" xlink:href="#am"/><use transform="matrix(0.05,0,0,0.05,19,0)" xlink:href="#Y"/><use transform="matrix(0.05,0,0,0.05,22.95,0)" xlink:href="#R"/><use transform="matrix(0.05,0,0,0.05,26.899999999999995,0)" xlink:href="#Q"/><use transform="matrix(0.05,0,0,0.05,36.9,0)" xlink:href="#U"/><use transform="matrix(0.05,0,0,0.05,46.9,0)" xlink:href="#ae"/><use transform="matrix(0.05,0,0,0.05,56.900000000000006,0)" xlink:href="#X"/><use transform="matrix(0.05,0,0,0.05,62.85,0)" xlink:href="#Z"/><use transform="matrix(0.05,0,0,0.05,72.85,0)" xlink:href="#al"/><use transform="matrix(0.05,0,0,0.05,81.85,0)" xlink:href="#S"/><use transform="matrix(0.05,0,0,0.05,91.85,0)" xlink:href="#T"/><use transform="matrix(0.05,0,0,0.05,100.85,0)" xlink:href="#T"/><use transform="matrix(0.05,0,0,0.05,109.84999999999998,0)" xlink:href="#U"/><use transform="matrix(0.05,0,0,0.05,119.84999999999998,0)" xlink:href="#O"/><use transform="matrix(0.05,0,0,0.05,129.85,0)" xlink:href="#O"/><use transform="matrix(0.05,0,0,0.05,139.85,0)" xlink:href="#Y"/><use transform="matrix(0.05,0,0,0.05,143.79999999999998,0)" xlink:href="#Q"/></g><g id="H"><use transform="matrix(0.05,0,0,0.05,0,0)" xlink:href="#ae"/><use transform="matrix(0.05,0,0,0.05,10,0)" xlink:href="#V"/><use transform="matrix(0.05,0,0,0.05,20,0)" xlink:href="#X"/><use transform="matrix(0.05,0,0,0.05,25.950000000000003,0)" xlink:href="#S"/><use transform="matrix(0.05,0,0,0.05,35.95,0)" xlink:href="#P"/><use transform="matrix(0.05,0,0,0.05,45.95,0)" xlink:href="#ac"/><use transform="matrix(0.05,0,0,0.05,50.95,0)" xlink:href="#U"/><use transform="matrix(0.05,0,0,0.05,60.95,0)" xlink:href="#ae"/><use transform="matrix(0.05,0,0,0.05,70.95,0)" xlink:href="#X"/><use transform="matrix(0.05,0,0,0.05,76.9,0)" xlink:href="#Z"/><use transform="matrix(0.05,0,0,0.05,86.9,0)" xlink:href="#al"/><use transform="matrix(0.05,0,0,0.05,95.9,0)" xlink:href="#S"/><use transform="matrix(0.05,0,0,0.05,105.9,0)" xlink:href="#T"/><use transform="matrix(0.05,0,0,0.05,114.9,0)" xlink:href="#T"/><use transform="matrix(0.05,0,0,0.05,123.9,0)" xlink:href="#U"/><use transform="matrix(0.05,0,0,0.05,133.9,0)" xlink:href="#O"/><use transform="matrix(0.05,0,0,0.05,143.9,0)" xlink:href="#O"/><use transform="matrix(0.05,0,0,0.05,153.9,0)" xlink:href="#Y"/><use transform="matrix(0.05,0,0,0.05,157.85,0)" xlink:href="#Q"/></g><g id="I"><use transform="matrix(0.05,0,0,0.05,0,0)" xlink:href="#ae"/><use transform="matrix(0.05,0,0,0.05,10,0)" xlink:href="#X"/><use transform="matrix(0.05,0,0,0.05,15.949999999999998,0)" xlink:href="#Z"/><use transform="matrix(0.05,0,0,0.05,25.950000000000003,0)" xlink:href="#al"/><use transform="matrix(0.05,0,0,0.05,34.95,0)" xlink:href="#S"/><use transform="matrix(0.05,0,0,0.05,44.95,0)" xlink:href="#T"/><use transform="matrix(0.05,0,0,0.05,53.95,0)" xlink:href="#T"/><use transform="matrix(0.05,0,0,0.05,62.95,0)" xlink:href="#S"/><use transform="matrix(0.05,0,0,0.05,72.95,0)" xlink:href="#T"/></g><path d="M212-179c-10-28-35-45-73-45-59 0-87 40-87 99 0 60 29 101 89 101 43 0 62-24 78-52l27 14C228-24 195 4 139 4 59 4 22-46 18-125c-6-104 99-153 187-111 19 9 31 26 39 46" id="ap"/><path d="M127-220V0H93v-220H8v-28h204v28h-85" id="aq"/><path d="M30 0v-248h187v28H63v79h144v27H63v87h162V0H30" id="ar"/><g id="J"><use transform="matrix(0.05,0,0,0.05,0,0)" xlink:href="#ap"/><use transform="matrix(0.05,0,0,0.05,12.950000000000001,0)" xlink:href="#Z"/><use transform="matrix(0.05,0,0,0.05,22.950000000000003,0)" xlink:href="#P"/><use transform="matrix(0.05,0,0,0.05,32.95,0)" xlink:href="#P"/><use transform="matrix(0.05,0,0,0.05,42.95,0)" xlink:href="#S"/><use transform="matrix(0.05,0,0,0.05,52.95,0)" xlink:href="#al"/><use transform="matrix(0.05,0,0,0.05,61.95,0)" xlink:href="#ac"/><use transform="matrix(0.05,0,0,0.05,66.95,0)" xlink:href="#Y"/><use transform="matrix(0.05,0,0,0.05,70.9,0)" xlink:href="#Z"/><use transform="matrix(0.05,0,0,0.05,80.9,0)" xlink:href="#P"/><use transform="matrix(0.05,0,0,0.05,90.9,0)" xlink:href="#aq"/><use transform="matrix(0.05,0,0,0.05,100.85000000000001,0)" xlink:href="#ak"/><use transform="matrix(0.05,0,0,0.05,109.85000000000001,0)" xlink:href="#ae"/><use transform="matrix(0.05,0,0,0.05,119.85000000000001,0)" xlink:href="#S"/><use transform="matrix(0.05,0,0,0.05,129.85000000000002,0)" xlink:href="#ar"/><use transform="matrix(0.05,0,0,0.05,141.85000000000002,0)" xlink:href="#P"/><use transform="matrix(0.05,0,0,0.05,151.85000000000002,0)" xlink:href="#O"/><use transform="matrix(0.05,0,0,0.05,161.85000000000002,0)" xlink:href="#ad"/></g><path d="M33 0v-248h34V0H33" id="as"/><path d="M190 0L58-211 59 0H30v-248h39L202-35l-2-213h31V0h-41" id="at"/><path d="M30-248c87 1 191-15 191 75 0 78-77 80-158 76V0H30v-248zm33 125c57 0 124 11 124-50 0-59-68-47-124-48v98" id="au"/><path d="M232-93c-1 65-40 97-104 97C67 4 28-28 28-90v-158h33c8 89-33 224 67 224 102 0 64-133 71-224h33v155" id="av"/><path d="M137-103V0h-34v-103L8-248h37l75 118 75-118h37" id="aw"/><g id="K"><use transform="matrix(0.05,0,0,0.05,0,0)" xlink:href="#as"/><use transform="matrix(0.05,0,0,0.05,5,0)" xlink:href="#at"/><use transform="matrix(0.05,0,0,0.05,17.950000000000003,0)" xlink:href="#au"/><use transform="matrix(0.05,0,0,0.05,29.950000000000003,0)" xlink:href="#av"/><use transform="matrix(0.05,0,0,0.05,42.900000000000006,0)" xlink:href="#aq"/><use transform="matrix(0.05,0,0,0.05,53.85,0)" xlink:href="#U"/><use transform="matrix(0.05,0,0,0.05,63.85,0)" xlink:href="#ar"/><use transform="matrix(0.05,0,0,0.05,75.85000000000001,0)" xlink:href="#at"/><use transform="matrix(0.05,0,0,0.05,88.80000000000001,0)" xlink:href="#aq"/><use transform="matrix(0.05,0,0,0.05,99.75000000000001,0)" xlink:href="#as"/><use transform="matrix(0.05,0,0,0.05,104.75,0)" xlink:href="#aq"/><use transform="matrix(0.05,0,0,0.05,115.7,0)" xlink:href="#aw"/></g><path d="M140-251c81 0 123 46 123 126C263-46 219 4 140 4 59 4 17-45 17-125s42-126 123-126zm0 227c63 0 89-41 89-101s-29-99-89-99c-61 0-89 39-89 99S79-25 140-24" id="ax"/><g id="L"><use transform="matrix(0.05,0,0,0.05,0,0)" xlink:href="#ax"/><use transform="matrix(0.05,0,0,0.05,14,0)" xlink:href="#av"/><use transform="matrix(0.05,0,0,0.05,26.950000000000003,0)" xlink:href="#aq"/><use transform="matrix(0.05,0,0,0.05,37.900000000000006,0)" xlink:href="#au"/><use transform="matrix(0.05,0,0,0.05,49.900000000000006,0)" xlink:href="#av"/><use transform="matrix(0.05,0,0,0.05,62.85,0)" xlink:href="#aq"/><use transform="matrix(0.05,0,0,0.05,73.80000000000001,0)" xlink:href="#U"/><use transform="matrix(0.05,0,0,0.05,83.80000000000001,0)" xlink:href="#ar"/><use transform="matrix(0.05,0,0,0.05,95.80000000000001,0)" xlink:href="#at"/><use transform="matrix(0.05,0,0,0.05,108.75,0)" xlink:href="#aq"/><use transform="matrix(0.05,0,0,0.05,119.7,0)" xlink:href="#as"/><use transform="matrix(0.05,0,0,0.05,124.7,0)" xlink:href="#aq"/><use transform="matrix(0.05,0,0,0.05,135.65,0)" xlink:href="#aw"/></g><path d="M233-177c-1 41-23 64-60 70L243 0h-38l-65-103H63V0H30v-248c88 3 205-21 203 71zM63-129c60-2 137 13 137-47 0-61-80-42-137-45v92" id="ay"/><path d="M30 0v-248h33v221h125V0H30" id="az"/><g id="M"><use transform="matrix(0.05,0,0,0.05,0,0)" xlink:href="#au"/><use transform="matrix(0.05,0,0,0.05,12,0)" xlink:href="#ay"/><use transform="matrix(0.05,0,0,0.05,24.950000000000003,0)" xlink:href="#ax"/><use transform="matrix(0.05,0,0,0.05,38.95,0)" xlink:href="#aq"/><use transform="matrix(0.05,0,0,0.05,49.550000000000004,0)" xlink:href="#ax"/><use transform="matrix(0.05,0,0,0.05,63.550000000000004,0)" xlink:href="#ap"/><use transform="matrix(0.05,0,0,0.05,76.5,0)" xlink:href="#ax"/><use transform="matrix(0.05,0,0,0.05,90.5,0)" xlink:href="#az"/><use transform="matrix(0.05,0,0,0.05,100.5,0)" xlink:href="#U"/><use transform="matrix(0.05,0,0,0.05,110.5,0)" xlink:href="#ar"/><use transform="matrix(0.05,0,0,0.05,122.5,0)" xlink:href="#at"/><use transform="matrix(0.05,0,0,0.05,135.45,0)" xlink:href="#aq"/><use transform="matrix(0.05,0,0,0.05,146.39999999999998,0)" xlink:href="#as"/><use transform="matrix(0.05,0,0,0.05,151.39999999999998,0)" xlink:href="#aq"/><use transform="matrix(0.05,0,0,0.05,162.34999999999997,0)" xlink:href="#aw"/></g></defs></g></svg>