<svg xmlns="http://www.w3.org/2000/svg" xmlns:xlink="http://www.w3.org/1999/xlink" xmlns:lucid="lucid" width="1477.19" height="1321"><g transform="translate(-122.80524969029511 -560)" lucid:page-tab-id="0_0"><path d="M0 0h1760v2656H0z" fill="#fff"/><path d="M1204.66 781.3h240v60h-240zM219 720h240v60H219z" fill="none"/><use xlink:href="#a" transform="matrix(1,0,0,1,219,720) translate(97.075 33.6)"/><path d="M406.5 1415.87h124v59.3h-124v-59.3z" fill="#876929"/><path d="M406.5 1415.87h124v55.25h-124z" fill="#d9a741"/><path d="M440.9 1423.3h13.22v41.67h-13.2v-41.66zM461.9 1423.3h13.2v41.67h-13.2v-41.66zM482.86 1423.3h13.2v41.67h-13.2v-41.66zM421.8 1435.1v18.07l11.32-9.03-11.32-9.04zM503.85 1435.1v18.07l11.32-9.03-11.32-9.04z" fill="#fff"/><use xlink:href="#b" transform="matrix(1,0,0,1,406.5,1475.1660626047058) translate(-55.32499999999999 14.4)"/><path d="M1264.66 885.6h120V947h-120v-61.4z" fill="#9d5025"/><path d="M1264.66 880h120v61.4h-120V880z" fill="#f58536"/><path d="M1290.58 883.67h5.65v54.08h-5.65v-54.08zM1301 883.67h5.65v54.08H1301v-54.08zM1311.4 883.67h5.67v54.08h-5.66v-54.08zM1269.75 883.67h5.65v54.08h-5.65v-54.08zM1280.17 883.67h5.65v54.08h-5.65v-54.08zM1321.83 883.67h5.65v54.08h-5.65v-54.08zM1332.25 883.67h5.65v54.08h-5.65v-54.08zM1342.66 883.67h5.65v54.08h-5.64v-54.08zM1353.07 883.67h5.65v54.08h-5.65v-54.08zM1363.48 883.67h5.65v54.08h-5.65v-54.08zM1373.9 883.67h5.65v54.08h-5.65v-54.08z" fill="#fbbf93"/><path d="M1271.23 885.13h4.18v52.62h-4.17v-52.62zM1281.64 885.13h4.2v52.62h-4.2v-52.62zM1292.06 885.13h4.2v52.62h-4.2v-52.62zM1302.46 885.13h4.2v52.62h-4.2v-52.62zM1312.88 885.13h4.2v52.62h-4.2v-52.62zM1323.3 885.13h4.18v52.62h-4.2v-52.62zM1333.7 885.13h4.2v52.62h-4.2v-52.62zM1344.13 885.13h4.18v52.62h-4.17v-52.62zM1354.54 885.13h4.2v52.62h-4.2v-52.62zM1364.96 885.13h4.2v52.62h-4.2v-52.62zM1375.37 885.13h4.2v52.62h-4.2v-52.62z" fill="#fff"/><use xlink:href="#c" transform="matrix(1,0,0,1,1264.6625395049919,947) translate(18.04938271604938 14.222222222222223)"/><path d="M1464.44 1084.07h75.44c19.78 0 19.78 0 19.78 19.72v75.18c0 19.7 0 19.7-19.78 19.7h-75.44c-19.78 0-19.78 0-19.78-19.7v-75.2c0-19.7 0-19.7 19.78-19.7z" fill="#19486f"/><path d="M1464.44 1078.7h75.44c19.78 0 19.78 0 19.78 19.72v75.2c0 19.7 0 19.7-19.78 19.7h-75.44c-19.78 0-19.78 0-19.78-19.7v-75.2c0-19.7 0-19.7 19.78-19.7z" fill="#2e73b8"/><path d="M1450.08 1096.7h5.4c2.38-.23 4.5 1.5 4.73 3.88.04.38.04.68-.02 1.06.24 2.53-1.63 4.78-4.17 5.02-.28.02-.52.02-.8 0h-2.4v7.03h-2.72zm2.7 7.9h1.94c.17.02.32.02.5-.02 1.42-.18 2.4-1.5 2.2-2.9 0-1.83-.73-2.93-2.9-2.93h-1.73zM1466.25 1100.55c3.75 0 4.8 2.77 4.8 6.72 0 3.96-1.22 6.73-4.8 6.73s-4.77-2.77-4.77-6.73c0-3.95 1.06-6.72 4.77-6.72zm0 11.56c1.88 0 2.17-1.56 2.17-4.8 0-2.84-.32-4.83-2.17-4.83-1.85 0-2.17 2-2.17 4.83-.02 3.28.32 4.8 2.17 4.8zM1478.63 1104.62v-.32c0-1.03-.36-1.98-1.7-1.98-1.3 0-1.84.48-1.84 1.67 0 1.17.45 1.4 1.82 1.87l1.65.57c1.76.33 2.95 1.9 2.8 3.7 0 2.74-2 3.88-4.6 3.88-3.26 0-4.23-1.5-4.23-3.98v-.47h2.28v.4c0 1.48.5 2.3 2 2.3 1.47 0 2.17-.7 2.17-1.88.02-.9-.56-1.68-1.43-1.9l-2.17-.73c-1.73-.35-2.9-1.9-2.73-3.68 0-2.4 1.73-3.53 4.33-3.53 3.3 0 4.02 1.9 4.02 3.5v.56zM1482.36 1100.87h1.76v-3.64h2.58v3.64h2.17v1.9h-2.17v7.64c0 1 .28 1.37 1.17 1.37.33.02.6.02.93 0v1.9c-.74.17-1.4.24-2.17.22-1.73 0-2.6-.5-2.6-3.1v-8.04h-1.75zM1492.68 1114.77v.06c.1.92.95 1.57 1.86 1.45h.25c1.18-.14 2.03-1.2 1.9-2.4v-2.15c-.54 1.12-1.64 1.8-2.9 1.75-3.02 0-3.84-2.94-3.84-6.5 0-2.8.44-6.48 4.08-6.48 1.28-.05 2.4.7 2.82 1.9v-1.57h2.43V1113c0 3.1-1.36 5-4.8 5-3.82 0-4.34-2.18-4.34-3.3zm1.8-3.25c2 0 2.2-2.52 2.2-4.53 0-2.02-.27-4.33-2.07-4.33-1.8 0-2.17 1.9-2.17 4.32 0 2.4.15 4.52 2.06 4.52zM1501.66 1100.86h2.66v2c.37-1.38 1.56-2.3 3-2.34.22-.03.4-.03.63 0v2.63c-.37-.1-.7-.15-1.08-.16-1.18 0-2.6.5-2.6 2.9v7.64h-2.6zM1511.5 1107.6v.82c0 1.7.2 3.88 2.15 3.88 1.96 0 2.06-2.16 2.06-2.85h2.44c.16 2.38-1.65 4.45-4.04 4.6h-.47c-2.17 0-4.7-.62-4.7-6.48 0-3.35.7-6.92 4.75-6.92 3.57 0 4.53 2.16 4.53 5.7v1.37zm4.1-1.73v-.7c0-1.62-.5-2.85-1.97-2.85-1.46 0-2.17 1.62-2.17 3.28v.27zM1522.67 1108.42v.43c0 2.16.9 3.1 2.8 3.1.08.02.15.02.24.02 1.34-.03 2.38-1.15 2.35-2.48.1-1.5-.95-2.8-2.44-3.03l-1.86-.65c-2.2-.48-3.68-2.43-3.55-4.67-.1-2.57 1.9-4.75 4.5-4.84.28 0 .5 0 .78.05 4.34 0 4.82 2.7 4.82 4.48v.4h-2.7v-.38c0-1.54-.7-2.45-2.4-2.45-.15 0-.28 0-.44.02-1.18.16-2.02 1.24-1.85 2.43 0 1.45.73 2.16 2.56 2.87l1.85.68c2.14.44 3.58 2.32 3.45 4.48 0 3.62-2.16 5.13-5.64 5.13-2.55.3-4.88-1.53-5.17-4.1-.05-.38-.05-.7 0-1.07v-.4zM1541 1113.42c-.87.44-1.7.62-2.68.57-3.9 0-5.64-2.78-5.64-8.84 0-6.05 1.72-8.8 5.64-8.8 3.93 0 5.65 2.75 5.65 8.8.13 2.45-.3 4.54-1.35 6.72l1.74 1.84-1.63 1.45zm-1.44-4.46l1.13 1.13c.46-1.72.6-3.23.5-5 0-5.7-1.27-6.7-2.9-6.7-1.62 0-2.9 1-2.9 6.7s1.28 6.85 2.9 6.85c.35 0 .65-.05.98-.16l-1.3-1.24zM1546.33 1096.7h2.7v14.7h6.52v2.3h-9.22z" fill="#fff"/><use xlink:href="#d" transform="matrix(1,0,0,1,1444.6625395049919,1198.7061314660134) translate(6.349999999999994 14.4)"/><use xlink:href="#e" transform="matrix(1,0,0,1,1444.6625395049919,1198.7061314660134) translate(73.3 14.4)"/><use xlink:href="#f" transform="matrix(1,0,0,1,1444.6625395049919,1198.7061314660134) translate(24.025 36)"/><path d="M1384.66 923.5l4.83.1 4.64.3 4.5.46 4.33.64 4.2.8 4.1.97 4 1.1 3.9 1.28 3.83 1.42 3.75 1.58 3.7 1.74 3.63 1.9 3.58 2.06 3.54 2.25 3.5 2.44 3.48 2.64 3.44 2.84 3.4 3.07 3.4 3.3 3.34 3.58 3.32 3.84 3.28 4.15 3.25 4.47 3.2 4.8 3.13 5.18 3.06 5.56 2.95 5.96 2.84 6.4 2.7 6.83 2.53 7.27 2.32 7.72 2.1 8.14 1.8 8.54 1.5 8.9 1.17 9.2.47 5.55" stroke="#000" stroke-width="2" fill="none"/><path d="M1384.73 922.5l-.07 1.03v-1.03zM1502.03 1075.47l-5.24-14.05 9.25-.4z"/><path d="M1502.16 1078.7l-6.8-18.22 12.02-.5zm-3.95-16.34l3.7 9.88 2.82-10.16z"/><path d="M339 1060v39.47" stroke="#000" stroke-width="2" fill="none"/><path d="M339 1114.47l-4.64-14.27h9.28z"/><path d="M339 1117.7l-6-18.5h12zm-3.26-16.5l3.26 10.03 3.26-10.03zM394.54 1383.14l-4.22 10.6-2.62 7.5-1.7 5.66-1.16 4.46-.78 3.62-.5 3-.33 2.55-.18 2.18-.08 1.9v1.68l.06 1.47.1 1.32.16 1.2.17 1.07.2.98.24.9.26.84.27.78.3.72.3.68.3.63.33.6.35.58.37.54.38.5.4.5.4.48.43.46.45.44.48.43.5.43.36.26-1.2 1.58-.4-.3-.56-.46-.54-.48-.5-.5-.5-.52-.46-.54-.45-.56-.42-.6-.4-.6-.4-.65-.37-.67-.35-.7-.33-.77-.3-.8-.3-.85-.3-.92-.24-.98-.23-1.07-.2-1.15-.15-1.27-.12-1.4-.06-1.56v-1.75l.08-1.98.2-2.28.32-2.62.53-3.1.8-3.7 1.16-4.54 1.74-5.74 2.64-7.57 4.26-10.7 19.47-40.3h2.22zm37.7-169.24l1.96.12 1.73.18 1.54.23 1.4.26 1.24.28 1.14.32 1.04.34.96.35.88.36.82.4.77.4.72.4.68.43.63.43.6.45.57.47.54.5.5.5.5.5.46.55.45.56.42.6.4.6.4.64.37.68.35.7.33.76.3.8.3.86.3.9.24 1 .23 1.07.2 1.16.15 1.27.12 1.4.06 1.56v1.75l-.08 2-.2 2.26-.32 2.62-.53 3.1-.8 3.7-1.16 4.54-1.74 5.74-2.64 7.57-4.26 10.7-7.94 17.72-11.03 22.8h-2.22l11.45-23.65 7.9-17.65 4.23-10.62 2.62-7.5 1.7-5.65 1.16-4.46.78-3.62.5-3 .33-2.56.18-2.18.08-1.9V1236l-.06-1.47-.1-1.32-.16-1.18-.17-1.08-.2-1-.24-.9-.26-.82-.27-.78-.3-.72-.3-.68-.3-.64-.33-.6-.35-.57-.37-.54-.38-.53-.4-.5-.4-.47-.43-.46-.45-.44-.48-.43-.5-.42-.55-.4-.56-.4-.6-.38-.66-.37-.7-.36-.73-.35-.8-.35-.88-.32-.96-.32-1.05-.28-1.16-.27-1.3-.25-1.46-.22-1.64-.17-1.88-.1-2.18-.05.04-2z"/><path d="M430.2 1213.87l-.4 1.96-.8-.16v-2.03zM403.37 1446.6l-14.98.88 2.34-8.97z"/><path d="M406.5 1447.43l-19.42 1.13 3.04-11.63zm-16.8-1.03l10.54-.6-8.88-5.7z"/><use xlink:href="#g" transform="matrix(1,0,0,1,376.0041612609385,1320.4587662396164) translate(0 14.4)"/><path d="M600 1540h120v78H600v-78z" fill="#876929"/><path d="M600 1540h120v72.67H600z" fill="#d9a741"/><path d="M633.3 1549.78h12.78v54.8H633.3v-54.8zM653.6 1549.78h12.78v54.8H653.6v-54.8zM673.9 1549.78h12.78v54.8H673.9v-54.8zM614.8 1565.3v23.77l10.96-11.9-10.95-11.87zM694.2 1565.3v23.77l10.97-11.9-10.96-11.87z" fill="#fff"/><use xlink:href="#h" transform="matrix(1,0,0,1,600,1618) translate(-96.74999999999997 14.4)"/><path d="M530.5 1455.52l10.52.22 10.18.64 9.64 1 9 1.34 8.3 1.58 7.62 1.78 6.94 1.94 6.3 2.04 5.72 2.13 5.2 2.17 4.72 2.22 4.3 2.23 3.9 2.26 3.58 2.26 3.27 2.27 2.98 2.27 2.75 2.28 2.53 2.27 2.33 2.3 2.14 2.27 2 2.3 1.82 2.32 1.7 2.33 1.56 2.35 1.44 2.38 1.33 2.42 1.2 2.45 1.12 2.5 1 2.56.92 2.62.82 2.7.5 1.98" stroke="#ccc" stroke-width="2" fill="none"/><path d="M530.54 1454.52l-.04 1.05v-1.05zM659.62 1536.8l-6.27-13.64 9.2-1.08z" fill="#ccc"/><path d="M660 1540l-8.14-17.67 11.94-1.4zm-5.17-16l4.4 9.57 2.07-10.34z" fill="#ccc"/><path d="M530.5 1455.52l145.36-2.08 59.58-3.66 42.56-4.43 33.13-4.87 26.92-5.12 22.45-5.25 19.1-5.3 16.48-5.36 14.4-5.35 12.7-5.34 11.3-5.3 10.1-5.3 9.14-5.27 8.28-5.26 7.55-5.24 6.9-5.25 6.37-5.25 5.86-5.28 5.43-5.32 5.05-5.36 4.68-5.42 4.36-5.5 4.06-5.6 3.8-5.7 3.52-5.84 3.3-6 3.05-6.16 2.84-6.36 2.6-6.6 2.4-6.87 2.16-7.17 1.93-7.5 1.68-7.9 1.4-8.35 1.12-8.86.57-6.7" stroke="#000" stroke-width="2" fill="none"/><path d="M530.52 1456.52h-.02v-1.47zM1047.3 1248.87l-9.28-.36 5.2-14.06z"/><path d="M1048.62 1249.93l-12-.47 6.7-18.25zm-9.18-2.36l6.5.25-2.86-10.15z"/><path d="M1059.92 1044.04l-2.87 6.82-2.58 6.95-2.3 7.1-2.02 7.22-1.73 7.37-1.43 7.53-1.15 7.7-.83 7.9-.5 8.12-.2 8.36-2-.03.2-8.4.5-8.2.84-7.98 1.15-7.8 1.47-7.63 1.74-7.45 2.05-7.3 2.33-7.17 2.6-7.02 2.92-6.9 2.06-4.4h2.2zm186.6-118.9l-9.66.8-10.84 1.38-10.63 1.8-10.4 2.2-10.14 2.6-9.85 2.98-9.53 3.32-9.22 3.65-8.88 3.95-8.53 4.24-8.17 4.5-7.8 4.72-7.45 4.94-7.08 5.14-6.7 5.32-6.36 5.48-6 5.64-5.66 5.77-5.32 5.9-4.98 6.03-4.67 6.14-3.88 5.6h-2.4l.27-.45 4.4-6.33 4.7-6.2 5.05-6.1 5.36-5.97 5.72-5.83 6.06-5.7 6.42-5.53 6.77-5.38 7.15-5.18 7.5-5 7.9-4.76 8.23-4.54 8.6-4.27 8.97-3.97 9.3-3.68 9.62-3.35 9.92-3 10.22-2.62 10.48-2.23 10.7-1.8 10.93-1.4 9.7-.8z" fill="#ccc"/><path d="M1044.33 1119.13l-.04.97h-2l.03-1.05zM1261.43 923.6l-14.1 5.15-.32-9.27z" fill="#ccc"/><path d="M1264.66 923.5l-18.28 6.66-.42-12.02zm-16.37 3.84l9.9-3.6-10.14-2.9z" fill="#ccc"/><use xlink:href="#i" transform="matrix(1,0,0,1,1043.5114653648056,1017.2289570175542) translate(0 14.4)"/><path d="M520 580h160v64H520z" stroke="#000" stroke-width="2" fill="#fff"/><use xlink:href="#j" transform="matrix(1,0,0,1,525,585) translate(56.525 30.6)"/><path d="M541.5 900h160v48h-160z" stroke="#000" stroke-width="2" fill="#fff"/><use xlink:href="#k" transform="matrix(1,0,0,1,546.5,905) translate(58.525 22.6)"/><path d="M600.36 663.24l.38 19.92 1.7 27.35 2.46 23.43 5.5 36.06 6.2 40.07 2.46 23.42 1.7 27.34.74 38.16" stroke="#000" stroke-width="2" fill="none"/><path d="M604.98 662.4l-9.27.2 4.36-14.36z"/><path d="M606.37 663.38l-12.02.24L600 645zm-9.3-1.8l6.5-.14-3.44-9.97zM622.52 900h-2l-.02-.98 2-.04z"/><path d="M690.12 905.15l6.54 6.18 6.47 5.62 6.42 5.12 6.4 4.67 6.4 4.28 6.44 3.92 6.48 3.6 6.6 3.3 6.7 3 6.86 2.73 7.06 2.48 7.3 2.23 7.6 1.97 7.94 1.7 8.37 1.45 8.9 1.14 9.5.82 10.25.45 11.2.04 12.43-.5 14-1.14 16.2-2 19.42-3.26 24.82-5.23 6.94-1.77V948l-6.5 1.66-24.9 5.25-19.5 3.27-16.27 2.02-14.1 1.14-12.5.5-11.3-.03-10.34-.44-9.58-.83-8.97-1.16-8.44-1.45-8.02-1.72-7.68-2-7.38-2.24-7.14-2.5-6.94-2.78-6.8-3.04-6.65-3.33-6.57-3.63-6.5-3.96-6.48-4.32-6.46-4.72-6.5-5.17-6.52-5.68-6.6-6.24-6.7-6.88 1.43-1.4zm574.04-32.93l15.2.68 14.37 1.24 13.1 1.7-.25 1.97-13.06-1.67-14.3-1.24-15.1-.68-16.14-.04-17.43.7-19.14 1.56-21.45 2.66-24.85 4.15-30.4 6.4-160.5 45.87v-2.08l160-45.73 30.53-6.42 24.93-4.16 21.54-2.67 19.22-1.57 17.52-.7z" fill="#ccc"/><path fill="#ccc"/><path d="M1321.48 879.44l-4.04.56h-10.55l1.34-7.62z" fill="#ccc"/><path d="M1324.66 880h-14.45l8.1-1.13-9.32-4.96-1.08 6.1h-2.03l1.62-9.15z" fill="#ccc"/><use xlink:href="#i" transform="matrix(1,0,0,1,927.3588810096878,930.1694307323838) translate(0 14.4)"/><path d="M801.9 1137.57h1.4l-6.1 2.27-14.8 4.8-16.32 4.56-18.42 4.3-21.37 4.07-25.83 3.8-33.28 3.46-48.8 3L430 1169.7l-.02-2 188.32-1.88 48.7-2.98 33.2-3.46 25.74-3.78 21.3-4.05 18.32-4.3 16.25-4.52 14.72-4.78 5.34-1.98zm117.26-72.7l-19.32 16.66-14 11.07-11.6 8.4-4.82 3.26-10.94 6.94-8.26 4.77h-4.02l.1-.05 11.14-6.43 10.88-6.9 4.77-3.24 11.53-8.36 13.93-11 19.27-16.62 74.65-68.43h2.96zm327.3-183.3l-7.27.3-16.44 1.33-15.62 1.94-14.96 2.5-14.4 3.02-13.97 3.55-13.62 4.1-13.4 4.6-13.26 5.23-13.24 5.86-13.35 6.58-13.6 7.44-14.07 8.48-14.83 9.8-16.1 11.66-18.35 14.5-.98.9h-2.96l2.64-2.43 18.45-14.57 16.16-11.7 14.9-9.85 14.13-8.52 13.68-7.48 13.43-6.62 13.32-5.9 13.34-5.24 13.46-4.66 13.7-4.1 14.06-3.57 14.5-3.04 15.03-2.5 15.7-1.95 16.52-1.33 7.33-.3z" fill="#ccc"/><path d="M430.02 1169.7l-1.02.02v-2h1zM1261.43 880.2l-14.14 5-.25-9.27z" fill="#ccc"/><path d="M1264.66 880.1l-18.34 6.5-.3-12.02zm-16.4 3.7l9.93-3.53-10.12-3z" fill="#ccc"/><use xlink:href="#l" transform="matrix(1,0,0,1,801.887956939226,1115.9736163673151) translate(0 14.4)"/><use xlink:href="#m" transform="matrix(1,0,0,1,983.2645982680691,973.352607045225) translate(0 14.4)"/><path d="M180 850c0-16.57 13.43-30 30-30h1340c16.57 0 30 13.43 30 30v980c0 16.57-13.43 30-30 30H210c-16.57 0-30-13.43-30-30z" fill="none"/><path d="M188.1 829.67l1.5-1.64m9.46-5.9l3.86-1.3 4.93-.75L210 820h15.2m15.2 0h3.02m15.2 0H289m15.2 0h3.03m15.2 0h30.38m15.2 0h3.04m15.2 0h30.38m15.2 0h3.03m15.2 0h30.38m15.2 0h3.03m15.2 0h30.38m15.2 0h3.03m15.2 0h30.38m15.2 0h3.03m15.2 0h30.38m15.2 0h3.03m15.18 0h30.4m15.18 0h3.04m15.2 0h30.38m15.2 0h3.03m15.2 0h30.4m15.18 0h3.04m15.2 0h30.38m15.2 0h3.03m15.2 0h30.38m15.2 0h3.04m15.2 0h30.38m15.2 0h3.03m15.2 0h30.38m15.2 0h3.03m15.2 0h30.38m15.2 0h3.03m15.2 0h30.38m15.2 0h3.03m15.2 0h30.37m15.2 0h3.04m15.18 0h30.38m15.2 0h3.04m15.2 0h30.37m15.2 0h3.03m15.2 0h30.38m15.2 0h3.03m15.2 0h15.2l5 .42 4.82 1.22 1.1.5m9.4 5.95l1.65 1.5m5.9 9.46l1.3 3.86.75 4.93.08 2.15v14.58m0 14.6v2.9m0 14.6v29.15m0 14.6v2.9m0 14.6v29.15m0 14.6v2.9m0 14.6v29.15m0 14.6v2.9m0 14.6v29.15m0 14.6v2.9m0 14.6v29.15m0 14.6v2.9m0 14.6v29.15m0 14.6v2.9m0 14.6v29.15m0 14.6v2.9m0 14.6v29.15m0 14.6v2.9m0 14.6v29.15m0 14.6v2.9m0 14.6v29.15m0 14.6v2.9m0 14.6v29.15m0 14.6v2.9m0 14.6v29.15m0 14.6v2.9m0 14.6v29.15m0 14.6v2.9m0 14.6v29.15m0 14.6v2.9m0 14.6v29.15m0 14.6v2.9m0 14.6V1830l-.42 5-1.22 4.82-.5 1.1m-5.95 9.4l-1.5 1.65m-9.46 5.9l-3.86 1.3-4.93.75-2.15.08h-15.2m-15.2 0h-3.02m-15.2 0H1471m-15.2 0h-3.03m-15.2 0h-30.38m-15.2 0h-3.04m-15.2 0h-30.38m-15.2 0h-3.03m-15.2 0h-30.38m-15.2 0h-3.03m-15.2 0h-30.38m-15.2 0h-3.03m-15.2 0h-30.38m-15.2 0h-3.03m-15.2 0h-30.38m-15.2 0h-3.03m-15.18 0h-30.4m-15.18 0h-3.04m-15.2 0h-30.38m-15.2 0h-3.03m-15.2 0h-30.4m-15.18 0h-3.04m-15.2 0H832.9m-15.2 0h-3.03m-15.2 0H769.1m-15.2 0h-3.04m-15.2 0H705.3m-15.2 0h-3.03m-15.2 0h-30.38m-15.2 0h-3.03m-15.2 0h-30.38m-15.2 0h-3.03m-15.2 0h-30.38m-15.2 0h-3.03m-15.2 0h-30.37m-15.2 0h-3.04m-15.18 0h-30.38m-15.2 0H368m-15.2 0h-30.37m-15.2 0h-3.03m-15.2 0h-30.38m-15.2 0h-3.03m-15.2 0H210l-5-.42-4.82-1.22-1.1-.5m-9.4-5.95l-1.65-1.5m-5.9-9.46l-1.3-3.86-.75-4.93-.08-2.15v-14.58m0-14.6v-2.9m0-14.6v-29.15m0-14.6v-2.9m0-14.6v-29.15m0-14.6v-2.9m0-14.6v-29.15m0-14.6v-2.9m0-14.6v-29.15m0-14.6v-2.9m0-14.6v-29.15m0-14.6v-2.9m0-14.6v-29.15m0-14.6v-2.9m0-14.6v-29.15m0-14.6v-2.9m0-14.6v-29.15m0-14.6v-2.9m0-14.6v-29.15m0-14.6v-2.9m0-14.6v-29.15m0-14.6v-2.9m0-14.6v-29.15m0-14.6v-2.9m0-14.6v-29.15m0-14.6v-2.9m0-14.6v-29.15m0-14.6v-2.9m0-14.6v-29.15m0-14.6v-2.9m0-14.6v-29.15m0-14.6v-2.9m0-14.6V850l.42-5 1.22-4.82.5-1.1" stroke="#474747" stroke-width="3" fill="none"/><use xlink:href="#n" transform="matrix(1,0,0,1,180,1830) translate(643.075 12.799999999999999)"/><use xlink:href="#o" transform="matrix(1,0,0,1,180,1830) translate(697.0250000000001 12.799999999999999)"/><path d="M388.5 947.5l-24.05-.98-15.57.97 25.7 35.1 13.9-35.1z" fill="#fad791"/><path d="M388.5 932.98l-24.05.97-15.57-.97 25.7-35.1 13.9 35.1zM289.5 932.9l24.04 1.05 15.57-1-25.7-34.9-13.9 34.86z" fill="#624a1e"/><path d="M289.5 947.5l24.04-.98 15.57.97-25.7 35.14-13.9-35.15z" fill="#fad791"/><path d="M374.6 931.56l13.9 1.4v-28.1l-13.9-7v33.7z" fill="#d9a741"/><path d="M348.88 904.85l25.7-6.98v33.7l-25.7 1.4v-28.12z" fill="#876929"/><path d="M339 900.75l27.84 9.14v13.9L339 918.85v-18.1z" fill="#d9a741"/><path d="M326.46 921.16l12.76-2.26 27.62 4.9-12.36 1.36-28.02-4z" fill="#624a1e"/><path d="M303.4 931.54l-13.9 1.37v-28.2l13.9-6.87v33.7z" fill="#876929"/><path d="M329.1 904.82l-25.7-7v33.73l25.7 1.4v-28.13z" fill="#d9a741"/><path d="M339 900.75l-27.85 9.14v13.9l27.84-4.94v-18.1z" fill="#876929"/><path d="M351.53 921.16l-12.76-2.26-27.62 4.9 12.36 1.36 28.03-4z" fill="#624a1e"/><path d="M374.6 948.9l13.9-1.4v28.12l-13.9 6.98v-33.7z" fill="#d9a741"/><path d="M348.88 975.62l25.7 6.98v-33.7l-25.7-1.4v28.12z" fill="#876929"/><path d="M339 979.7l27.84-9.14v-13.9L339 961.6v18.1z" fill="#d9a741"/><path d="M326.46 959.3l12.76 2.24 27.62-4.88-12.36-1.35-28.02 4z" fill="#fad791"/><path d="M303.4 948.9l-13.9-1.4v28.1l13.9 7.02V948.9z" fill="#876929"/><path d="M329.1 975.63l-25.7 7V948.9l25.7-1.4v28.13z" fill="#d9a741"/><path d="M339 979.7l-27.85-9.14v-13.9L339 961.6v18.1z" fill="#876929"/><path d="M351.53 959.3l-12.76 2.24-27.62-4.88 12.36-1.35 28.03 4z" fill="#fad791"/><path d="M324.2 992.56L339 1000l8.2-4.08 6.6-108.48L339 880l-14.8 7.44v105.12z" fill="#876929"/><path d="M353.8 992.56L339 1000V880l14.8 7.44v105.12z" fill="#d9a741"/><use xlink:href="#p" transform="matrix(1,0,0,1,289.5,1000) translate(16.525 14.4)"/><use xlink:href="#q" transform="matrix(1,0,0,1,289.5,1000) translate(35 36)"/><use xlink:href="#r" transform="matrix(1,0,0,1,289.5,1000) translate(14.024999999999999 57.6)"/><path d="M215 860h248v400H215z" stroke="#000" stroke-width="2" fill="#d1bcd2" fill-opacity=".3"/><use xlink:href="#s" transform="matrix(1,0,0,1,220,865) translate(73.55 382.79999999999995)"/><use xlink:href="#t" transform="matrix(1,0,0,1,220,865) translate(134.45 382.79999999999995)"/><path d="M249 1118.7h180v100H249z" stroke="#000" stroke-width="2" fill="#ffbbb1"/><use xlink:href="#n" transform="matrix(1,0,0,1,254,1123.7061314660136) translate(43.525 48.6)"/><use xlink:href="#u" transform="matrix(1,0,0,1,254,1123.7061314660136) translate(97.475 48.6)"/><path d="M271.5 1191.43h135v27.28h-135z" stroke="#000" stroke-opacity="0" stroke-width="2" fill="#ffbbb1"/><use xlink:href="#v" transform="matrix(1,0,0,1,276.5,1196.4334041932862) translate(-12.824999999999989 14.4)"/><path d="M443.5 1124.4c0 12.45-12.32 22.55-27.5 22.55s-27.5-10.1-27.5-22.55c0-12.45 12.32-22.55 27.5-22.55s27.5 10.1 27.5 22.55z" fill="#9d5025"/><path d="M388.5 1122.55h55v1.85h-55v-1.85z" fill="#9d5025"/><path d="M443.5 1122.55c0 12.45-12.32 22.55-27.5 22.55s-27.5-10.1-27.5-22.55c0-12.45 12.32-22.55 27.5-22.55s27.5 10.1 27.5 22.55z" fill="#f58536"/><path d="M433.9 1133.64l-2.16-4.62-4.76 1.5-6.8-14.64-1.9-4.04-.9-1.92-1.4-3H406.95v4.92h4.9l1.73 3.65-14.23 20.74h6.88l10.12-14.8 7.18 15.43 1.73-.54 3.87-1.2 4.77-1.5z" fill="#fff"/><path d="M339 840.76V780" stroke="#000" stroke-width="2" fill="none"/><path d="M339 855.76l-4.64-14.26h9.28z"/><path d="M339 859l-6-18.5h12zm-3.26-16.5l3.26 10.03 3.26-10.03z"/><path/><path d="M966.94 1120.1h152.78v97.22H966.94z" stroke="#000" stroke-width="2" fill="#ffbbb1"/><use xlink:href="#w" transform="matrix(1,0,0,1,971.9444041736471,1125.0953022504843) translate(30.025 36.8)"/><use xlink:href="#x" transform="matrix(1,0,0,1,971.9444041736471,1125.0953022504843) translate(75.025 36.8)"/><use xlink:href="#y" transform="matrix(1,0,0,1,971.9444041736471,1125.0953022504843) translate(39.025 58.4)"/><path d="M1134.73 1126.05c0 10.13-9.6 18.35-21.4 18.35-11.8 0-21.4-8.22-21.4-18.35 0-10.12 9.6-18.34 21.4-18.34 11.8 0 21.4 8.23 21.4 18.35z" fill="#9d5025"/><path d="M1091.94 1124.55h42.8v1.5h-42.8v-1.5z" fill="#9d5025"/><path d="M1134.73 1124.55c0 10.12-9.6 18.34-21.4 18.34-11.8 0-21.4-8.23-21.4-18.35 0-10.13 9.6-18.34 21.4-18.34 11.8 0 21.4 8.22 21.4 18.35z" fill="#f58536"/><path d="M1127.25 1133.57l-1.67-3.75-3.7 1.2-5.3-11.9-1.48-3.3-.7-1.54-1.07-2.44h-7.04v4h3.8l1.35 2.97-11.07 16.9h5.34l7.88-12.05 5.6 12.55 1.33-.44 3-.98 3.72-1.2z" fill="#fff"/><path d="M960 1189.54h166.67v41.67H960z" stroke="#000" stroke-opacity="0" stroke-width="2" fill="#fff" fill-opacity="0"/><use xlink:href="#z" transform="matrix(1,0,0,1,965,1194.539343986955) translate(12.625 19.6)"/><path d="M528.54 910.2l-1.44 1.4-91.18-94.26h2.8zM417.8 795.74h-2.77l-42.7-44.13 1.44-1.38zM538.25 921.67L525 914.64l6.66-6.44z"/><path d="M540.5 924l-17.2-9.12 8.66-8.36zm-13.82-9.6l9.32 4.95-4.63-9.48zM373.77 750.22l-1.44 1.4-2.08-2.17 1.43-1.4z"/><use xlink:href="#A" transform="matrix(1,0,0,1,412.8914809131253,795.7421076719555) translate(0 14.4)"/><path d="M600 645l.24 11.53.64 10.28.98 9.33 1.26 8.54 1.5 7.95 1.77 7.5 2 7.16 2.25 6.96 2.56 6.9 2.95 6.97 3.44 7.32 4.22 8.1 5.85 10.08 29.23 46.9 4.24 8.08 3.44 7.3 2.94 7 2.56 6.88 2.26 6.96 2 7.16 1.76 7.5 1.5 7.95 1.27 8.54.98 9.32.22 3.58" stroke="#000" stroke-width="2" fill="none"/><path d="M601 644.97l-2 .06-.03-1.03h2zM682.6 895.77l-5.13-14.1 9.26-.33z"/><path d="M682.73 899l-6.67-18.27 12-.44zm-3.85-16.37l3.62 9.9 2.9-10.14z"/><path d="M289.5 1750.35h124v59.3h-124v-59.3z" fill="#876929"/><path d="M289.5 1750.35h124v55.25h-124z" fill="#d9a741"/><path d="M323.9 1757.8h13.22v41.65h-13.2v-41.66zM344.9 1757.8h13.2v41.65h-13.2v-41.66zM365.86 1757.8h13.2v41.65h-13.2v-41.66zM304.8 1769.58v18.07l11.32-9.03-11.32-9.04zM386.85 1769.58v18.07l11.32-9.03-11.32-9.04z" fill="#fff"/><use xlink:href="#B" transform="matrix(1,0,0,1,289.5,1809.6469342669932) translate(-57.79999999999998 14.4)"/><path d="M413.5 1790l2.67-.06 2.58-.16 2.5-.26 2.44-.36 2.38-.46 2.34-.55 2.32-.64 2.3-.74 2.28-.85 2.3-.95 2.28-1.08 2.3-1.2 2.35-1.36 2.38-1.5 2.44-1.7 2.5-1.9 2.6-2.14 2.7-2.43 2.82-2.77 2.98-3.2 3.2-3.7 3.45-4.37 3.82-5.26 4.3-6.5 5.1-8.4 6.5-11.87 11.52-23.45 23.3-48.7 6.5-11.86 5.07-8.4 4.3-6.5 3.83-5.25 3.46-4.36 3.2-3.7 2.98-3.2 2.84-2.77 2.7-2.43 2.6-2.14 2.5-1.9 2.43-1.7 2.38-1.5 2.34-1.36 2.3-1.2 2.3-1.1 2.28-.95 2.28-.86 1.58-.5" stroke="#ccc" stroke-width="2" fill="none"/><path d="M413.63 1791h-.13V1790zM596.8 1589.5l-13.4 6.7-1.4-9.16z" fill="#ccc"/><path d="M600 1589l-17.4 8.72-1.8-11.9zm-15.83 5.7l9.43-4.73-10.4-1.7z" fill="#ccc"/><path d="M196.7 1596.97l-5.52 28.72-3.05 20.5-1.68 15.8-.8 12.76-.24 10.6.2 9 .48 7.77.7 6.8.9 6.03 1.03 5.4 1.15 4.85 1.23 4.43 1.3 4.05 1.4 3.72 1.45 3.45 1.5 3.22 1.58 3 1.64 2.83 1.7 2.66 1.74 2.52 1.82 2.4 1.9 2.28 1.96 2.18 2.04 2.1 2.14 2 2.24 1.94 2.36 1.87 2.48 1.8 2.62 1.74 2.77 1.67 2.97 1.62 3.16 1.56 3.4 1.5 3.64 1.45 3.96 1.4 4.3 1.3 4.74 1.2 5.2 1.1 5.78.98 6.47.82 2.05.17-.16 2-2.1-.18-6.54-.84-5.86-1-5.3-1.1-4.8-1.24-4.4-1.33-4.03-1.4-3.73-1.5-3.47-1.53-3.23-1.6-3.03-1.67-2.84-1.72-2.68-1.8-2.55-1.84-2.42-1.92-2.3-2-2.2-2.05-2.1-2.16-2.02-2.23-1.95-2.35-1.87-2.46-1.8-2.6-1.73-2.73-1.67-2.9-1.6-3.07-1.56-3.3-1.48-3.52-1.42-3.8-1.34-4.13-1.25-4.5-1.15-4.94-1.04-5.47-.9-6.12-.7-6.9-.5-7.84-.2-9.08.24-10.7.82-12.83 1.7-15.9 3.05-20.58 5.55-28.82 13.05-49.88h2.06zm80.12-377.24l-.35 16.4-1.2 19.14-2.43 22.85-4.2 28.32-7.2 37.5-14.06 59.28-31.87 121.83h-2.05l32-122.3 14.03-59.24 7.18-37.4 4.2-28.23 2.4-22.77 1.2-19.05.36-16.36zM276.82 1219.73l-2-.04.02-1h2zM286.27 1789.85l-14.47 3.98.43-9.26z"/><path d="M289.5 1790l-18.76 5.16.55-12zm-16.63 2.5l10.16-2.8-9.87-3.7z"/><use xlink:href="#C" transform="matrix(1,0,0,1,133.8052496902951,1525.046067297332) translate(0 14.4)"/><path d="M1260 1453.9h220.2V1575H1260z" stroke="#000" stroke-width="2" fill="#ffbbb1"/><use xlink:href="#D" transform="matrix(1,0,0,1,1265,1458.8888083472941) translate(23.549999999999997 59.6)"/><use xlink:href="#E" transform="matrix(1,0,0,1,1265,1458.8888083472941) translate(68.55 59.6)"/><use xlink:href="#y" transform="matrix(1,0,0,1,1265,1458.8888083472941) translate(122.5 59.6)"/><path d="M1454.92 1459.85c0 10.12-9.58 18.34-21.4 18.34-11.8 0-21.38-8.23-21.38-18.35 0-10.13 9.58-18.35 21.4-18.35 11.8 0 21.38 8.22 21.38 18.35z" fill="#9d5025"/><path d="M1412.14 1458.34h42.78v1.5h-42.78v-1.5z" fill="#9d5025"/><path d="M1454.92 1458.34c0 10.13-9.58 18.35-21.4 18.35-11.8 0-21.38-8.23-21.38-18.36 0-10.12 9.58-18.34 21.4-18.34 11.8 0 21.38 8.22 21.38 18.34z" fill="#f58536"/><path d="M1447.45 1467.36l-1.67-3.75-3.7 1.23-5.3-11.9-1.48-3.3-.7-1.56-1.07-2.44h-7.05v4h3.82l1.34 2.97-11.07 16.88h5.35l7.87-12.03 5.58 12.54 1.35-.45 3-.97 3.72-1.22z" fill="#fff"/><path d="M1280.2 1523.33h166.66V1565H1280.2z" stroke="#000" stroke-opacity="0" stroke-width="2" fill="#fff" fill-opacity="0"/><use xlink:href="#F" transform="matrix(1,0,0,1,1285.1968905978572,1528.3328500837647) translate(-23.799999999999983 19.6)"/><path d="M413.5 1790l38.35-.8 34.22-2.13 31-3.25 28.43-4.2 26.45-5.03 24.93-5.85 23.85-6.66 23.16-7.54 22.9-8.52 23.23-9.77 24.32-11.45 26.9-14.08 33.5-19.4 156.5-97.64 26.9-14.08 24.32-11.45 23.22-9.76 22.9-8.52 23.17-7.53 23.85-6.65 24.93-5.85 26.45-5.04 28.44-4.18 31-3.25 34.2-2.14 20.13-.4" stroke="#000" stroke-width="2" fill="none"/><path d="M413.53 1791h-.03v-1.62zM1255.76 1514.5l-14.16 4.94-.2-9.27z"/><path d="M1259 1514.44l-18.37 6.4-.25-12.03zm-16.43 3.6l9.96-3.46-10.1-3.05z"/><path d="M1278 1725.42l57.98 8.62v5.1c0 7.53-25.98 13.63-58 13.63-32 0-57.98-6.1-57.98-13.64v-5.53z" fill="#8c3123"/><path d="M1278.02 1762.13c24.2 0 44.93-3.54 53.58-8.5l2.88-4.78 1.15-4.4v5.45l-19 81c0 5.08-17.3 9.1-38.6 9.1-21.33 0-38.6-4.02-38.6-9.1l-19.02-81v-5.35l4.38 9.27c8.76 4.87 29.27 8.3 53.24 8.3z" fill="#8c3123"/><path d="M1278 1720c32 0 58 6.12 58 13.62 0 7.5-26 13.57-58 13.57s-58-6.02-58-13.58c0-7.56 26-13.62 58-13.62z" fill="#e05243"/><path d="M1278 1756.6c29.84 0 54.4-5.2 57.62-12.06l-19.02 81c0 5.05-17.3 9.1-38.6 9.1-21.33 0-38.6-4.05-38.6-9.1l-19.03-81c3.23 6.85 27.78 12.07 57.62 12.07z" fill="#e05243"/><g><use xlink:href="#G" transform="matrix(1,0,0,1,1220,1840) translate(-47.349999999999994 14.4)"/></g><path d="M1370.1 1576l-.07 3.43-.2 3.23-.33 3.07-.43 2.92-.53 2.8-.64 2.72-.73 2.63-.84 2.57-.94 2.53-1.06 2.5-1.17 2.48-1.3 2.5-1.45 2.5-1.62 2.55-1.82 2.62-2.08 2.73-2.4 2.9-2.8 3.1-3.4 3.46-4.34 4.1-6.4 5.5-29.42 23.84-4.36 4.08-3.4 3.46-2.8 3.1-2.38 2.9-2.08 2.73-1.82 2.62-1.62 2.55-1.45 2.5-1.3 2.5-1.17 2.48-1.05 2.5-.93 2.53-.84 2.57-.73 2.63-.03.1" stroke="#000" stroke-width="2" fill="none"/><path d="M1371.1 1576.1l-2-.2.1-.9h2zM1284.7 1703.18l-6.3 13.6-2.9-14.7z"/><path d="M1286.18 1702.35L1278 1720l-3.76-19.1zm-7.4 11.22l4.43-9.56-6.46-.77z"/><path d="M1301.36 1135.43l35.64 100.54 9.1 27.9 6.36 22.72 5.13 21.83 4.28 22.53 3.6 24.38 2.86 27.37 1.98 31.84.78 38.32-2 .04-.78-38.27-1.98-31.75-2.85-27.3-3.6-24.28-4.27-22.46-5.1-21.75-6.34-22.66-9.1-27.83-35.65-100.57-.57-2.04h2.08zm-24.12-150.17l1.97 31.74 2.87 27.3 3.58 24.28 4.28 22.46 5 21.35h-2.05l-4.9-20.95-4.3-22.53-3.6-24.38-2.86-27.37-1.98-31.83-.4-20.1 2-.03zM1371.12 1453.9h-2l-.02-1 2-.04zM1280.45 964.4l-9.27.2 4.35-14.37z" fill="#ccc"/><path d="M1281.85 965.37l-12.03.24 5.64-18.6zm-9.3-1.8l6.5-.14-3.46-9.97z" fill="#ccc"/><g><use xlink:href="#m" transform="matrix(1,0,0,1,1274.4253957386989,1112.3864792395423) translate(0 14.4)"/></g><defs><path d="M212-179c-10-28-35-45-73-45-59 0-87 40-87 99 0 60 29 101 89 101 43 0 62-24 78-52l27 14C228-24 195 4 139 4 59 4 22-46 18-125c-6-104 99-153 187-111 19 9 31 26 39 46" id="H"/><path d="M24 0v-261h32V0H24" id="I"/><path d="M24-231v-30h32v30H24zM24 0v-190h32V0H24" id="J"/><path d="M100-194c63 0 86 42 84 106H49c0 40 14 67 53 68 26 1 43-12 49-29l28 8c-11 28-37 45-77 45C44 4 14-33 15-96c1-61 26-98 85-98zm52 81c6-60-76-77-97-28-3 7-6 17-6 28h103" id="K"/><path d="M117-194c89-4 53 116 60 194h-32v-121c0-31-8-49-39-48C34-167 62-67 57 0H25l-1-190h30c1 10-1 24 2 32 11-22 29-35 61-36" id="L"/><path d="M59-47c-2 24 18 29 38 22v24C64 9 27 4 27-40v-127H5v-23h24l9-43h21v43h35v23H59v120" id="M"/><g id="a"><use transform="matrix(0.05,0,0,0.05,0,0)" xlink:href="#H"/><use transform="matrix(0.05,0,0,0.05,12.950000000000001,0)" xlink:href="#I"/><use transform="matrix(0.05,0,0,0.05,16.900000000000002,0)" xlink:href="#J"/><use transform="matrix(0.05,0,0,0.05,20.85,0)" xlink:href="#K"/><use transform="matrix(0.05,0,0,0.05,30.85,0)" xlink:href="#L"/><use transform="matrix(0.05,0,0,0.05,40.85,0)" xlink:href="#M"/></g><path d="M85-194c31 0 48 13 60 33l-1-100h32l1 261h-30c-2-10 0-23-3-31C134-8 116 4 85 4 32 4 16-35 15-94c0-66 23-100 70-100zm9 24c-40 0-46 34-46 75 0 40 6 74 45 74 42 0 51-32 51-76 0-42-9-74-50-73" id="N"/><path d="M96-169c-40 0-48 33-48 73s9 75 48 75c24 0 41-14 43-38l32 2c-6 37-31 61-74 61-59 0-76-41-82-99-10-93 101-131 147-64 4 7 5 14 7 22l-32 3c-4-21-16-35-41-35" id="O"/><path d="M115-194c55 1 70 41 70 98S169 2 115 4C84 4 66-9 55-30l1 105H24l-1-265h31l2 30c10-21 28-34 59-34zm-8 174c40 0 45-34 45-75s-6-73-45-74c-42 0-51 32-51 76 0 43 10 73 51 73" id="P"/><path d="M16-82v-28h88v28H16" id="Q"/><path d="M145-31C134-9 116 4 85 4 32 4 16-35 15-94c0-59 17-99 70-100 32-1 48 14 60 33 0-11-1-24 2-32h30l-1 268h-32zM93-21c41 0 51-33 51-76s-8-73-50-73c-40 0-46 35-46 75s5 74 45 74" id="R"/><path d="M84 4C-5 8 30-112 23-190h32v120c0 31 7 50 39 49 72-2 45-101 50-169h31l1 190h-30c-1-10 1-25-2-33-11 22-28 36-60 37" id="S"/><path d="M114-163C36-179 61-72 57 0H25l-1-190h30c1 12-1 29 2 39 6-27 23-49 58-41v29" id="T"/><path d="M179-190L93 31C79 59 56 82 12 73V49c39 6 53-20 64-50L1-190h34L92-34l54-156h33" id="U"/><path d="M141-36C126-15 110 5 73 4 37 3 15-17 15-53c-1-64 63-63 125-63 3-35-9-54-41-54-24 1-41 7-42 31l-33-3c5-37 33-52 76-52 45 0 72 20 72 64v82c-1 20 7 32 28 27v20c-31 9-61-2-59-35zM48-53c0 20 12 33 32 33 41-3 63-29 60-74-43 2-92-5-92 41" id="V"/><path d="M80-196l47-18 7 23-49 13 32 44-20 13-27-46-27 45-21-12 33-44-49-13 8-23 47 19-2-53h23" id="W"/><g id="b"><use transform="matrix(0.05,0,0,0.05,0,0)" xlink:href="#N"/><use transform="matrix(0.05,0,0,0.05,10,0)" xlink:href="#O"/><use transform="matrix(0.05,0,0,0.05,19,0)" xlink:href="#P"/><use transform="matrix(0.05,0,0,0.05,29,0)" xlink:href="#Q"/><use transform="matrix(0.05,0,0,0.05,34.95,0)" xlink:href="#R"/><use transform="matrix(0.05,0,0,0.05,44.95,0)" xlink:href="#S"/><use transform="matrix(0.05,0,0,0.05,54.95,0)" xlink:href="#K"/><use transform="matrix(0.05,0,0,0.05,64.95,0)" xlink:href="#T"/><use transform="matrix(0.05,0,0,0.05,70.9,0)" xlink:href="#U"/><use transform="matrix(0.05,0,0,0.05,79.9,0)" xlink:href="#Q"/><use transform="matrix(0.05,0,0,0.05,85.85000000000001,0)" xlink:href="#N"/><use transform="matrix(0.05,0,0,0.05,95.85000000000001,0)" xlink:href="#V"/><use transform="matrix(0.05,0,0,0.05,105.85000000000001,0)" xlink:href="#M"/><use transform="matrix(0.05,0,0,0.05,110.85000000000001,0)" xlink:href="#V"/><use transform="matrix(0.05,0,0,0.05,120.85000000000001,0)" xlink:href="#Q"/><use transform="matrix(0.05,0,0,0.05,126.80000000000001,0)" xlink:href="#J"/><use transform="matrix(0.05,0,0,0.05,130.75,0)" xlink:href="#L"/><use transform="matrix(0.05,0,0,0.05,140.75,0)" xlink:href="#P"/><use transform="matrix(0.05,0,0,0.05,150.75,0)" xlink:href="#S"/><use transform="matrix(0.05,0,0,0.05,160.75,0)" xlink:href="#M"/><use transform="matrix(0.05,0,0,0.05,165.75,0)" xlink:href="#Q"/><use transform="matrix(0.05,0,0,0.05,171.7,0)" xlink:href="#R"/><use transform="matrix(0.05,0,0,0.05,181.7,0)" xlink:href="#S"/><use transform="matrix(0.05,0,0,0.05,191.7,0)" xlink:href="#K"/><use transform="matrix(0.05,0,0,0.05,201.7,0)" xlink:href="#S"/><use transform="matrix(0.05,0,0,0.05,211.69999999999996,0)" xlink:href="#K"/><use transform="matrix(0.05,0,0,0.05,221.69999999999996,0)" xlink:href="#Q"/><use transform="matrix(0.05,0,0,0.05,227.64999999999998,0)" xlink:href="#W"/></g><path d="M177-190C167-65 218 103 67 71c-23-6-38-20-44-43l32-5c15 47 100 32 89-28v-30C133-14 115 1 83 1 29 1 15-40 15-95c0-56 16-97 71-98 29-1 48 16 59 35 1-10 0-23 2-32h30zM94-22c36 0 50-32 50-73 0-42-14-75-50-75-39 0-46 34-46 75s6 73 46 73" id="X"/><path d="M115-194c53 0 69 39 70 98 0 66-23 100-70 100C84 3 66-7 56-30L54 0H23l1-261h32v101c10-23 28-34 59-34zm-8 174c40 0 45-34 45-75 0-40-5-75-45-74-42 0-51 32-51 76 0 43 10 73 51 73" id="Y"/><path d="M100-194c62-1 85 37 85 99 1 63-27 99-86 99S16-35 15-95c0-66 28-99 85-99zM99-20c44 1 53-31 53-75 0-43-8-75-51-75s-53 32-53 75 10 74 51 75" id="Z"/><g id="c"><use transform="matrix(0.04938271604938272,0,0,0.04938271604938272,0,0)" xlink:href="#P"/><use transform="matrix(0.04938271604938272,0,0,0.04938271604938272,9.876543209876544,0)" xlink:href="#X"/><use transform="matrix(0.04938271604938272,0,0,0.04938271604938272,19.75308641975309,0)" xlink:href="#Y"/><use transform="matrix(0.04938271604938272,0,0,0.04938271604938272,29.629629629629633,0)" xlink:href="#Z"/><use transform="matrix(0.04938271604938272,0,0,0.04938271604938272,39.50617283950618,0)" xlink:href="#S"/><use transform="matrix(0.04938271604938272,0,0,0.04938271604938272,49.38271604938272,0)" xlink:href="#L"/><use transform="matrix(0.04938271604938272,0,0,0.04938271604938272,59.25925925925927,0)" xlink:href="#O"/><use transform="matrix(0.04938271604938272,0,0,0.04938271604938272,68.14814814814815,0)" xlink:href="#K"/><use transform="matrix(0.04938271604938272,0,0,0.04938271604938272,78.0246913580247,0)" xlink:href="#T"/></g><path d="M30-248c87 1 191-15 191 75 0 78-77 80-158 76V0H30v-248zm33 125c57 0 124 11 124-50 0-59-68-47-124-48v98" id="aa"/><path d="M135-143c-3-34-86-38-87 0 15 53 115 12 119 90S17 21 10-45l28-5c4 36 97 45 98 0-10-56-113-15-118-90-4-57 82-63 122-42 12 7 21 19 24 35" id="ab"/><g id="d"><use transform="matrix(0.05,0,0,0.05,0,0)" xlink:href="#aa"/><use transform="matrix(0.05,0,0,0.05,12,0)" xlink:href="#Z"/><use transform="matrix(0.05,0,0,0.05,22,0)" xlink:href="#ab"/><use transform="matrix(0.05,0,0,0.05,31,0)" xlink:href="#M"/><use transform="matrix(0.05,0,0,0.05,36,0)" xlink:href="#X"/><use transform="matrix(0.05,0,0,0.05,46,0)" xlink:href="#T"/><use transform="matrix(0.05,0,0,0.05,51.95,0)" xlink:href="#K"/></g><path d="M185-189c-5-48-123-54-124 2 14 75 158 14 163 119 3 78-121 87-175 55-17-10-28-26-33-46l33-7c5 56 141 63 141-1 0-78-155-14-162-118-5-82 145-84 179-34 5 7 8 16 11 25" id="ac"/><path d="M140-251c81 0 123 46 123 126C263-53 228-8 163 1c7 30 30 48 69 40v23c-55 16-95-15-103-61C56-3 17-48 17-125c0-80 42-126 123-126zm0 227c63 0 89-41 89-101s-29-99-89-99c-61 0-89 39-89 99S79-25 140-24" id="ad"/><path d="M30 0v-248h33v221h125V0H30" id="ae"/><g id="e"><use transform="matrix(0.05,0,0,0.05,0,0)" xlink:href="#ac"/><use transform="matrix(0.05,0,0,0.05,12,0)" xlink:href="#ad"/><use transform="matrix(0.05,0,0,0.05,26,0)" xlink:href="#ae"/></g><g id="f"><use transform="matrix(0.05,0,0,0.05,0,0)" xlink:href="#J"/><use transform="matrix(0.05,0,0,0.05,3.95,0)" xlink:href="#L"/><use transform="matrix(0.05,0,0,0.05,13.949999999999998,0)" xlink:href="#ab"/><use transform="matrix(0.05,0,0,0.05,22.95,0)" xlink:href="#M"/><use transform="matrix(0.05,0,0,0.05,27.950000000000003,0)" xlink:href="#V"/><use transform="matrix(0.05,0,0,0.05,37.95,0)" xlink:href="#L"/><use transform="matrix(0.05,0,0,0.05,47.95,0)" xlink:href="#O"/><use transform="matrix(0.05,0,0,0.05,56.95,0)" xlink:href="#K"/></g><path d="M-5 72V49h209v23H-5" id="af"/><g id="g"><use transform="matrix(0.05,0,0,0.05,0,0)" xlink:href="#S"/><use transform="matrix(0.05,0,0,0.05,10,0)" xlink:href="#P"/><use transform="matrix(0.05,0,0,0.05,20,0)" xlink:href="#N"/><use transform="matrix(0.05,0,0,0.05,30,0)" xlink:href="#V"/><use transform="matrix(0.05,0,0,0.05,40,0)" xlink:href="#M"/><use transform="matrix(0.05,0,0,0.05,45,0)" xlink:href="#K"/><use transform="matrix(0.05,0,0,0.05,55,0)" xlink:href="#af"/><use transform="matrix(0.05,0,0,0.05,65,0)" xlink:href="#N"/><use transform="matrix(0.05,0,0,0.05,75,0)" xlink:href="#Y"/></g><g id="h"><use transform="matrix(0.05,0,0,0.05,0,0)" xlink:href="#N"/><use transform="matrix(0.05,0,0,0.05,10,0)" xlink:href="#O"/><use transform="matrix(0.05,0,0,0.05,19,0)" xlink:href="#P"/><use transform="matrix(0.05,0,0,0.05,29,0)" xlink:href="#Q"/><use transform="matrix(0.05,0,0,0.05,34.95,0)" xlink:href="#R"/><use transform="matrix(0.05,0,0,0.05,44.95,0)" xlink:href="#S"/><use transform="matrix(0.05,0,0,0.05,54.95,0)" xlink:href="#K"/><use transform="matrix(0.05,0,0,0.05,64.95,0)" xlink:href="#T"/><use transform="matrix(0.05,0,0,0.05,70.9,0)" xlink:href="#U"/><use transform="matrix(0.05,0,0,0.05,79.9,0)" xlink:href="#Q"/><use transform="matrix(0.05,0,0,0.05,85.85000000000001,0)" xlink:href="#N"/><use transform="matrix(0.05,0,0,0.05,95.85000000000001,0)" xlink:href="#V"/><use transform="matrix(0.05,0,0,0.05,105.85000000000001,0)" xlink:href="#M"/><use transform="matrix(0.05,0,0,0.05,110.85000000000001,0)" xlink:href="#V"/><use transform="matrix(0.05,0,0,0.05,120.85000000000001,0)" xlink:href="#Q"/><use transform="matrix(0.05,0,0,0.05,126.80000000000001,0)" xlink:href="#J"/><use transform="matrix(0.05,0,0,0.05,130.75,0)" xlink:href="#L"/><use transform="matrix(0.05,0,0,0.05,140.75,0)" xlink:href="#P"/><use transform="matrix(0.05,0,0,0.05,150.75,0)" xlink:href="#S"/><use transform="matrix(0.05,0,0,0.05,160.75,0)" xlink:href="#M"/><use transform="matrix(0.05,0,0,0.05,165.75,0)" xlink:href="#Q"/><use transform="matrix(0.05,0,0,0.05,171.7,0)" xlink:href="#N"/><use transform="matrix(0.05,0,0,0.05,181.7,0)" xlink:href="#K"/><use transform="matrix(0.05,0,0,0.05,191.7,0)" xlink:href="#V"/><use transform="matrix(0.05,0,0,0.05,201.7,0)" xlink:href="#N"/><use transform="matrix(0.05,0,0,0.05,211.69999999999996,0)" xlink:href="#I"/><use transform="matrix(0.05,0,0,0.05,215.64999999999998,0)" xlink:href="#K"/><use transform="matrix(0.05,0,0,0.05,225.64999999999998,0)" xlink:href="#M"/><use transform="matrix(0.05,0,0,0.05,230.64999999999998,0)" xlink:href="#M"/><use transform="matrix(0.05,0,0,0.05,235.64999999999998,0)" xlink:href="#K"/><use transform="matrix(0.05,0,0,0.05,245.64999999999998,0)" xlink:href="#T"/><use transform="matrix(0.05,0,0,0.05,251.59999999999997,0)" xlink:href="#Q"/><use transform="matrix(0.05,0,0,0.05,257.54999999999995,0)" xlink:href="#R"/><use transform="matrix(0.05,0,0,0.05,267.54999999999995,0)" xlink:href="#S"/><use transform="matrix(0.05,0,0,0.05,277.54999999999995,0)" xlink:href="#K"/><use transform="matrix(0.05,0,0,0.05,287.54999999999995,0)" xlink:href="#S"/><use transform="matrix(0.05,0,0,0.05,297.54999999999995,0)" xlink:href="#K"/><use transform="matrix(0.05,0,0,0.05,307.54999999999995,0)" xlink:href="#Q"/></g><path d="M206 0h-36l-40-164L89 0H53L-1-190h32L70-26l43-164h34l41 164 42-164h31" id="ag"/><g id="i"><use transform="matrix(0.05,0,0,0.05,0,0)" xlink:href="#ag"/><use transform="matrix(0.05,0,0,0.05,12.950000000000001,0)" xlink:href="#T"/><use transform="matrix(0.05,0,0,0.05,18.900000000000002,0)" xlink:href="#J"/><use transform="matrix(0.05,0,0,0.05,22.85,0)" xlink:href="#M"/><use transform="matrix(0.05,0,0,0.05,27.85,0)" xlink:href="#K"/><use transform="matrix(0.05,0,0,0.05,37.85,0)" xlink:href="#ab"/></g><path d="M30-248c118-7 216 8 213 122C240-48 200 0 122 0H30v-248zM63-27c89 8 146-16 146-99s-60-101-146-95v194" id="ah"/><g id="j"><use transform="matrix(0.05,0,0,0.05,0,0)" xlink:href="#ah"/><use transform="matrix(0.05,0,0,0.05,12.950000000000001,0)" xlink:href="#ac"/><use transform="matrix(0.05,0,0,0.05,24.950000000000003,0)" xlink:href="#ac"/></g><path d="M30 0v-248h187v28H63v79h144v27H63v87h162V0H30" id="ai"/><path d="M127-220V0H93v-220H8v-28h204v28h-85" id="aj"/><g id="k"><use transform="matrix(0.05,0,0,0.05,0,0)" xlink:href="#ai"/><use transform="matrix(0.05,0,0,0.05,12,0)" xlink:href="#aj"/><use transform="matrix(0.05,0,0,0.05,22.950000000000003,0)" xlink:href="#ae"/></g><path d="M0 4l72-265h28L28 4H0" id="ak"/><g id="l"><use transform="matrix(0.05,0,0,0.05,0,0)" xlink:href="#ak"/><use transform="matrix(0.05,0,0,0.05,5,0)" xlink:href="#R"/><use transform="matrix(0.05,0,0,0.05,15,0)" xlink:href="#S"/><use transform="matrix(0.05,0,0,0.05,25,0)" xlink:href="#K"/><use transform="matrix(0.05,0,0,0.05,35,0)" xlink:href="#T"/><use transform="matrix(0.05,0,0,0.05,40.95,0)" xlink:href="#U"/></g><g id="m"><use transform="matrix(0.05,0,0,0.05,0,0)" xlink:href="#T"/><use transform="matrix(0.05,0,0,0.05,5.95,0)" xlink:href="#K"/><use transform="matrix(0.05,0,0,0.05,15.949999999999998,0)" xlink:href="#V"/><use transform="matrix(0.05,0,0,0.05,25.950000000000003,0)" xlink:href="#N"/><use transform="matrix(0.05,0,0,0.05,35.95,0)" xlink:href="#ab"/></g><g id="n"><use transform="matrix(0.05,0,0,0.05,0,0)" xlink:href="#ad"/><use transform="matrix(0.05,0,0,0.05,14,0)" xlink:href="#S"/><use transform="matrix(0.05,0,0,0.05,24,0)" xlink:href="#K"/><use transform="matrix(0.05,0,0,0.05,34,0)" xlink:href="#T"/><use transform="matrix(0.05,0,0,0.05,39.95,0)" xlink:href="#U"/></g><path d="M108 0H70L1-190h34L89-25l56-165h34" id="al"/><g id="o"><use transform="matrix(0.05,0,0,0.05,0,0)" xlink:href="#ac"/><use transform="matrix(0.05,0,0,0.05,12,0)" xlink:href="#K"/><use transform="matrix(0.05,0,0,0.05,22,0)" xlink:href="#T"/><use transform="matrix(0.05,0,0,0.05,27.950000000000003,0)" xlink:href="#al"/><use transform="matrix(0.05,0,0,0.05,36.95,0)" xlink:href="#J"/><use transform="matrix(0.05,0,0,0.05,40.900000000000006,0)" xlink:href="#O"/><use transform="matrix(0.05,0,0,0.05,49.900000000000006,0)" xlink:href="#K"/></g><path d="M205 0l-28-72H64L36 0H1l101-248h38L239 0h-34zm-38-99l-47-123c-12 45-31 82-46 123h93" id="am"/><path d="M210-169c-67 3-38 105-44 169h-31v-121c0-29-5-50-35-48C34-165 62-65 56 0H25l-1-190h30c1 10-1 24 2 32 10-44 99-50 107 0 11-21 27-35 58-36 85-2 47 119 55 194h-31v-121c0-29-5-49-35-48" id="an"/><path d="M9 0v-24l116-142H16v-24h144v24L44-24h123V0H9" id="ao"/><g id="p"><use transform="matrix(0.05,0,0,0.05,0,0)" xlink:href="#am"/><use transform="matrix(0.05,0,0,0.05,12,0)" xlink:href="#an"/><use transform="matrix(0.05,0,0,0.05,26.950000000000003,0)" xlink:href="#V"/><use transform="matrix(0.05,0,0,0.05,36.95,0)" xlink:href="#ao"/><use transform="matrix(0.05,0,0,0.05,45.95,0)" xlink:href="#Z"/><use transform="matrix(0.05,0,0,0.05,55.95,0)" xlink:href="#L"/></g><path d="M33 0v-248h34V0H33" id="ap"/><g id="q"><use transform="matrix(0.05,0,0,0.05,0,0)" xlink:href="#am"/><use transform="matrix(0.05,0,0,0.05,12,0)" xlink:href="#aa"/><use transform="matrix(0.05,0,0,0.05,24,0)" xlink:href="#ap"/></g><path d="M143 4C61 4 22-44 18-125c-5-107 100-154 193-111 17 8 29 25 37 43l-32 9c-13-25-37-40-76-40-61 0-88 39-88 99 0 61 29 100 91 101 35 0 62-11 79-27v-45h-74v-28h105v86C228-13 192 4 143 4" id="aq"/><g id="r"><use transform="matrix(0.05,0,0,0.05,0,0)" xlink:href="#aq"/><use transform="matrix(0.05,0,0,0.05,14,0)" xlink:href="#V"/><use transform="matrix(0.05,0,0,0.05,24,0)" xlink:href="#M"/><use transform="matrix(0.05,0,0,0.05,29,0)" xlink:href="#K"/><use transform="matrix(0.05,0,0,0.05,39,0)" xlink:href="#ag"/><use transform="matrix(0.05,0,0,0.05,51.95,0)" xlink:href="#V"/><use transform="matrix(0.05,0,0,0.05,61.95,0)" xlink:href="#U"/></g><path d="M106-169C34-169 62-67 57 0H25v-261h32l-1 103c12-21 28-36 61-36 89 0 53 116 60 194h-32v-121c2-32-8-49-39-48" id="ar"/><g id="s"><use transform="matrix(0.05,0,0,0.05,0,0)" xlink:href="#O"/><use transform="matrix(0.05,0,0,0.05,9,0)" xlink:href="#ar"/><use transform="matrix(0.05,0,0,0.05,19,0)" xlink:href="#V"/><use transform="matrix(0.05,0,0,0.05,29,0)" xlink:href="#I"/><use transform="matrix(0.05,0,0,0.05,32.95,0)" xlink:href="#J"/><use transform="matrix(0.05,0,0,0.05,36.900000000000006,0)" xlink:href="#O"/><use transform="matrix(0.05,0,0,0.05,45.900000000000006,0)" xlink:href="#K"/></g><g id="t"><use transform="matrix(0.05,0,0,0.05,0,0)" xlink:href="#V"/><use transform="matrix(0.05,0,0,0.05,10,0)" xlink:href="#P"/><use transform="matrix(0.05,0,0,0.05,20,0)" xlink:href="#P"/></g><g id="u"><use transform="matrix(0.05,0,0,0.05,0,0)" xlink:href="#am"/><use transform="matrix(0.05,0,0,0.05,12,0)" xlink:href="#aa"/><use transform="matrix(0.05,0,0,0.05,24,0)" xlink:href="#ap"/></g><g id="v"><use transform="matrix(0.05,0,0,0.05,0,0)" xlink:href="#R"/><use transform="matrix(0.05,0,0,0.05,10,0)" xlink:href="#S"/><use transform="matrix(0.05,0,0,0.05,20,0)" xlink:href="#K"/><use transform="matrix(0.05,0,0,0.05,30,0)" xlink:href="#T"/><use transform="matrix(0.05,0,0,0.05,35.95,0)" xlink:href="#U"/><use transform="matrix(0.05,0,0,0.05,44.95,0)" xlink:href="#Q"/><use transform="matrix(0.05,0,0,0.05,50.900000000000006,0)" xlink:href="#ab"/><use transform="matrix(0.05,0,0,0.05,59.900000000000006,0)" xlink:href="#K"/><use transform="matrix(0.05,0,0,0.05,69.9,0)" xlink:href="#T"/><use transform="matrix(0.05,0,0,0.05,75.85000000000001,0)" xlink:href="#al"/><use transform="matrix(0.05,0,0,0.05,84.85000000000001,0)" xlink:href="#J"/><use transform="matrix(0.05,0,0,0.05,88.80000000000001,0)" xlink:href="#O"/><use transform="matrix(0.05,0,0,0.05,97.80000000000001,0)" xlink:href="#K"/><use transform="matrix(0.05,0,0,0.05,107.80000000000001,0)" xlink:href="#Q"/><use transform="matrix(0.05,0,0,0.05,113.75,0)" xlink:href="#V"/><use transform="matrix(0.05,0,0,0.05,123.75,0)" xlink:href="#P"/><use transform="matrix(0.05,0,0,0.05,133.75,0)" xlink:href="#J"/><use transform="matrix(0.05,0,0,0.05,137.7,0)" xlink:href="#Q"/><use transform="matrix(0.05,0,0,0.05,143.64999999999998,0)" xlink:href="#W"/></g><g id="w"><use transform="matrix(0.05,0,0,0.05,0,0)" xlink:href="#ae"/><use transform="matrix(0.05,0,0,0.05,10,0)" xlink:href="#Z"/><use transform="matrix(0.05,0,0,0.05,20,0)" xlink:href="#V"/><use transform="matrix(0.05,0,0,0.05,30,0)" xlink:href="#N"/></g><g id="x"><use transform="matrix(0.05,0,0,0.05,0,0)" xlink:href="#ah"/><use transform="matrix(0.05,0,0,0.05,12.950000000000001,0)" xlink:href="#V"/><use transform="matrix(0.05,0,0,0.05,22.950000000000003,0)" xlink:href="#M"/><use transform="matrix(0.05,0,0,0.05,27.950000000000003,0)" xlink:href="#V"/></g><g id="y"><use transform="matrix(0.05,0,0,0.05,0,0)" xlink:href="#ae"/><use transform="matrix(0.05,0,0,0.05,10,0)" xlink:href="#V"/><use transform="matrix(0.05,0,0,0.05,20,0)" xlink:href="#an"/><use transform="matrix(0.05,0,0,0.05,34.95,0)" xlink:href="#Y"/><use transform="matrix(0.05,0,0,0.05,44.95,0)" xlink:href="#N"/><use transform="matrix(0.05,0,0,0.05,54.95,0)" xlink:href="#V"/></g><g id="z"><use transform="matrix(0.05,0,0,0.05,0,0)" xlink:href="#R"/><use transform="matrix(0.05,0,0,0.05,10,0)" xlink:href="#S"/><use transform="matrix(0.05,0,0,0.05,20,0)" xlink:href="#K"/><use transform="matrix(0.05,0,0,0.05,30,0)" xlink:href="#T"/><use transform="matrix(0.05,0,0,0.05,35.95,0)" xlink:href="#U"/><use transform="matrix(0.05,0,0,0.05,44.95,0)" xlink:href="#Q"/><use transform="matrix(0.05,0,0,0.05,50.900000000000006,0)" xlink:href="#I"/><use transform="matrix(0.05,0,0,0.05,54.85,0)" xlink:href="#Z"/><use transform="matrix(0.05,0,0,0.05,64.85000000000001,0)" xlink:href="#V"/><use transform="matrix(0.05,0,0,0.05,74.85000000000001,0)" xlink:href="#N"/><use transform="matrix(0.05,0,0,0.05,84.85000000000001,0)" xlink:href="#Q"/><use transform="matrix(0.05,0,0,0.05,90.80000000000001,0)" xlink:href="#N"/><use transform="matrix(0.05,0,0,0.05,100.80000000000001,0)" xlink:href="#V"/><use transform="matrix(0.05,0,0,0.05,110.80000000000001,0)" xlink:href="#M"/><use transform="matrix(0.05,0,0,0.05,115.80000000000001,0)" xlink:href="#V"/><use transform="matrix(0.05,0,0,0.05,125.80000000000001,0)" xlink:href="#Q"/></g><g id="A"><use transform="matrix(0.05,0,0,0.05,0,0)" xlink:href="#H"/><use transform="matrix(0.05,0,0,0.05,12.950000000000001,0)" xlink:href="#ae"/><use transform="matrix(0.05,0,0,0.05,22.950000000000003,0)" xlink:href="#ap"/></g><g id="B"><use transform="matrix(0.05,0,0,0.05,0,0)" xlink:href="#N"/><use transform="matrix(0.05,0,0,0.05,10,0)" xlink:href="#O"/><use transform="matrix(0.05,0,0,0.05,19,0)" xlink:href="#P"/><use transform="matrix(0.05,0,0,0.05,29,0)" xlink:href="#Q"/><use transform="matrix(0.05,0,0,0.05,34.95,0)" xlink:href="#R"/><use transform="matrix(0.05,0,0,0.05,44.95,0)" xlink:href="#S"/><use transform="matrix(0.05,0,0,0.05,54.95,0)" xlink:href="#K"/><use transform="matrix(0.05,0,0,0.05,64.95,0)" xlink:href="#T"/><use transform="matrix(0.05,0,0,0.05,70.9,0)" xlink:href="#U"/><use transform="matrix(0.05,0,0,0.05,79.9,0)" xlink:href="#Q"/><use transform="matrix(0.05,0,0,0.05,85.85000000000001,0)" xlink:href="#I"/><use transform="matrix(0.05,0,0,0.05,89.80000000000001,0)" xlink:href="#Z"/><use transform="matrix(0.05,0,0,0.05,99.80000000000001,0)" xlink:href="#L"/><use transform="matrix(0.05,0,0,0.05,109.80000000000001,0)" xlink:href="#X"/><use transform="matrix(0.05,0,0,0.05,119.80000000000001,0)" xlink:href="#Q"/><use transform="matrix(0.05,0,0,0.05,125.75,0)" xlink:href="#R"/><use transform="matrix(0.05,0,0,0.05,135.75,0)" xlink:href="#S"/><use transform="matrix(0.05,0,0,0.05,145.75,0)" xlink:href="#K"/><use transform="matrix(0.05,0,0,0.05,155.75,0)" xlink:href="#T"/><use transform="matrix(0.05,0,0,0.05,161.7,0)" xlink:href="#U"/><use transform="matrix(0.05,0,0,0.05,170.7,0)" xlink:href="#Q"/><use transform="matrix(0.05,0,0,0.05,176.64999999999998,0)" xlink:href="#R"/><use transform="matrix(0.05,0,0,0.05,186.64999999999998,0)" xlink:href="#S"/><use transform="matrix(0.05,0,0,0.05,196.64999999999998,0)" xlink:href="#K"/><use transform="matrix(0.05,0,0,0.05,206.64999999999998,0)" xlink:href="#S"/><use transform="matrix(0.05,0,0,0.05,216.64999999999998,0)" xlink:href="#K"/><use transform="matrix(0.05,0,0,0.05,226.64999999999998,0)" xlink:href="#Q"/><use transform="matrix(0.05,0,0,0.05,232.59999999999997,0)" xlink:href="#W"/></g><g id="C"><use transform="matrix(0.05,0,0,0.05,0,0)" xlink:href="#ak"/><use transform="matrix(0.05,0,0,0.05,5,0)" xlink:href="#I"/><use transform="matrix(0.05,0,0,0.05,8.95,0)" xlink:href="#Z"/><use transform="matrix(0.05,0,0,0.05,18.95,0)" xlink:href="#L"/><use transform="matrix(0.05,0,0,0.05,28.950000000000003,0)" xlink:href="#X"/><use transform="matrix(0.05,0,0,0.05,38.95,0)" xlink:href="#Q"/><use transform="matrix(0.05,0,0,0.05,44.900000000000006,0)" xlink:href="#T"/><use transform="matrix(0.05,0,0,0.05,50.85000000000001,0)" xlink:href="#S"/><use transform="matrix(0.05,0,0,0.05,60.85,0)" xlink:href="#L"/><use transform="matrix(0.05,0,0,0.05,70.85000000000001,0)" xlink:href="#L"/><use transform="matrix(0.05,0,0,0.05,80.85000000000001,0)" xlink:href="#J"/><use transform="matrix(0.05,0,0,0.05,84.80000000000001,0)" xlink:href="#L"/><use transform="matrix(0.05,0,0,0.05,94.80000000000001,0)" xlink:href="#X"/><use transform="matrix(0.05,0,0,0.05,104.80000000000001,0)" xlink:href="#Q"/><use transform="matrix(0.05,0,0,0.05,110.75,0)" xlink:href="#R"/><use transform="matrix(0.05,0,0,0.05,120.75,0)" xlink:href="#S"/><use transform="matrix(0.05,0,0,0.05,130.75,0)" xlink:href="#K"/><use transform="matrix(0.05,0,0,0.05,140.75,0)" xlink:href="#T"/><use transform="matrix(0.05,0,0,0.05,146.7,0)" xlink:href="#U"/></g><g id="D"><use transform="matrix(0.05,0,0,0.05,0,0)" xlink:href="#ae"/><use transform="matrix(0.05,0,0,0.05,10,0)" xlink:href="#Z"/><use transform="matrix(0.05,0,0,0.05,20,0)" xlink:href="#L"/><use transform="matrix(0.05,0,0,0.05,30,0)" xlink:href="#X"/></g><g id="E"><use transform="matrix(0.05,0,0,0.05,0,0)" xlink:href="#ad"/><use transform="matrix(0.05,0,0,0.05,14,0)" xlink:href="#S"/><use transform="matrix(0.05,0,0,0.05,24,0)" xlink:href="#K"/><use transform="matrix(0.05,0,0,0.05,34,0)" xlink:href="#T"/><use transform="matrix(0.05,0,0,0.05,39.95,0)" xlink:href="#U"/></g><g id="F"><use transform="matrix(0.05,0,0,0.05,0,0)" xlink:href="#R"/><use transform="matrix(0.05,0,0,0.05,10,0)" xlink:href="#S"/><use transform="matrix(0.05,0,0,0.05,20,0)" xlink:href="#K"/><use transform="matrix(0.05,0,0,0.05,30,0)" xlink:href="#T"/><use transform="matrix(0.05,0,0,0.05,35.95,0)" xlink:href="#U"/><use transform="matrix(0.05,0,0,0.05,44.95,0)" xlink:href="#Q"/><use transform="matrix(0.05,0,0,0.05,50.900000000000006,0)" xlink:href="#O"/><use transform="matrix(0.05,0,0,0.05,59.900000000000006,0)" xlink:href="#T"/><use transform="matrix(0.05,0,0,0.05,65.85000000000001,0)" xlink:href="#K"/><use transform="matrix(0.05,0,0,0.05,75.85000000000001,0)" xlink:href="#V"/><use transform="matrix(0.05,0,0,0.05,85.85000000000001,0)" xlink:href="#M"/><use transform="matrix(0.05,0,0,0.05,90.85000000000001,0)" xlink:href="#K"/><use transform="matrix(0.05,0,0,0.05,100.85000000000001,0)" xlink:href="#Q"/><use transform="matrix(0.05,0,0,0.05,106.80000000000001,0)" xlink:href="#I"/><use transform="matrix(0.05,0,0,0.05,110.75,0)" xlink:href="#Z"/><use transform="matrix(0.05,0,0,0.05,120.75,0)" xlink:href="#L"/><use transform="matrix(0.05,0,0,0.05,130.75,0)" xlink:href="#X"/><use transform="matrix(0.05,0,0,0.05,140.75,0)" xlink:href="#Q"/><use transform="matrix(0.05,0,0,0.05,146.7,0)" xlink:href="#R"/><use transform="matrix(0.05,0,0,0.05,156.7,0)" xlink:href="#S"/><use transform="matrix(0.05,0,0,0.05,166.7,0)" xlink:href="#K"/><use transform="matrix(0.05,0,0,0.05,176.7,0)" xlink:href="#T"/><use transform="matrix(0.05,0,0,0.05,182.64999999999998,0)" xlink:href="#U"/><use transform="matrix(0.05,0,0,0.05,191.64999999999998,0)" xlink:href="#Q"/><use transform="matrix(0.05,0,0,0.05,197.59999999999997,0)" xlink:href="#W"/></g><path d="M26 75v-336h71v23H56V52h41v23H26" id="as"/><path d="M3 75V52h41v-290H3v-23h71V75H3" id="at"/><g id="G"><use transform="matrix(0.05,0,0,0.05,0,0)" xlink:href="#R"/><use transform="matrix(0.05,0,0,0.05,10,0)" xlink:href="#S"/><use transform="matrix(0.05,0,0,0.05,20,0)" xlink:href="#K"/><use transform="matrix(0.05,0,0,0.05,30,0)" xlink:href="#T"/><use transform="matrix(0.05,0,0,0.05,35.95,0)" xlink:href="#U"/><use transform="matrix(0.05,0,0,0.05,44.95,0)" xlink:href="#Q"/><use transform="matrix(0.05,0,0,0.05,50.900000000000006,0)" xlink:href="#ab"/><use transform="matrix(0.05,0,0,0.05,59.900000000000006,0)" xlink:href="#K"/><use transform="matrix(0.05,0,0,0.05,69.9,0)" xlink:href="#T"/><use transform="matrix(0.05,0,0,0.05,75.85000000000001,0)" xlink:href="#al"/><use transform="matrix(0.05,0,0,0.05,84.85000000000001,0)" xlink:href="#J"/><use transform="matrix(0.05,0,0,0.05,88.80000000000001,0)" xlink:href="#O"/><use transform="matrix(0.05,0,0,0.05,97.80000000000001,0)" xlink:href="#K"/><use transform="matrix(0.05,0,0,0.05,107.80000000000001,0)" xlink:href="#Q"/><use transform="matrix(0.05,0,0,0.05,113.75,0)" xlink:href="#as"/><use transform="matrix(0.05,0,0,0.05,118.75,0)" xlink:href="#V"/><use transform="matrix(0.05,0,0,0.05,128.75,0)" xlink:href="#O"/><use transform="matrix(0.05,0,0,0.05,137.75,0)" xlink:href="#O"/><use transform="matrix(0.05,0,0,0.05,146.75,0)" xlink:href="#Z"/><use transform="matrix(0.05,0,0,0.05,156.75,0)" xlink:href="#S"/><use transform="matrix(0.05,0,0,0.05,166.75,0)" xlink:href="#L"/><use transform="matrix(0.05,0,0,0.05,176.75,0)" xlink:href="#M"/><use transform="matrix(0.05,0,0,0.05,181.75,0)" xlink:href="#af"/><use transform="matrix(0.05,0,0,0.05,191.75,0)" xlink:href="#J"/><use transform="matrix(0.05,0,0,0.05,195.7,0)" xlink:href="#N"/><use transform="matrix(0.05,0,0,0.05,205.69999999999996,0)" xlink:href="#at"/></g></defs></g></svg>